<svg width="32" height="32" viewBox="0 0 32 32" fill="none" xmlns="http://www.w3.org/2000/svg">
<g clip-path="url(#clip0_876_104)">
<path d="M8.66699 25.333H3.66699C3.11499 25.333 2.66699 24.885 2.66699 24.333C2.66699 23.781 3.11499 23.333 3.66699 23.333H8.66699C9.21899 23.333 9.66699 23.781 9.66699 24.333C9.66699 24.885 9.21899 25.333 8.66699 25.333ZM18.667 25.333H14.0003C13.4483 25.333 13.0003 24.885 13.0003 24.333C13.0003 23.781 13.4483 23.333 14.0003 23.333H17.859L20.431 11.333H6.33366C5.78166 11.333 5.33366 10.885 5.33366 10.333C5.33366 9.78101 5.78166 9.33301 6.33366 9.33301H21.667C21.9697 9.33301 22.255 9.47034 22.4443 9.70367C22.635 9.93967 22.7083 10.2463 22.6443 10.5423L19.6443 24.5423C19.5457 25.0037 19.139 25.333 18.667 25.333V25.333Z" fill="#67C6B3"/>
<path d="M30.0003 25.333H28.667C28.115 25.333 27.667 24.885 27.667 24.333C27.667 23.781 28.115 23.333 28.667 23.333H29.1923L29.999 19.5663C29.9456 17.2223 28.023 15.333 25.667 15.333H21.6176L19.903 23.333H23.3336C23.8856 23.333 24.3336 23.781 24.3336 24.333C24.3336 24.885 23.8856 25.333 23.3336 25.333H18.667C18.3643 25.333 18.079 25.1957 17.8896 24.9623C17.699 24.7263 17.6256 24.4197 17.6896 24.1237L19.8323 14.1237C19.931 13.6623 20.3376 13.333 20.8096 13.333H25.667C29.159 13.333 32.0003 16.1743 32.0003 19.6663C32.0003 19.737 31.9936 19.8063 31.9776 19.8757L30.9776 24.5423C30.879 25.0037 30.4723 25.333 30.0003 25.333Z" fill="#67C6B3"/>
<path d="M26 28C24.1627 28 22.6667 26.5053 22.6667 24.6667C22.6667 22.828 24.1627 21.3333 26 21.3333C27.8373 21.3333 29.3333 22.828 29.3333 24.6667C29.3333 26.5053 27.8373 28 26 28ZM26 23.3333C25.2653 23.3333 24.6667 23.9307 24.6667 24.6667C24.6667 25.4027 25.2653 26 26 26C26.7347 26 27.3333 25.4027 27.3333 24.6667C27.3333 23.9307 26.7347 23.3333 26 23.3333ZM11.3333 28C9.496 28 8 26.5053 8 24.6667C8 22.828 9.496 21.3333 11.3333 21.3333C13.1707 21.3333 14.6667 22.828 14.6667 24.6667C14.6667 26.5053 13.1707 28 11.3333 28ZM11.3333 23.3333C10.5987 23.3333 10 23.9307 10 24.6667C10 25.4027 10.5987 26 11.3333 26C12.068 26 12.6667 25.4027 12.6667 24.6667C12.6667 23.9307 12.068 23.3333 11.3333 23.3333ZM8.33333 14H3.66667C3.11467 14 2.66667 13.552 2.66667 13C2.66667 12.448 3.11467 12 3.66667 12H8.33333C8.88533 12 9.33333 12.448 9.33333 13C9.33333 13.552 8.88533 14 8.33333 14ZM8.33333 18H2.33333C1.78133 18 1.33333 17.552 1.33333 17C1.33333 16.448 1.78133 16 2.33333 16H8.33333C8.88533 16 9.33333 16.448 9.33333 17C9.33333 17.552 8.88533 18 8.33333 18ZM8.33333 22H1C0.448 22 0 21.552 0 21C0 20.448 0.448 20 1 20H8.33333C8.88533 20 9.33333 20.448 9.33333 21C9.33333 21.552 8.88533 22 8.33333 22Z" fill="#67C6B3"/>
</g>
<defs>
<clipPath id="clip0_876_104">
<rect width="32" height="32" fill="white"/>
</clipPath>
</defs>
</svg>
