<svg width="940" height="38" viewBox="0 0 940 38" fill="none" xmlns="http://www.w3.org/2000/svg">
<g opacity="0.25">
<path d="M38.2264 2.78571C36.7087 2.88095 34.2899 2.92857 32.0609 2.92857H29.7606L19.3266 31.0714L8.65548 2.78571C7.58837 2.88095 5.92841 2.92857 4.50559 2.92857C2.86935 2.92857 1.06711 2.88095 0 2.78571V3.7619C3.2962 3.90476 3.93647 4.40476 3.93647 7.95238V31.6429C3.93647 35.2143 3.2962 36.1905 0 36.3333V37.3095C1.06711 37.2143 2.86935 37.1667 4.50559 37.1667C6.16555 37.1667 8.29978 37.2143 9.46175 37.3095V36.3333C5.69128 36.1905 5.05101 35.2143 5.05101 31.6429V5.90476L17.2872 37.5476H18.0698L29.7606 6.04762V32.1429C29.7606 35.6905 29.1441 36.1905 25.8479 36.3333V37.3095C27.1996 37.2143 29.5235 37.1667 32.0609 37.1667C34.2899 37.1667 36.7087 37.2143 38.2264 37.3095V36.3333C34.9302 36.1905 34.2899 35.6905 34.2899 32.1429V7.95238C34.2899 4.40476 34.9302 3.90476 38.2264 3.7619V2.78571Z" fill="#222122"/>
<path d="M47.2139 0C45.5065 0 44.1074 1.42857 44.1074 3.11905C44.1074 4.83333 45.5065 6.2381 47.2139 6.2381C48.8975 6.2381 50.3204 4.83333 50.3204 3.11905C50.3204 1.42857 48.8975 0 47.2139 0ZM49.7275 11.6667C48.3284 12.1429 46.5736 12.3333 44.6765 12.3333C43.7043 12.3333 42.6846 12.2857 41.6649 12.1905V13.2143C44.4868 13.2143 45.3642 14.5952 45.3642 17.5238V32.7857C45.3642 35.5 44.3445 36.2857 41.6649 36.2857V37.3095C42.7794 37.2619 45.3168 37.119 47.5459 37.119C49.7749 37.119 52.3123 37.2619 53.4268 37.3095V36.2857C50.7472 36.2857 49.7275 35.5 49.7275 32.7857V11.6667Z" fill="#222122"/>
<path d="M72.2318 11.5238C68.9119 11.5238 65.6631 13.0238 63.9557 17.4048V11.6667C62.5566 12.1429 60.8018 12.3333 58.9047 12.3333C57.9324 12.3333 56.9128 12.2857 55.8931 12.1905V13.2143C58.715 13.2143 59.5924 14.5952 59.5924 17.5238V32.7857C59.5924 35.5 58.5727 36.2857 55.8931 36.2857V37.3095C57.0076 37.2619 59.5924 37.119 61.7266 37.119C63.8609 37.119 66.1611 37.2619 67.1808 37.3095V36.2857C64.8331 36.2857 63.9557 35.5 63.9557 32.7857V21.9524C63.9557 16.9762 66.6828 13.0714 70.7615 13.0714C74.2711 13.0714 74.698 15.6667 74.698 18.6905V32.7857C74.698 35.5 73.8206 36.2857 71.4966 36.2857V37.3095C72.5163 37.2619 74.7928 37.119 76.9271 37.119C79.0613 37.119 81.6461 37.2619 82.7606 37.3095V36.2857C80.081 36.2857 79.0613 35.5 79.0613 32.7857V19.7619C79.0613 16.4286 78.587 14.6905 77.3776 13.3571C76.2631 12.1905 74.698 11.5238 72.2318 11.5238Z" fill="#222122"/>
<path d="M105.028 31.0714C103.344 34.7143 100.807 35.9524 97.8899 35.9524C94.1669 35.9524 90.4676 32.0476 90.4676 25.3571C90.4676 24.2857 90.515 23.1667 90.6336 22.2381H105.81C105.81 14.881 102.419 11.5238 96.728 11.5238C90.0644 11.5238 85.7485 16.7857 85.7485 25.3571C85.7485 32.8333 89.8747 38 96.9177 38C101.732 38 104.933 34.7143 106 31.4524L105.028 31.0714ZM96.5383 12.4524C99.787 12.4524 101.305 16.5476 101.139 21.3095H90.5624C91.0841 15.1667 93.6452 12.4524 96.5383 12.4524Z" fill="#222122"/>
</g>
<g opacity="0.25">
<path d="M177.481 2.43038V6.87764H168.524V35.6653H163.005V6.87764H154V2.43038H177.481Z" fill="#222122"/>
<path d="M198.418 36C195.287 36 192.398 35.2827 189.752 33.8481C187.137 32.3816 185.056 30.3572 183.506 27.775C181.989 25.1608 181.231 22.2278 181.231 18.9761C181.231 15.7243 181.989 12.8073 183.506 10.225C185.056 7.64276 187.137 5.63432 189.752 4.19972C192.398 2.73324 195.287 2 198.418 2C201.581 2 204.47 2.73324 207.084 4.19972C209.731 5.63432 211.812 7.64276 213.329 10.225C214.846 12.8073 215.605 15.7243 215.605 18.9761C215.605 22.2278 214.846 25.1608 213.329 27.775C211.812 30.3572 209.731 32.3816 207.084 33.8481C204.47 35.2827 201.581 36 198.418 36ZM198.418 31.2658C200.645 31.2658 202.63 30.7717 204.373 29.7834C206.116 28.7632 207.471 27.3286 208.44 25.4796C209.44 23.5987 209.94 21.4308 209.94 18.9761C209.94 16.5213 209.44 14.3694 208.44 12.5204C207.471 10.6714 206.116 9.2527 204.373 8.26442C202.63 7.27614 200.645 6.782 198.418 6.782C196.191 6.782 194.206 7.27614 192.463 8.26442C190.72 9.2527 189.348 10.6714 188.348 12.5204C187.379 14.3694 186.895 16.5213 186.895 18.9761C186.895 21.4308 187.379 23.5987 188.348 25.4796C189.348 27.3286 190.72 28.7632 192.463 29.7834C194.206 30.7717 196.191 31.2658 198.418 31.2658Z" fill="#222122"/>
<path d="M226.507 2.43038V23.6146C226.507 26.1331 227.168 28.03 228.492 29.3052C229.847 30.5804 231.719 31.218 234.108 31.218C236.529 31.218 238.401 30.5804 239.724 29.3052C241.08 28.03 241.757 26.1331 241.757 23.6146V2.43038H247.277V23.519C247.277 26.2288 246.679 28.5241 245.485 30.4051C244.291 32.286 242.693 33.6887 240.692 34.6132C238.691 35.5377 236.48 36 234.059 36C231.639 36 229.428 35.5377 227.427 34.6132C225.458 33.6887 223.892 32.286 222.731 30.4051C221.569 28.5241 220.988 26.2288 220.988 23.519V2.43038H226.507Z" fill="#222122"/>
<path d="M252.623 18.9761C252.623 15.7243 253.381 12.8073 254.898 10.225C256.448 7.64276 258.529 5.63432 261.144 4.19972C263.791 2.73324 266.679 2 269.81 2C273.393 2 276.572 2.8767 279.348 4.6301C282.156 6.35162 284.189 8.80638 285.448 11.9944H278.815C277.944 10.241 276.733 8.9339 275.184 8.07314C273.635 7.21238 271.843 6.782 269.81 6.782C267.583 6.782 265.598 7.27614 263.855 8.26442C262.112 9.2527 260.74 10.6714 259.74 12.5204C258.772 14.3694 258.287 16.5213 258.287 18.9761C258.287 21.4308 258.772 23.5827 259.74 25.4318C260.74 27.2808 262.112 28.7154 263.855 29.7356C265.598 30.7239 267.583 31.218 269.81 31.218C271.843 31.218 273.635 30.7876 275.184 29.9269C276.733 29.0661 277.944 27.759 278.815 26.0056H285.448C284.189 29.1936 282.156 31.6484 279.348 33.3699C276.572 35.0914 273.393 35.9522 269.81 35.9522C266.647 35.9522 263.758 35.2349 261.144 33.8003C258.529 32.3338 256.448 30.3094 254.898 27.7271C253.381 25.1449 252.623 22.2278 252.623 18.9761Z" fill="#222122"/>
<path d="M318.778 2.43038V35.6653H313.259V21.128H297.427V35.6653H291.908V2.43038H297.427V16.6807H313.259V2.43038H318.778Z" fill="#222122"/>
<path d="M331.515 2.43038V23.6146C331.515 26.1331 332.176 28.03 333.5 29.3052C334.855 30.5804 336.727 31.218 339.116 31.218C341.537 31.218 343.409 30.5804 344.732 29.3052C346.087 28.03 346.765 26.1331 346.765 23.6146V2.43038H352.285V23.519C352.285 26.2288 351.687 28.5241 350.493 30.4051C349.299 32.286 347.701 33.6887 345.7 34.6132C343.699 35.5377 341.488 36 339.067 36C336.647 36 334.436 35.5377 332.435 34.6132C330.466 33.6887 328.9 32.286 327.738 30.4051C326.577 28.5241 325.996 26.2288 325.996 23.519V2.43038H331.515Z" fill="#222122"/>
<path d="M383 12.3291C383 14.0188 382.597 15.6128 381.79 17.1111C380.983 18.6095 379.692 19.8368 377.916 20.7932C376.141 21.7178 373.866 22.18 371.09 22.18H364.99V35.6653H359.471V2.43038H371.09C373.672 2.43038 375.851 2.8767 377.626 3.76934C379.433 4.6301 380.773 5.80966 381.644 7.30802C382.548 8.80638 383 10.4801 383 12.3291ZM371.09 17.7328C373.188 17.7328 374.753 17.2705 375.786 16.346C376.819 15.3896 377.336 14.0506 377.336 12.3291C377.336 8.6948 375.254 6.87764 371.09 6.87764H364.99V17.7328H371.09Z" fill="#222122"/>
</g>
<g opacity="0.25">
<path d="M442.123 2.989C440.99 2.989 439.99 3.12462 439.124 3.39586C438.274 3.6671 437.557 4.05002 436.975 4.54463C436.392 5.03924 435.952 5.63756 435.652 6.33959C435.369 7.02566 435.227 7.78353 435.227 8.6132C435.227 9.20354 435.306 9.7859 435.463 10.3603C435.621 10.9347 435.959 11.525 436.479 12.1313C436.998 12.7216 437.746 13.3359 438.722 13.9741C439.714 14.6123 441.045 15.2984 442.714 16.0323C444.634 16.9258 446.256 17.7635 447.578 18.5453C448.917 19.3271 450.003 20.1567 450.838 21.0343C451.672 21.9118 452.27 22.901 452.632 24.0019C453.01 25.0869 453.199 26.3872 453.199 27.903C453.199 29.0517 452.971 30.2005 452.514 31.3493C452.058 32.4981 451.365 33.5272 450.436 34.4366C449.523 35.3461 448.366 36.088 446.964 36.6624C445.579 37.2208 443.949 37.5 442.076 37.5C439.998 37.5 438.25 37.3006 436.833 36.9017C435.416 36.5188 434.275 36.0162 433.409 35.3939C432.559 34.7717 431.945 34.0696 431.567 33.2878C431.189 32.4901 431 31.6923 431 30.8946C431 30.368 431.079 29.8814 431.236 29.4347C431.394 28.972 431.622 28.5731 431.921 28.238C432.236 27.887 432.614 27.6158 433.055 27.4243C433.511 27.2169 434.023 27.1132 434.59 27.1132C435.109 27.1132 435.582 27.2089 436.007 27.4004C436.432 27.5759 436.786 27.8232 437.069 28.1423C437.368 28.4454 437.597 28.8124 437.754 29.2432C437.927 29.658 438.014 30.1128 438.014 30.6074C438.014 31.7402 437.691 32.5938 437.046 33.1682C436.4 33.7426 435.566 34.0298 434.542 34.0298V34.1255C434.653 34.2531 434.865 34.4286 435.18 34.652C435.511 34.8754 435.959 35.0987 436.526 35.3221C437.109 35.5455 437.817 35.7449 438.652 35.9204C439.502 36.08 440.502 36.1598 441.651 36.1598C442.595 36.1598 443.532 36.0321 444.461 35.7768C445.406 35.5216 446.24 35.1546 446.964 34.6759C447.704 34.1973 448.303 33.6149 448.759 32.9288C449.216 32.2428 449.444 31.469 449.444 30.6074C449.444 29.8734 449.31 29.1874 449.043 28.5492C448.775 27.911 448.271 27.2648 447.531 26.6106C446.791 25.9405 445.76 25.2305 444.438 24.4806C443.131 23.7147 441.423 22.8532 439.313 21.8959C437.754 21.2257 436.471 20.4918 435.463 19.694C434.472 18.8803 433.684 18.0267 433.102 17.1332C432.535 16.2238 432.141 15.2824 431.921 14.3092C431.701 13.32 431.59 12.3068 431.59 11.2697C431.59 9.96141 431.827 8.72488 432.299 7.56015C432.771 6.39543 433.456 5.38228 434.353 4.5207C435.251 3.64317 436.353 2.94912 437.66 2.43855C438.982 1.92799 440.486 1.6727 442.17 1.6727C443.792 1.6727 445.201 1.86417 446.398 2.24709C447.61 2.63001 448.61 3.14058 449.397 3.77878C450.184 4.40103 450.775 5.13497 451.168 5.98059C451.562 6.81026 451.759 7.67982 451.759 8.58926C451.759 9.06792 451.68 9.53062 451.522 9.97736C451.365 10.4081 451.137 10.7911 450.838 11.1261C450.538 11.4452 450.168 11.7085 449.728 11.9159C449.287 12.1074 448.783 12.2031 448.216 12.2031C447.697 12.2031 447.224 12.1154 446.799 11.9398C446.374 11.7643 446.004 11.525 445.689 11.2219C445.39 10.9187 445.154 10.5597 444.981 10.1449C444.823 9.73006 444.745 9.27533 444.745 8.78072C444.745 8.22229 444.839 7.72768 445.028 7.29689C445.217 6.85015 445.469 6.48318 445.784 6.19599C446.114 5.89284 446.5 5.66947 446.941 5.52587C447.382 5.36632 447.854 5.28655 448.358 5.28655V5.19081C448.263 5.07913 448.074 4.90362 447.791 4.66429C447.508 4.40901 447.114 4.16171 446.61 3.92238C446.106 3.6671 445.485 3.4517 444.745 3.2762C444.005 3.08473 443.131 2.989 442.123 2.989Z" fill="#222122"/>
<path d="M455.962 3.41979L460.898 2.89327L464.228 2.00776L464.653 2.70181V35.4418L467.085 35.6811V36.6624H456.435V35.6811L458.867 35.4418V4.35317L456.009 4.40103L455.962 3.41979ZM464.653 24.1695V23.5712L473.84 13.8784L471.195 13.6151V12.6339H478.256V13.6151L475.587 13.8784L468.809 21.1779L478.303 35.4418L480.759 35.6811V36.6624H469.943V35.6811L471.856 35.4418L464.653 24.1695Z" fill="#222122"/>
<path d="M481.845 14.5485V13.5673L486.781 13.0407L490.111 12.1552L490.536 12.8493V35.4418L492.969 35.6811V36.6624H482.318V35.6811L484.75 35.4418V14.5485H481.845ZM484.42 3.65912C484.42 3.21238 484.498 2.79754 484.656 2.41462C484.829 2.03169 485.057 1.69664 485.341 1.40944C485.624 1.12225 485.955 0.898879 486.332 0.739327C486.71 0.579776 487.112 0.5 487.537 0.5C487.962 0.5 488.363 0.587753 488.741 0.76326C489.119 0.922812 489.45 1.14618 489.733 1.43338C490.032 1.72057 490.261 2.05563 490.418 2.43855C490.591 2.82147 490.678 3.22833 490.678 3.65912C490.678 4.08991 490.591 4.49677 490.418 4.87969C490.261 5.26261 490.04 5.60565 489.757 5.9088C489.473 6.19599 489.143 6.42734 488.765 6.60285C488.387 6.7624 487.978 6.84217 487.537 6.84217C487.096 6.84217 486.687 6.7624 486.309 6.60285C485.931 6.42734 485.6 6.19599 485.317 5.9088C485.034 5.6216 484.813 5.28655 484.656 4.90362C484.498 4.5207 484.42 4.10586 484.42 3.65912Z" fill="#222122"/>
<path d="M495.661 13.5673L500.597 13.0407L503.926 12.1552L504.352 12.8493L504.257 16.0802H504.352C506.225 13.304 508.65 11.9159 511.625 11.9159C512.192 11.9159 512.735 11.9638 513.255 12.0595C513.774 12.1552 514.349 12.3706 514.979 12.7057C515.609 13.0407 516.152 13.4795 516.608 14.022C517.065 14.5645 517.451 15.3383 517.765 16.3435C518.08 17.3486 518.238 18.5213 518.238 19.8616V35.4418L520.647 35.6811V36.6624H510.019V35.6811L512.428 35.4418V19.1675C512.428 15.7691 511.35 14.0699 509.193 14.0699C507.776 14.0699 506.611 14.724 505.698 16.0323C504.8 17.3407 504.352 19.0558 504.352 21.1779V35.4418L506.784 35.6811V36.6624H496.133V35.6811L498.566 35.4418V14.5006L495.708 14.5485L495.661 13.5673Z" fill="#222122"/>
<path d="M534.509 36.6624V35.5854L538.146 35.3461V3.82665L534.509 3.58732V2.51035H556.826L557.063 12.251H555.74C555.63 10.9107 555.441 9.76994 555.173 8.82859C554.906 7.87128 554.496 7.00172 553.945 6.21992C553.41 5.42216 552.67 4.82385 551.725 4.42497C550.781 4.02609 549.631 3.82665 548.277 3.82665C546.467 3.82665 545.105 3.90643 544.192 4.06598V18.8085C544.585 18.8245 544.814 18.8325 544.877 18.8325C545.995 18.8325 546.876 18.7766 547.522 18.6649C548.167 18.5373 548.75 18.282 549.269 17.8991C549.789 17.5002 550.151 16.9179 550.356 16.152C550.56 15.3862 550.663 14.365 550.663 13.0886H551.962V25.9405H550.663C550.663 23.7546 550.308 22.2389 549.6 21.3933C548.891 20.5476 547.711 20.1248 546.058 20.1248L544.192 20.1488V35.3461L548.773 35.5854V36.6624H534.509Z" fill="#222122"/>
<path d="M559.401 14.5485V13.5673L564.336 13.0407L567.666 12.1552L567.997 12.8493V16.9657H568.091C568.406 16.3275 568.792 15.7053 569.249 15.099C569.705 14.4927 570.201 13.9582 570.736 13.4955C571.287 13.0168 571.87 12.6339 572.484 12.3467C573.098 12.0595 573.72 11.9159 574.35 11.9159C575.578 11.9159 576.522 12.251 577.184 12.9211C577.861 13.5752 578.199 14.4528 578.199 15.5537C578.199 16.0164 578.128 16.4472 577.986 16.8461C577.845 17.229 577.64 17.564 577.372 17.8512C577.121 18.1384 576.806 18.3698 576.428 18.5453C576.066 18.7048 575.664 18.7846 575.223 18.7846C574.751 18.7846 574.326 18.7048 573.948 18.5453C573.57 18.3857 573.248 18.1703 572.98 17.8991C572.728 17.6279 572.531 17.3167 572.389 16.9657C572.248 16.5987 572.177 16.2078 572.177 15.793C572.177 14.9474 572.35 14.3251 572.696 13.9263V13.7827C572.13 13.9103 571.571 14.2135 571.02 14.6921C570.484 15.1708 569.996 15.8249 569.556 16.6546C569.115 17.4683 568.76 18.4575 568.493 19.6223C568.225 20.771 568.091 22.0714 568.091 23.5233V35.4418L570.524 35.6811V36.6624H559.873V35.6811L562.305 35.4418V14.5485H559.401Z" fill="#222122"/>
<path d="M580.23 24.6481C580.23 23.4036 580.348 22.191 580.584 21.0103C580.82 19.8137 581.206 18.6649 581.741 17.564C582.277 16.4631 582.93 15.4978 583.702 14.6682C584.473 13.8385 585.426 13.1764 586.559 12.6818C587.708 12.1712 588.976 11.9159 590.361 11.9159C591.668 11.9159 592.841 12.1074 593.88 12.4903C594.919 12.8573 595.785 13.3758 596.478 14.0459C597.171 14.716 597.745 15.5377 598.202 16.511C598.658 17.4683 598.981 18.5134 599.17 19.6462C599.375 20.763 599.477 21.9916 599.477 23.3318L598.839 23.9301H586.276V25.39C586.276 32.3465 588.228 35.8247 592.132 35.8247C594.903 35.8247 597.115 34.4207 598.769 31.6125L599.69 32.1869C597.659 35.6492 594.77 37.3803 591.023 37.3803C587.401 37.3803 584.693 36.2475 582.899 33.9819C581.12 31.7163 580.23 28.605 580.23 24.6481ZM586.276 22.8532L593.904 22.542C593.951 21.7283 593.975 20.9465 593.975 20.1966C593.975 17.8831 593.699 16.1041 593.148 14.8596C592.613 13.6151 591.715 12.9929 590.456 12.9929C589.7 12.9929 589.047 13.2482 588.496 13.7587C587.96 14.2533 587.543 14.9713 587.244 15.9127C586.945 16.854 586.717 17.8831 586.559 19C586.417 20.1009 586.323 21.3853 586.276 22.8532Z" fill="#222122"/>
<path d="M611.403 36.2076C613.198 36.2076 614.521 35.8726 615.371 35.2025C616.237 34.5323 616.67 33.6947 616.67 32.6895C616.67 32.163 616.583 31.7003 616.41 31.3014C616.252 30.8866 615.985 30.4957 615.607 30.1287C615.245 29.7458 614.757 29.3629 614.143 28.9799C613.544 28.5811 612.797 28.1343 611.899 27.6397C611.112 27.177 610.278 26.6984 609.396 26.2038C608.514 25.6932 607.695 25.1108 606.94 24.4567C606.2 23.7865 605.578 23.0127 605.074 22.1352C604.586 21.2577 604.342 20.2046 604.342 18.9761C604.342 17.8911 604.547 16.9099 604.956 16.0323C605.365 15.1548 605.932 14.4129 606.656 13.8066C607.396 13.1843 608.27 12.7057 609.278 12.3706C610.301 12.0356 611.419 11.868 612.631 11.868C613.544 11.868 614.458 11.9877 615.371 12.227C616.3 12.4504 617.134 12.7934 617.874 13.2561C618.614 13.7188 619.212 14.2932 619.669 14.9793C620.125 15.6654 620.354 16.4631 620.354 17.3726C620.354 17.7236 620.291 18.0666 620.165 18.4017C620.055 18.7367 619.881 19.0399 619.645 19.3111C619.409 19.5824 619.118 19.8057 618.771 19.9812C618.441 20.1408 618.055 20.2206 617.614 20.2206C616.701 20.2206 616.016 19.9653 615.56 19.4547C615.103 18.9442 614.875 18.3219 614.875 17.588C614.875 17.1253 614.938 16.7344 615.064 16.4153C615.19 16.0802 615.355 15.809 615.56 15.6016C615.78 15.3782 616.024 15.2186 616.292 15.1229C616.575 15.0112 616.859 14.9554 617.142 14.9554H617.354V14.9075C617.197 14.6522 616.969 14.4129 616.67 14.1895C616.37 13.9502 616.016 13.7428 615.607 13.5673C615.198 13.3758 614.741 13.2242 614.237 13.1125C613.733 13.0009 613.198 12.945 612.631 12.945C611.797 12.945 611.088 13.0567 610.506 13.2801C609.923 13.5034 609.443 13.7906 609.065 14.1417C608.703 14.4767 608.435 14.8517 608.262 15.2665C608.089 15.6813 608.002 16.0802 608.002 16.4631C608.002 16.9258 608.073 17.3247 608.215 17.6598C608.357 17.9948 608.601 18.3379 608.947 18.6889C609.309 19.0239 609.797 19.3909 610.411 19.7898C611.041 20.1887 611.828 20.6673 612.773 21.2257C613.686 21.7044 614.646 22.215 615.654 22.7574C616.677 23.2999 617.614 23.9301 618.464 24.6481C619.315 25.3501 620.015 26.1639 620.566 27.0893C621.133 27.9987 621.416 29.0677 621.416 30.2962C621.416 31.3333 621.22 32.2827 620.826 33.1442C620.448 34.0058 619.85 34.7477 619.031 35.37C618.228 35.9922 617.197 36.4709 615.938 36.8059C614.694 37.157 613.214 37.3325 611.498 37.3325C610.679 37.3325 609.805 37.2288 608.876 37.0213C607.947 36.8139 607.089 36.4868 606.302 36.0401C605.515 35.5774 604.862 34.9871 604.342 34.2691C603.822 33.5351 603.563 32.6417 603.563 31.5886C603.563 31.1419 603.634 30.7111 603.775 30.2962C603.917 29.8814 604.114 29.5144 604.366 29.1953C604.633 28.8603 604.956 28.597 605.334 28.4056C605.712 28.2141 606.145 28.1184 606.633 28.1184C607.058 28.1184 607.436 28.1981 607.766 28.3577C608.097 28.5013 608.372 28.7007 608.593 28.956C608.829 29.1953 609.01 29.4825 609.136 29.8176C609.262 30.1527 609.333 30.5116 609.349 30.8946C609.349 31.3413 609.27 31.7402 609.112 32.0912C608.955 32.4263 608.75 32.7055 608.498 32.9288C608.247 33.1522 607.955 33.3277 607.625 33.4554C607.31 33.5671 606.995 33.6229 606.68 33.6229C606.617 33.6229 606.546 33.6229 606.467 33.6229C606.404 33.6229 606.342 33.6149 606.279 33.599V33.6468C606.42 33.9659 606.633 34.2771 606.916 34.5802C607.2 34.8834 607.554 35.1546 607.979 35.3939C608.42 35.6332 608.924 35.8327 609.49 35.9922C610.073 36.1358 610.71 36.2076 611.403 36.2076Z" fill="#222122"/>
<path d="M624.014 4.40103V3.41979L628.95 2.89327L632.28 2.00776L632.61 2.70181V16.0802H632.705C634.578 13.304 637.003 11.9159 639.979 11.9159C640.545 11.9159 641.089 11.9638 641.608 12.0595C642.128 12.1552 642.702 12.3706 643.332 12.7057C643.962 13.0407 644.505 13.4795 644.962 14.022C645.418 14.5645 645.804 15.3383 646.119 16.3435C646.434 17.3486 646.591 18.5213 646.591 19.8616V35.4418L649 35.6811V36.6624H638.373V35.6811L640.782 35.4418V19.1675C640.782 15.7691 639.703 14.0699 637.546 14.0699C636.129 14.0699 634.964 14.724 634.051 16.0323C633.154 17.3407 632.705 19.0558 632.705 21.1779V35.4418L635.137 35.6811V36.6624H624.487V35.6811L626.919 35.4418V4.40103H624.014Z" fill="#222122"/>
</g>
<g opacity="0.25">
<path d="M720.243 3.016V16.264H704.844V3.016H697V36.616H704.844V22.84H720.243V36.616H728.087V3.016H720.243Z" fill="#222122"/>
<path d="M747.971 37C756.251 37 762.255 31.48 762.255 23.704C762.255 15.928 756.251 10.408 747.971 10.408C739.69 10.408 733.637 15.928 733.637 23.704C733.637 31.48 739.69 37 747.971 37ZM747.971 30.856C744.194 30.856 741.288 28.168 741.288 23.704C741.288 19.24 744.194 16.552 747.971 16.552C751.748 16.552 754.605 19.24 754.605 23.704C754.605 28.168 751.748 30.856 747.971 30.856Z" fill="#222122"/>
<path d="M779.701 37C787.981 37 793.985 31.48 793.985 23.704C793.985 15.928 787.981 10.408 779.701 10.408C771.42 10.408 765.368 15.928 765.368 23.704C765.368 31.48 771.42 37 779.701 37ZM779.701 30.856C775.924 30.856 773.018 28.168 773.018 23.704C773.018 19.24 775.924 16.552 779.701 16.552C783.478 16.552 786.335 19.24 786.335 23.704C786.335 28.168 783.478 30.856 779.701 30.856Z" fill="#222122"/>
<path d="M799.035 36.616H806.589V1H799.035V36.616Z" fill="#222122"/>
<path d="M824.107 10.408C819.943 10.408 815.73 11.512 812.873 13.528L815.585 18.76C817.473 17.272 820.33 16.36 823.09 16.36C827.158 16.36 829.095 18.232 829.095 21.448H823.09C815.149 21.448 811.904 24.616 811.904 29.176C811.904 33.64 815.536 37 821.637 37C825.463 37 828.175 35.752 829.579 33.4V36.616H836.648V21.88C836.648 14.056 832.048 10.408 824.107 10.408ZM823.526 31.96C820.863 31.96 819.265 30.712 819.265 28.84C819.265 27.112 820.378 25.816 823.913 25.816H829.095V28.456C828.223 30.808 826.044 31.96 823.526 31.96Z" fill="#222122"/>
<path d="M868.907 19.144C871.667 17.704 873.41 15.112 873.41 11.752C873.41 6.52 869.052 3.016 860.578 3.016H844.018V36.616H861.547C870.457 36.616 875.105 33.256 875.105 27.448C875.105 23.224 872.684 20.344 868.907 19.144ZM859.61 8.872C863.435 8.872 865.518 10.168 865.518 12.808C865.518 15.448 863.435 16.792 859.61 16.792H851.814V8.872H859.61ZM860.966 30.76H851.814V22.456H860.966C865.033 22.456 867.212 23.8 867.212 26.632C867.212 29.512 865.033 30.76 860.966 30.76Z" fill="#222122"/>
<path d="M899.203 10.792V23.56C899.203 28.312 896.685 30.52 893.198 30.52C889.857 30.52 887.92 28.6 887.92 24.28V10.792H880.366V25.384C880.366 33.352 884.966 37 891.503 37C894.699 37 897.605 35.8 899.59 33.544V36.616H906.757V10.792H899.203Z" fill="#222122"/>
<path d="M932.446 10.792V23.56C932.446 28.312 929.928 30.52 926.442 30.52C923.1 30.52 921.164 28.6 921.164 24.28V10.792H913.61V25.384C913.61 33.352 918.21 37 924.747 37C927.943 37 930.848 35.8 932.833 33.544V36.616H940V10.792H932.446Z" fill="#222122"/>
</g>
</svg>
