<svg width="24" height="24" viewBox="0 0 24 24" fill="none" xmlns="http://www.w3.org/2000/svg">
<path d="M5.24989 12.0999C5.24989 11.8946 5.32891 11.6977 5.46956 11.5525C5.61022 11.4073 5.80098 11.3257 5.99989 11.3257L16.1924 11.3257L15.2174 10.327C15.0762 10.1813 14.9968 9.98353 14.9968 9.77736C14.9968 9.57119 15.0762 9.37347 15.2174 9.22768C15.3586 9.0819 15.5502 9 15.7499 9C15.9496 9 16.1412 9.0819 16.2824 9.22768L18.5324 11.5503C18.6365 11.6591 18.707 11.7974 18.735 11.9476C18.763 12.0978 18.7473 12.2531 18.6899 12.3941C18.6336 12.5355 18.5381 12.6565 18.4153 12.742C18.2925 12.8274 18.148 12.8734 17.9999 12.8741L5.99989 12.8741C5.80098 12.8741 5.61022 12.7926 5.46956 12.6474C5.32891 12.5022 5.24989 12.3053 5.24989 12.0999Z" fill="#FAFAFA"/>
<path d="M14.9999 14.4222C14.9993 14.3203 15.0182 14.2193 15.0555 14.125C15.0929 14.0307 15.1479 13.9449 15.2174 13.8725L17.4674 11.5499C17.6086 11.4042 17.8001 11.3223 17.9999 11.3223C18.0988 11.3223 18.1967 11.3424 18.288 11.3814C18.3794 11.4205 18.4624 11.4778 18.5324 11.5499C18.6023 11.6221 18.6578 11.7078 18.6956 11.8021C18.7335 11.8965 18.7529 11.9975 18.7529 12.0996C18.7529 12.3058 18.6736 12.5035 18.5324 12.6493L16.2824 14.9719C16.2126 15.0444 16.1297 15.102 16.0383 15.1413C15.9469 15.1807 15.8489 15.2009 15.7499 15.2009C15.6509 15.2009 15.5528 15.1807 15.4614 15.1413C15.37 15.102 15.2871 15.0444 15.2174 14.9719C15.1479 14.8995 15.0929 14.8138 15.0555 14.7194C15.0182 14.6251 14.9993 14.5241 14.9999 14.4222Z" fill="#FAFAFA"/>
</svg>
