<svg width="64" height="64" viewBox="0 0 64 64" fill="none" xmlns="http://www.w3.org/2000/svg">
<g clip-path="url(#clip0_848_52)">
<path fill-rule="evenodd" clip-rule="evenodd" d="M21.9997 41.9997C21.9997 41.1656 21.4817 40.4196 20.7017 40.1276L4.70175 34.1276C4.08775 33.8976 3.39975 33.9816 2.85975 34.3556C2.32176 34.7296 1.99976 35.3436 1.99976 35.9996V55.9998C1.99976 56.8338 2.51776 57.5798 3.29776 57.8718L19.2977 63.8719C19.9117 64.1019 20.5997 64.0179 21.1397 63.6439C21.6777 63.2699 21.9997 62.6559 21.9997 61.9999V41.9997ZM5.99975 54.6138L17.9997 59.1139V43.3857L5.99975 38.8856V54.6138Z" fill="#67C6B3"/>
<path fill-rule="evenodd" clip-rule="evenodd" d="M19.298 40.1276C18.518 40.4196 18 41.1656 18 41.9997V61.9999C18 62.6559 18.322 63.2699 18.86 63.6439C19.4 64.0179 20.088 64.1019 20.702 63.8719L36.702 57.8718C37.482 57.5798 38 56.8338 38 55.9998V35.9996C38 35.3436 37.678 34.7296 37.14 34.3556C36.6 33.9816 35.912 33.8976 35.298 34.1276L19.298 40.1276ZM22 43.3857V59.1139L34 54.6138V38.8856L22 43.3857Z" fill="#67C6B3"/>
<path fill-rule="evenodd" clip-rule="evenodd" d="M3.29831 34.1276C2.51831 34.4196 2.0003 35.1656 2.0003 35.9996C2.0003 36.8336 2.51831 37.5796 3.29831 37.8716L19.2983 43.8717C19.7503 44.0417 20.2503 44.0417 20.7023 43.8717L36.7022 37.8716C37.4822 37.5796 38.0002 36.8336 38.0002 35.9996C38.0002 35.1656 37.4822 34.4196 36.7022 34.1276L20.7023 28.1275C20.2503 27.9575 19.7503 27.9575 19.2983 28.1275L3.29831 34.1276ZM9.69629 35.9996L20.0003 39.8636L30.3043 35.9996L20.0003 32.1355L9.69629 35.9996Z" fill="#67C6B3"/>
<path fill-rule="evenodd" clip-rule="evenodd" d="M42.1544 10.0013C45.3944 10.084 47.9997 12.74 47.9997 16.0001C47.9997 17.1041 47.1037 18.0001 45.9997 18.0001C44.9304 18.0001 44.0557 17.1588 44.0024 16.1027L43.9971 15.8974C43.9437 14.8414 43.0691 14 41.9997 14C40.8957 14 39.9997 14.8961 39.9997 16.0001C39.9997 17.1041 40.8957 18.0001 41.9997 18.0001C43.1037 18.0001 43.9997 18.8961 43.9997 20.0001C43.9997 21.1041 43.1037 22.0001 41.9997 22.0001C38.6878 22.0001 35.9998 19.3121 35.9998 16.0001C35.9998 12.688 38.6878 10 41.9997 10L42.1544 10.0013Z" fill="#67C6B3"/>
<path fill-rule="evenodd" clip-rule="evenodd" d="M41.9998 21.9999C43.1038 21.9999 43.9998 22.8959 43.9998 23.9999C43.9998 25.1039 43.1038 26 41.9998 26C40.8958 26 39.9998 25.1039 39.9998 23.9999C39.9998 22.8959 39.1038 21.9999 37.9998 21.9999C36.8958 21.9999 35.9998 22.8959 35.9998 23.9999C35.9998 27.312 38.6878 30 41.9998 30C45.3118 30 47.9998 27.312 47.9998 23.9999C47.9998 20.6879 45.3118 17.9999 41.9998 17.9999C40.8958 17.9999 39.9998 18.8959 39.9998 19.9999C39.9998 21.1039 40.8958 21.9999 41.9998 21.9999Z" fill="#67C6B3"/>
<path fill-rule="evenodd" clip-rule="evenodd" d="M40 9.00003V12.0001C40 13.1041 40.896 14.0001 42 14.0001C43.104 14.0001 44 13.1041 44 12.0001V9.00003C44 7.89601 43.104 7 42 7C40.896 7 40 7.89601 40 9.00003Z" fill="#67C6B3"/>
<path fill-rule="evenodd" clip-rule="evenodd" d="M40 28V31.0001C40 32.1041 40.896 33.0001 42 33.0001C43.104 33.0001 44 32.1041 44 31.0001V28C44 26.896 43.104 26 42 26C40.896 26 40 26.896 40 28Z" fill="#67C6B3"/>
<path fill-rule="evenodd" clip-rule="evenodd" d="M32.7915 36.9345L30.0095 35.8904C29.8095 35.8144 29.6215 35.7085 29.4555 35.5745C24.9095 31.9064 21.9995 26.2903 21.9995 20.0003C21.9995 8.96211 30.9615 0 41.9995 0C53.0375 0 61.9994 8.96211 61.9994 20.0003C61.9994 31.0384 53.0375 40.0005 41.9995 40.0005C39.6615 40.0005 37.4175 39.5985 35.3315 38.8605C35.0855 38.7725 34.8635 38.6405 34.6755 38.4725C33.8895 38.4485 33.1595 37.9585 32.8655 37.1765C32.8355 37.0965 32.8115 37.0145 32.7915 36.9345ZM37.9295 35.4764C39.2295 35.8184 40.5935 36.0005 41.9995 36.0005C50.8295 36.0005 57.9994 28.8304 57.9994 20.0003C57.9994 11.1701 50.8295 4.00005 41.9995 4.00005C33.1695 4.00005 25.9995 11.1701 25.9995 20.0003C25.9995 24.9223 28.2275 29.3284 31.7275 32.2624L36.7015 34.1284L36.7735 34.1564L36.8455 34.1884L36.8715 34.2024L36.9295 34.2304L36.9595 34.2464L36.9815 34.2584L37.0055 34.2724L37.0355 34.2904L37.0815 34.3204L37.1115 34.3384L37.1255 34.3484L37.1395 34.3564L37.2355 34.4284C37.2715 34.4564 37.3075 34.4864 37.3395 34.5164L37.3495 34.5244L37.3715 34.5464L37.4175 34.5904L37.4395 34.6124L37.4555 34.6284L37.4735 34.6484L37.5015 34.6784L37.5335 34.7204L37.5535 34.7424L37.5635 34.7544L37.5775 34.7704L37.6455 34.8644C37.6715 34.9024 37.6955 34.9404 37.7195 34.9784L37.7235 34.9864L37.7375 35.0124L37.7715 35.0724L37.7835 35.0984L37.7955 35.1184L37.8055 35.1444L37.8235 35.1804L37.8435 35.2264L37.8555 35.2564L37.8615 35.2724L37.8695 35.2904L37.8975 35.3744L37.9055 35.3964L37.9075 35.4045L37.9295 35.4764Z" fill="#67C6B3"/>
</g>
<defs>
<clipPath id="clip0_848_52">
<rect width="64" height="64" fill="white"/>
</clipPath>
</defs>
</svg>
