<svg width="168" height="40" viewBox="0 0 168 40" fill="none" xmlns="http://www.w3.org/2000/svg">
<path d="M28.9007 9.09967C28.5051 9.09967 28.1184 9.21697 27.7895 9.43674C27.4606 9.6565 27.2043 9.96886 27.0529 10.3343C26.9015 10.6998 26.8619 11.1019 26.9391 11.4899C27.0163 11.8778 27.2067 12.2342 27.4864 12.5139C27.7661 12.7936 28.1225 12.9841 28.5105 13.0612C28.8984 13.1384 29.3006 13.0988 29.666 12.9474C30.0315 12.7961 30.3438 12.5397 30.5636 12.2108C30.7834 11.8819 30.9007 11.4952 30.9007 11.0997C30.9007 10.5692 30.6899 10.0605 30.3149 9.68546C29.9398 9.31039 29.4311 9.09967 28.9007 9.09967V9.09967ZM36.5673 13.133C36.5349 11.7502 36.2759 10.382 35.8007 9.08301C35.3769 7.97156 34.7173 6.96514 33.8673 6.13301C33.042 5.27872 32.0333 4.6233 30.9173 4.21634C29.6217 3.72661 28.2521 3.46169 26.8673 3.43301C25.1007 3.33301 24.534 3.33301 20.0007 3.33301C15.4673 3.33301 14.9007 3.33301 13.134 3.43301C11.7492 3.46169 10.3796 3.72661 9.08398 4.21634C7.97011 4.62742 6.96221 5.28228 6.13398 6.13301C5.27969 6.9583 4.62428 7.96707 4.21732 9.08301C3.72759 10.3786 3.46267 11.7483 3.43398 13.133C3.33398 14.8997 3.33398 15.4663 3.33398 19.9997C3.33398 24.533 3.33398 25.0997 3.43398 26.8663C3.46267 28.2511 3.72759 29.6208 4.21732 30.9163C4.62428 32.0323 5.27969 33.041 6.13398 33.8663C6.96221 34.7171 7.97011 35.3719 9.08398 35.783C10.3796 36.2727 11.7492 36.5377 13.134 36.5663C14.9007 36.6663 15.4673 36.6663 20.0007 36.6663C24.534 36.6663 25.1007 36.6663 26.8673 36.5663C28.2521 36.5377 29.6217 36.2727 30.9173 35.783C32.0333 35.376 33.042 34.7206 33.8673 33.8663C34.7211 33.0373 35.3812 32.03 35.8007 30.9163C36.2759 29.6173 36.5349 28.2492 36.5673 26.8663C36.5673 25.0997 36.6673 24.533 36.6673 19.9997C36.6673 15.4663 36.6673 14.8997 36.5673 13.133V13.133ZM33.5673 26.6663C33.5552 27.7243 33.3636 28.7725 33.0007 29.7663C32.7345 30.4917 32.3071 31.147 31.7507 31.683C31.2101 32.2339 30.556 32.6604 29.834 32.933C28.8402 33.2959 27.7919 33.4875 26.734 33.4997C25.0673 33.583 24.4507 33.5997 20.0673 33.5997C15.684 33.5997 15.0673 33.5997 13.4007 33.4997C12.3021 33.5202 11.2083 33.3511 10.1673 32.9997C9.47695 32.7131 8.85291 32.2877 8.33398 31.7497C7.7808 31.2143 7.35872 30.5583 7.10065 29.833C6.69375 28.8249 6.46806 27.7529 6.43398 26.6663C6.43398 24.9997 6.33398 24.383 6.33398 19.9997C6.33398 15.6163 6.33398 14.9997 6.43398 13.333C6.44146 12.2514 6.6389 11.1796 7.01732 10.1663C7.31073 9.46286 7.76109 8.83577 8.33398 8.33301C8.84034 7.75996 9.46613 7.30483 10.1673 6.99967C11.1832 6.63308 12.254 6.44147 13.334 6.43301C15.0007 6.43301 15.6173 6.33301 20.0007 6.33301C24.384 6.33301 25.0007 6.33301 26.6673 6.43301C27.7253 6.44514 28.7735 6.63675 29.7673 6.99967C30.5247 7.28076 31.2045 7.73775 31.7507 8.33301C32.2968 8.84497 32.7236 9.4709 33.0007 10.1663C33.3711 11.1812 33.5628 12.2526 33.5673 13.333C33.6507 14.9997 33.6673 15.6163 33.6673 19.9997C33.6673 24.383 33.6507 24.9997 33.5673 26.6663ZM20.0007 11.4497C18.3103 11.453 16.6589 11.9572 15.2551 12.8987C13.8512 13.8402 12.7579 15.1767 12.1134 16.7393C11.4688 18.3019 11.3019 20.0205 11.6336 21.6779C11.9654 23.3353 12.781 24.8572 13.9774 26.0513C15.1738 27.2454 16.6973 28.058 18.3554 28.3866C20.0135 28.7151 21.7318 28.5449 23.2931 27.8972C24.8544 27.2496 26.1888 26.1537 27.1275 24.7481C28.0663 23.3424 28.5673 21.69 28.5673 19.9997C28.5695 18.8748 28.3493 17.7607 27.9194 16.7213C27.4894 15.6819 26.8582 14.7377 26.0621 13.9431C25.266 13.1485 24.3206 12.5191 23.2803 12.0912C22.2401 11.6633 21.1255 11.4453 20.0007 11.4497V11.4497ZM20.0007 25.5497C18.903 25.5497 17.8299 25.2242 16.9172 24.6143C16.0045 24.0045 15.2932 23.1377 14.8731 22.1236C14.4531 21.1094 14.3431 19.9935 14.5573 18.9169C14.7714 17.8403 15.3 16.8514 16.0762 16.0752C16.8524 15.2991 17.8413 14.7705 18.9179 14.5563C19.9945 14.3422 21.1104 14.4521 22.1245 14.8721C23.1387 15.2922 24.0055 16.0036 24.6153 16.9163C25.2252 17.829 25.5507 18.902 25.5507 19.9997C25.5507 20.7285 25.4071 21.4502 25.1282 22.1236C24.8493 22.7969 24.4405 23.4088 23.9251 23.9241C23.4097 24.4395 22.7979 24.8483 22.1245 25.1272C21.4512 25.4061 20.7295 25.5497 20.0007 25.5497V25.5497Z" fill="#67C6B3"/>
<path d="M78.184 33.3332H78.0506C75.3646 33.3097 72.7173 32.6892 70.3006 31.5165C69.8561 31.3077 69.4901 30.9621 69.2561 30.5302C69.0222 30.0984 68.9327 29.603 69.0006 29.1165C69.0745 28.6268 69.3013 28.173 69.6485 27.8198C69.9957 27.4666 70.4456 27.2321 70.934 27.1499C72.4317 26.9501 73.8725 26.4452 75.1673 25.6665C72.9192 23.9089 71.1886 21.5758 70.1587 18.9145C69.1288 16.2533 68.8381 13.3629 69.3173 10.5499C69.3823 10.1043 69.5739 9.68676 69.8694 9.34697C70.1649 9.00718 70.5517 8.75943 70.984 8.6332C71.4045 8.50114 71.8546 8.49549 72.2783 8.61697C72.702 8.73846 73.0806 8.98171 73.3673 9.31654C74.3406 10.5928 75.5638 11.6575 76.9621 12.4455C78.3605 13.2335 79.9047 13.7283 81.5006 13.8999C81.5769 11.9363 82.4207 10.0811 83.8506 8.7332C84.5646 8.04949 85.4076 7.51472 86.3303 7.16005C87.2531 6.80538 88.2372 6.6379 89.2253 6.66737C90.2134 6.69685 91.1858 6.92268 92.0858 7.33172C92.9858 7.74076 93.7953 8.32482 94.4673 9.04987C94.6424 9.20465 94.8599 9.30329 95.0917 9.33301C95.3235 9.36272 95.5588 9.32215 95.7673 9.21654C96.1647 9.02912 96.6072 8.95856 97.0432 9.01311C97.4791 9.06766 97.8906 9.24506 98.2295 9.52461C98.5685 9.80417 98.821 10.1743 98.9575 10.592C99.094 11.0096 99.109 11.4574 99.0006 11.8832C98.6162 13.4667 97.8879 14.9462 96.8673 16.2165C96.6424 20.9578 94.5521 25.4178 91.0522 28.6242C87.5523 31.8306 82.9267 33.5233 78.184 33.3332V33.3332ZM78.184 29.9999H78.3173C80.2551 30.0665 82.1868 29.7478 84.0005 29.0623C85.8142 28.3768 87.4738 27.3381 88.883 26.0063C90.2923 24.6746 91.4231 23.0764 92.2101 21.3044C92.997 19.5323 93.4243 17.6217 93.4673 15.6832C93.4948 15.152 93.7139 14.6487 94.084 14.2665C94.4905 13.7519 94.8372 13.1928 95.1173 12.5999C94.5169 12.601 93.923 12.4754 93.3744 12.2313C92.8259 11.9872 92.335 11.63 91.934 11.1832C91.5483 10.8008 91.0902 10.4992 90.5865 10.296C90.0829 10.0928 89.5437 9.99212 89.0006 9.99987C88.4521 9.98569 87.9062 10.08 87.3943 10.2773C86.8823 10.4747 86.4144 10.7712 86.0173 11.1499C85.4816 11.6582 85.0888 12.2983 84.8782 13.0061C84.6676 13.714 84.6466 14.4647 84.8173 15.1832L85.2506 17.0832L83.3006 17.2165C81.3025 17.3795 79.2927 17.1061 77.4107 16.4155C75.5286 15.7248 73.8191 14.6333 72.4006 13.2165C72.3398 15.4105 72.8886 17.5784 73.9861 19.4792C75.0836 21.3799 76.6868 22.939 78.6173 23.9832L80.2006 24.8832L79.1506 26.3832C78.0151 27.8724 76.4593 28.987 74.684 29.5832C75.8228 29.8686 76.9933 30.0087 78.1673 29.9999H78.184Z" fill="#67C6B3"/>
<path d="M162.834 3.33301H133.167C132.681 3.33301 132.215 3.52616 131.871 3.86998C131.527 4.2138 131.334 4.68011 131.334 5.16634V34.833C131.334 35.0738 131.381 35.3122 131.474 35.5346C131.566 35.757 131.701 35.9591 131.871 36.1294C132.041 36.2996 132.243 36.4347 132.466 36.5268C132.688 36.6189 132.927 36.6663 133.167 36.6663H149.134V23.7497H144.801V18.7497H149.134V14.9997C149.044 14.1193 149.148 13.2299 149.439 12.3939C149.729 11.5579 150.199 10.7956 150.815 10.1604C151.431 9.52514 152.179 9.03241 153.005 8.71674C153.832 8.40107 154.718 8.27009 155.601 8.33301C156.898 8.32503 158.194 8.3918 159.484 8.53301V13.033H156.834C154.734 13.033 154.334 14.033 154.334 15.483V18.6997H159.334L158.684 23.6997H154.334V36.6663H162.834C163.075 36.6663 163.313 36.6189 163.536 36.5268C163.758 36.4347 163.96 36.2996 164.13 36.1294C164.301 35.9591 164.436 35.757 164.528 35.5346C164.62 35.3122 164.667 35.0738 164.667 34.833V5.16634C164.667 4.92558 164.62 4.68719 164.528 4.46476C164.436 4.24232 164.301 4.04022 164.13 3.86998C163.96 3.69974 163.758 3.5647 163.536 3.47256C163.313 3.38043 163.075 3.33301 162.834 3.33301V3.33301Z" fill="#67C6B3"/>
</svg>
