<svg width="80" height="48" viewBox="0 0 80 48" fill="none" xmlns="http://www.w3.org/2000/svg">
<rect width="80" height="48" fill="#FAFAFA"/>
<path d="M53.4992 24.1999C53.4992 23.7892 53.3412 23.3954 53.0599 23.105C52.7786 22.8146 52.3971 22.6515 51.9992 22.6515L31.6142 22.6515L33.5642 20.6541C33.8467 20.3625 34.0054 19.9671 34.0054 19.5547C34.0054 19.1424 33.8467 18.7469 33.5642 18.4554C33.2818 18.1638 32.8987 18 32.4992 18C32.0998 18 31.7167 18.1638 31.4342 18.4554L26.9342 23.1005C26.7261 23.3183 26.5851 23.5948 26.529 23.8951C26.473 24.1955 26.5044 24.5063 26.6192 24.7883C26.7318 25.071 26.9229 25.3131 27.1684 25.4839C27.414 25.6548 27.7031 25.7467 27.9992 25.7483L51.9992 25.7483C52.3971 25.7483 52.7786 25.5851 53.0599 25.2948C53.3412 25.0044 53.4992 24.6105 53.4992 24.1999Z" fill="#E4E0DA"/>
<path d="M34.0003 28.8454C34.0014 28.6416 33.9636 28.4396 33.8889 28.2509C33.8143 28.0623 33.7043 27.8907 33.5653 27.746L29.0653 23.1009C28.7828 22.8093 28.3997 22.6455 28.0003 22.6455C27.8025 22.6455 27.6066 22.6857 27.4239 22.7639C27.2412 22.842 27.0751 22.9565 26.9353 23.1009C26.7954 23.2452 26.6845 23.4166 26.6088 23.6053C26.5331 23.7939 26.4941 23.9961 26.4941 24.2002C26.4941 24.6126 26.6528 25.008 26.9353 25.2996L31.4353 29.9447C31.5747 30.0899 31.7406 30.2051 31.9234 30.2837C32.1062 30.3623 32.3023 30.4028 32.5003 30.4028C32.6983 30.4028 32.8944 30.3623 33.0771 30.2837C33.2599 30.2051 33.4258 30.0899 33.5653 29.9447C33.7043 29.8001 33.8143 29.6285 33.8889 29.4398C33.9636 29.2512 34.0014 29.0492 34.0003 28.8454Z" fill="#E4E0DA"/>
</svg>
