<svg width="64" height="64" viewBox="0 0 64 64" fill="none" xmlns="http://www.w3.org/2000/svg">
<path d="M17.3335 50.667H7.3335C6.2295 50.667 5.3335 49.771 5.3335 48.667C5.3335 47.563 6.2295 46.667 7.3335 46.667H17.3335C18.4375 46.667 19.3335 47.563 19.3335 48.667C19.3335 49.771 18.4375 50.667 17.3335 50.667ZM37.3335 50.667H28.0002C26.8962 50.667 26.0002 49.771 26.0002 48.667C26.0002 47.563 26.8962 46.667 28.0002 46.667H35.7175L40.8615 22.667H12.6668C11.5628 22.667 10.6668 21.771 10.6668 20.667C10.6668 19.563 11.5628 18.667 12.6668 18.667H43.3335C43.9388 18.667 44.5095 18.9417 44.8882 19.4083C45.2695 19.8803 45.4162 20.4937 45.2882 21.0857L39.2882 49.0857C39.0908 50.0083 38.2775 50.667 37.3335 50.667V50.667Z" fill="#67C6B3"/>
<path d="M60.0001 50.667H57.3334C56.2294 50.667 55.3334 49.771 55.3334 48.667C55.3334 47.563 56.2294 46.667 57.3334 46.667H58.3841L59.9974 39.1337C59.8908 34.4457 56.0454 30.667 51.3334 30.667H43.2348L39.8054 46.667H46.6668C47.7708 46.667 48.6668 47.563 48.6668 48.667C48.6668 49.771 47.7708 50.667 46.6668 50.667H37.3334C36.7281 50.667 36.1574 50.3923 35.7788 49.9257C35.3974 49.4537 35.2508 48.8403 35.3788 48.2483L39.6641 28.2483C39.8614 27.3257 40.6748 26.667 41.6188 26.667H51.3334C58.3174 26.667 64.0001 32.3497 64.0001 39.3337C64.0001 39.475 63.9868 39.6137 63.9548 39.7523L61.9548 49.0857C61.7574 50.0083 60.9441 50.667 60.0001 50.667Z" fill="#67C6B3"/>
<path d="M52 56C48.3253 56 45.3333 53.0107 45.3333 49.3333C45.3333 45.656 48.3253 42.6667 52 42.6667C55.6747 42.6667 58.6667 45.656 58.6667 49.3333C58.6667 53.0107 55.6747 56 52 56ZM52 46.6667C50.5307 46.6667 49.3333 47.8613 49.3333 49.3333C49.3333 50.8053 50.5307 52 52 52C53.4693 52 54.6667 50.8053 54.6667 49.3333C54.6667 47.8613 53.4693 46.6667 52 46.6667ZM22.6667 56C18.992 56 16 53.0107 16 49.3333C16 45.656 18.992 42.6667 22.6667 42.6667C26.3413 42.6667 29.3333 45.656 29.3333 49.3333C29.3333 53.0107 26.3413 56 22.6667 56ZM22.6667 46.6667C21.1973 46.6667 20 47.8613 20 49.3333C20 50.8053 21.1973 52 22.6667 52C24.136 52 25.3333 50.8053 25.3333 49.3333C25.3333 47.8613 24.136 46.6667 22.6667 46.6667ZM16.6667 28H7.33333C6.22933 28 5.33333 27.104 5.33333 26C5.33333 24.896 6.22933 24 7.33333 24H16.6667C17.7707 24 18.6667 24.896 18.6667 26C18.6667 27.104 17.7707 28 16.6667 28ZM16.6667 36H4.66667C3.56267 36 2.66667 35.104 2.66667 34C2.66667 32.896 3.56267 32 4.66667 32H16.6667C17.7707 32 18.6667 32.896 18.6667 34C18.6667 35.104 17.7707 36 16.6667 36ZM16.6667 44H2C0.896 44 0 43.104 0 42C0 40.896 0.896 40 2 40H16.6667C17.7707 40 18.6667 40.896 18.6667 42C18.6667 43.104 17.7707 44 16.6667 44Z" fill="#67C6B3"/>
</svg>
