<svg width="168" height="40" viewBox="0 0 168 40" fill="none" xmlns="http://www.w3.org/2000/svg">
<path d="M28.9007 9.10065C28.5051 9.10065 28.1184 9.21795 27.7895 9.43771C27.4606 9.65748 27.2043 9.96983 27.0529 10.3353C26.9015 10.7007 26.8619 11.1029 26.9391 11.4908C27.0163 11.8788 27.2067 12.2352 27.4864 12.5149C27.7661 12.7946 28.1225 12.9851 28.5105 13.0622C28.8984 13.1394 29.3006 13.0998 29.666 12.9484C30.0315 12.797 30.3438 12.5407 30.5636 12.2118C30.7834 11.8829 30.9007 11.4962 30.9007 11.1007C30.9007 10.5702 30.6899 10.0615 30.3149 9.68644C29.9398 9.31137 29.4311 9.10065 28.9007 9.10065V9.10065ZM36.5673 13.134C36.5349 11.7511 36.2759 10.383 35.8007 9.08398C35.3769 7.97254 34.7173 6.96612 33.8673 6.13398C33.042 5.27969 32.0333 4.62428 30.9173 4.21732C29.6217 3.72759 28.2521 3.46267 26.8673 3.43398C25.1007 3.33398 24.534 3.33398 20.0007 3.33398C15.4673 3.33398 14.9007 3.33398 13.134 3.43398C11.7492 3.46267 10.3796 3.72759 9.08398 4.21732C7.97011 4.6284 6.96221 5.28325 6.13398 6.13398C5.27969 6.95928 4.62428 7.96805 4.21732 9.08398C3.72759 10.3796 3.46267 11.7492 3.43398 13.134C3.33398 14.9007 3.33398 15.4673 3.33398 20.0007C3.33398 24.534 3.33398 25.1007 3.43398 26.8673C3.46267 28.2521 3.72759 29.6217 4.21732 30.9173C4.62428 32.0333 5.27969 33.042 6.13398 33.8673C6.96221 34.7181 7.97011 35.3729 9.08398 35.784C10.3796 36.2737 11.7492 36.5386 13.134 36.5673C14.9007 36.6673 15.4673 36.6673 20.0007 36.6673C24.534 36.6673 25.1007 36.6673 26.8673 36.5673C28.2521 36.5386 29.6217 36.2737 30.9173 35.784C32.0333 35.377 33.042 34.7216 33.8673 33.8673C34.7211 33.0383 35.3812 32.031 35.8007 30.9173C36.2759 29.6183 36.5349 28.2502 36.5673 26.8673C36.5673 25.1007 36.6673 24.534 36.6673 20.0007C36.6673 15.4673 36.6673 14.9007 36.5673 13.134V13.134ZM33.5673 26.6673C33.5552 27.7253 33.3636 28.7735 33.0007 29.7673C32.7345 30.4926 32.3071 31.148 31.7507 31.684C31.2101 32.2348 30.556 32.6614 29.834 32.934C28.8402 33.2969 27.7919 33.4885 26.734 33.5007C25.0673 33.584 24.4507 33.6007 20.0673 33.6007C15.684 33.6007 15.0673 33.6007 13.4007 33.5007C12.3021 33.5212 11.2083 33.3521 10.1673 33.0007C9.47695 32.7141 8.85291 32.2886 8.33398 31.7507C7.7808 31.2152 7.35872 30.5593 7.10065 29.834C6.69375 28.8259 6.46806 27.7539 6.43398 26.6673C6.43398 25.0007 6.33398 24.384 6.33398 20.0007C6.33398 15.6173 6.33398 15.0007 6.43398 13.334C6.44146 12.2524 6.6389 11.1806 7.01732 10.1673C7.31073 9.46384 7.76109 8.83675 8.33398 8.33398C8.84034 7.76093 9.46613 7.30581 10.1673 7.00065C11.1832 6.63406 12.254 6.44245 13.334 6.43398C15.0007 6.43398 15.6173 6.33398 20.0007 6.33398C24.384 6.33398 25.0007 6.33398 26.6673 6.43398C27.7253 6.44612 28.7735 6.63773 29.7673 7.00065C30.5247 7.28174 31.2045 7.73873 31.7507 8.33398C32.2968 8.84595 32.7236 9.47187 33.0007 10.1673C33.3711 11.1822 33.5628 12.2536 33.5673 13.334C33.6507 15.0007 33.6673 15.6173 33.6673 20.0007C33.6673 24.384 33.6507 25.0007 33.5673 26.6673ZM20.0007 11.4507C18.3103 11.4539 16.6589 11.9582 15.2551 12.8997C13.8512 13.8412 12.7579 15.1776 12.1134 16.7402C11.4688 18.3028 11.3019 20.0214 11.6336 21.6789C11.9654 23.3363 12.781 24.8582 13.9774 26.0523C15.1738 27.2464 16.6973 28.059 18.3554 28.3876C20.0135 28.7161 21.7318 28.5458 23.2931 27.8982C24.8544 27.2506 26.1888 26.1547 27.1275 24.749C28.0663 23.3434 28.5673 21.691 28.5673 20.0007C28.5695 18.8758 28.3493 17.7617 27.9194 16.7222C27.4894 15.6828 26.8582 14.7387 26.0621 13.9441C25.266 13.1495 24.3206 12.5201 23.2803 12.0922C22.2401 11.6643 21.1255 11.4463 20.0007 11.4507V11.4507ZM20.0007 25.5507C18.903 25.5507 17.8299 25.2252 16.9172 24.6153C16.0045 24.0055 15.2932 23.1387 14.8731 22.1245C14.4531 21.1104 14.3431 19.9945 14.5573 18.9179C14.7714 17.8413 15.3 16.8524 16.0762 16.0762C16.8524 15.3 17.8413 14.7714 18.9179 14.5573C19.9945 14.3431 21.1104 14.4531 22.1245 14.8731C23.1387 15.2932 24.0055 16.0045 24.6153 16.9172C25.2252 17.8299 25.5507 18.903 25.5507 20.0007C25.5507 20.7295 25.4071 21.4512 25.1282 22.1245C24.8493 22.7979 24.4405 23.4097 23.9251 23.9251C23.4097 24.4405 22.7979 24.8493 22.1245 25.1282C21.4512 25.4071 20.7295 25.5507 20.0007 25.5507V25.5507Z" fill="#67C6B3"/>
<path d="M78.184 33.3332H78.0506C75.3646 33.3097 72.7173 32.6892 70.3006 31.5165C69.8561 31.3077 69.4901 30.9621 69.2561 30.5302C69.0222 30.0984 68.9327 29.603 69.0006 29.1165C69.0745 28.6268 69.3013 28.173 69.6485 27.8198C69.9957 27.4666 70.4456 27.2321 70.934 27.1499C72.4317 26.9501 73.8725 26.4452 75.1673 25.6665C72.9192 23.9089 71.1886 21.5758 70.1587 18.9145C69.1288 16.2533 68.8381 13.3629 69.3173 10.5499C69.3823 10.1043 69.5739 9.68676 69.8694 9.34697C70.1649 9.00718 70.5517 8.75943 70.984 8.6332C71.4045 8.50114 71.8546 8.49549 72.2783 8.61697C72.702 8.73846 73.0806 8.98171 73.3673 9.31654C74.3406 10.5928 75.5638 11.6575 76.9621 12.4455C78.3605 13.2335 79.9047 13.7283 81.5006 13.8999C81.5769 11.9363 82.4207 10.0811 83.8506 8.7332C84.5646 8.04949 85.4076 7.51472 86.3303 7.16005C87.2531 6.80538 88.2372 6.6379 89.2253 6.66737C90.2134 6.69685 91.1858 6.92268 92.0858 7.33172C92.9858 7.74076 93.7953 8.32482 94.4673 9.04987C94.6424 9.20465 94.8599 9.30329 95.0917 9.33301C95.3235 9.36272 95.5588 9.32215 95.7673 9.21654C96.1647 9.02912 96.6072 8.95856 97.0432 9.01311C97.4791 9.06766 97.8906 9.24506 98.2295 9.52461C98.5685 9.80417 98.821 10.1743 98.9575 10.592C99.094 11.0096 99.109 11.4574 99.0006 11.8832C98.6162 13.4667 97.8879 14.9462 96.8673 16.2165C96.6424 20.9578 94.5521 25.4178 91.0522 28.6242C87.5523 31.8306 82.9267 33.5233 78.184 33.3332V33.3332ZM78.184 29.9999H78.3173C80.2551 30.0665 82.1868 29.7478 84.0005 29.0623C85.8142 28.3768 87.4738 27.3381 88.883 26.0063C90.2923 24.6746 91.4231 23.0764 92.2101 21.3044C92.997 19.5323 93.4243 17.6217 93.4673 15.6832C93.4948 15.152 93.7139 14.6487 94.084 14.2665C94.4905 13.7519 94.8372 13.1928 95.1173 12.5999C94.5169 12.601 93.923 12.4754 93.3744 12.2313C92.8259 11.9872 92.335 11.63 91.934 11.1832C91.5483 10.8008 91.0902 10.4992 90.5865 10.296C90.0829 10.0928 89.5437 9.99212 89.0006 9.99987C88.4521 9.98569 87.9062 10.08 87.3943 10.2773C86.8823 10.4747 86.4144 10.7712 86.0173 11.1499C85.4816 11.6582 85.0888 12.2983 84.8782 13.0061C84.6676 13.714 84.6466 14.4647 84.8173 15.1832L85.2506 17.0832L83.3006 17.2165C81.3025 17.3795 79.2927 17.1061 77.4107 16.4155C75.5286 15.7248 73.8191 14.6333 72.4006 13.2165C72.3398 15.4105 72.8886 17.5784 73.9861 19.4792C75.0836 21.3799 76.6868 22.939 78.6173 23.9832L80.2006 24.8832L79.1506 26.3832C78.0151 27.8724 76.4593 28.987 74.684 29.5832C75.8228 29.8686 76.9933 30.0087 78.1673 29.9999H78.184Z" fill="#67C6B3"/>
<path d="M162.834 3.33398H133.167C132.681 3.33398 132.215 3.52714 131.871 3.87096C131.527 4.21477 131.334 4.68109 131.334 5.16732V34.834C131.334 35.0747 131.381 35.3131 131.474 35.5356C131.566 35.758 131.701 35.9601 131.871 36.1303C132.041 36.3006 132.243 36.4356 132.466 36.5278C132.688 36.6199 132.927 36.6673 133.167 36.6673H149.134V23.7507H144.801V18.7507H149.134V15.0007C149.044 14.1202 149.148 13.2309 149.439 12.3949C149.729 11.5589 150.199 10.7966 150.815 10.1613C151.431 9.52611 152.179 9.03339 153.005 8.71771C153.832 8.40204 154.718 8.27107 155.601 8.33398C156.898 8.326 158.194 8.39278 159.484 8.53398V13.034H156.834C154.734 13.034 154.334 14.034 154.334 15.484V18.7007H159.334L158.684 23.7007H154.334V36.6673H162.834C163.075 36.6673 163.313 36.6199 163.536 36.5278C163.758 36.4356 163.96 36.3006 164.13 36.1303C164.301 35.9601 164.436 35.758 164.528 35.5356C164.62 35.3131 164.667 35.0747 164.667 34.834V5.16732C164.667 4.92656 164.62 4.68816 164.528 4.46573C164.436 4.2433 164.301 4.0412 164.13 3.87096C163.96 3.70071 163.758 3.56567 163.536 3.47354C163.313 3.38141 163.075 3.33398 162.834 3.33398V3.33398Z" fill="#67C6B3"/>
</svg>
