<svg width="96" height="32" viewBox="0 0 96 32" fill="none" xmlns="http://www.w3.org/2000/svg">
<path d="M27.6133 25.72L23.08 21.2C24.5427 19.3366 25.3363 17.0355 25.3333 14.6667C25.3333 12.557 24.7077 10.4947 23.5357 8.74059C22.3636 6.98646 20.6977 5.61929 18.7486 4.81196C16.7995 4.00462 14.6548 3.79339 12.5857 4.20496C10.5166 4.61654 8.61596 5.63244 7.1242 7.1242C5.63244 8.61596 4.61654 10.5166 4.20496 12.5857C3.79339 14.6548 4.00462 16.7995 4.81196 18.7486C5.61929 20.6977 6.98646 22.3636 8.74059 23.5357C10.4947 24.7077 12.557 25.3333 14.6667 25.3333C17.0355 25.3363 19.3366 24.5427 21.2 23.08L25.72 27.6133C25.844 27.7383 25.9914 27.8375 26.1539 27.9052C26.3164 27.9729 26.4907 28.0077 26.6667 28.0077C26.8427 28.0077 27.017 27.9729 27.1794 27.9052C27.3419 27.8375 27.4894 27.7383 27.6133 27.6133C27.7383 27.4894 27.8375 27.3419 27.9052 27.1794C27.9729 27.017 28.0077 26.8427 28.0077 26.6667C28.0077 26.4907 27.9729 26.3164 27.9052 26.1539C27.8375 25.9914 27.7383 25.844 27.6133 25.72V25.72ZM6.66667 14.6667C6.66667 13.0844 7.13586 11.5377 8.01491 10.2221C8.89397 8.90652 10.1434 7.88114 11.6052 7.27564C13.067 6.67013 14.6755 6.51171 16.2274 6.82039C17.7792 7.12907 19.2047 7.891 20.3235 9.00982C21.4423 10.1286 22.2043 11.5541 22.513 13.1059C22.8216 14.6578 22.6632 16.2663 22.0577 17.7281C21.4522 19.1899 20.4268 20.4394 19.1112 21.3184C17.7956 22.1975 16.2489 22.6667 14.6667 22.6667C12.5449 22.6667 10.5101 21.8238 9.00982 20.3235C7.50953 18.8232 6.66667 16.7884 6.66667 14.6667Z" fill="#222122"/>
<path d="M89.333 9.33268H85.333V7.99935C85.333 6.58486 84.7711 5.22831 83.7709 4.22811C82.7707 3.22792 81.4142 2.66602 79.9997 2.66602C78.5852 2.66602 77.2286 3.22792 76.2284 4.22811C75.2282 5.22831 74.6663 6.58486 74.6663 7.99935V9.33268H70.6663C70.3127 9.33268 69.9736 9.47316 69.7235 9.72321C69.4735 9.97325 69.333 10.3124 69.333 10.666V25.3327C69.333 26.3935 69.7544 27.411 70.5046 28.1611C71.2547 28.9113 72.2721 29.3327 73.333 29.3327H86.6663C87.7272 29.3327 88.7446 28.9113 89.4948 28.1611C90.2449 27.411 90.6663 26.3935 90.6663 25.3327V10.666C90.6663 10.3124 90.5259 9.97325 90.2758 9.72321C90.0258 9.47316 89.6866 9.33268 89.333 9.33268ZM77.333 7.99935C77.333 7.2921 77.614 6.61383 78.1141 6.11373C78.6142 5.61363 79.2924 5.33268 79.9997 5.33268C80.7069 5.33268 81.3852 5.61363 81.8853 6.11373C82.3854 6.61383 82.6663 7.2921 82.6663 7.99935V9.33268H77.333V7.99935ZM87.9997 25.3327C87.9997 25.6863 87.8592 26.0254 87.6092 26.2755C87.3591 26.5255 87.02 26.666 86.6663 26.666H73.333C72.9794 26.666 72.6402 26.5255 72.3902 26.2755C72.1402 26.0254 71.9997 25.6863 71.9997 25.3327V11.9993H74.6663V13.3327C74.6663 13.6863 74.8068 14.0254 75.0569 14.2755C75.3069 14.5255 75.6461 14.666 75.9997 14.666C76.3533 14.666 76.6924 14.5255 76.9425 14.2755C77.1925 14.0254 77.333 13.6863 77.333 13.3327V11.9993H82.6663V13.3327C82.6663 13.6863 82.8068 14.0254 83.0569 14.2755C83.3069 14.5255 83.6461 14.666 83.9997 14.666C84.3533 14.666 84.6924 14.5255 84.9425 14.2755C85.1925 14.0254 85.333 13.6863 85.333 13.3327V11.9993H87.9997V25.3327Z" fill="#222122"/>
</svg>
