<svg width="168" height="40" viewBox="0 0 168 40" fill="none" xmlns="http://www.w3.org/2000/svg">
<path d="M28.9 9.10065C28.5044 9.10065 28.1178 9.21795 27.7889 9.43771C27.46 9.65748 27.2036 9.96983 27.0523 10.3353C26.9009 10.7007 26.8613 11.1029 26.9384 11.4908C27.0156 11.8788 27.2061 12.2352 27.4858 12.5149C27.7655 12.7946 28.1219 12.9851 28.5098 13.0622C28.8978 13.1394 29.2999 13.0998 29.6654 12.9484C30.0308 12.797 30.3432 12.5407 30.5629 12.2118C30.7827 11.8829 30.9 11.4962 30.9 11.1007C30.9 10.5702 30.6893 10.0615 30.3142 9.68644C29.9392 9.31137 29.4304 9.10065 28.9 9.10065V9.10065ZM36.5667 13.134C36.5343 11.7511 36.2753 10.383 35.8 9.08398C35.3762 7.97254 34.7167 6.96612 33.8667 6.13398C33.0414 5.27969 32.0326 4.62428 30.9167 4.21732C29.6211 3.72759 28.2514 3.46267 26.8667 3.43398C25.1 3.33398 24.5333 3.33398 20 3.33398C15.4667 3.33398 14.9 3.33398 13.1333 3.43398C11.7486 3.46267 10.3789 3.72759 9.08334 4.21732C7.96947 4.6284 6.96157 5.28325 6.13334 6.13398C5.27905 6.95928 4.62364 7.96805 4.21668 9.08398C3.72694 10.3796 3.46203 11.7492 3.43334 13.134C3.33334 14.9007 3.33334 15.4673 3.33334 20.0007C3.33334 24.534 3.33334 25.1007 3.43334 26.8673C3.46203 28.2521 3.72694 29.6217 4.21668 30.9173C4.62364 32.0333 5.27905 33.042 6.13334 33.8673C6.96157 34.7181 7.96947 35.3729 9.08334 35.784C10.3789 36.2737 11.7486 36.5386 13.1333 36.5673C14.9 36.6673 15.4667 36.6673 20 36.6673C24.5333 36.6673 25.1 36.6673 26.8667 36.5673C28.2514 36.5386 29.6211 36.2737 30.9167 35.784C32.0326 35.377 33.0414 34.7216 33.8667 33.8673C34.7204 33.0383 35.3806 32.031 35.8 30.9173C36.2753 29.6183 36.5343 28.2502 36.5667 26.8673C36.5667 25.1007 36.6667 24.534 36.6667 20.0007C36.6667 15.4673 36.6667 14.9007 36.5667 13.134V13.134ZM33.5667 26.6673C33.5545 27.7253 33.3629 28.7735 33 29.7673C32.7339 30.4926 32.3065 31.148 31.75 31.684C31.2094 32.2348 30.5554 32.6614 29.8333 32.934C28.8395 33.2969 27.7913 33.4885 26.7333 33.5007C25.0667 33.584 24.45 33.6007 20.0667 33.6007C15.6833 33.6007 15.0667 33.6007 13.4 33.5007C12.3015 33.5212 11.2077 33.3521 10.1667 33.0007C9.47631 32.7141 8.85227 32.2886 8.33334 31.7507C7.78016 31.2152 7.35808 30.5593 7.10001 29.834C6.6931 28.8259 6.46742 27.7539 6.43334 26.6673C6.43334 25.0007 6.33334 24.384 6.33334 20.0007C6.33334 15.6173 6.33334 15.0007 6.43334 13.334C6.44081 12.2524 6.63826 11.1806 7.01668 10.1673C7.31009 9.46384 7.76045 8.83675 8.33334 8.33398C8.8397 7.76093 9.46549 7.30581 10.1667 7.00065C11.1826 6.63406 12.2533 6.44245 13.3333 6.43398C15 6.43398 15.6167 6.33398 20 6.33398C24.3833 6.33398 25 6.33398 26.6667 6.43398C27.7246 6.44612 28.7728 6.63773 29.7667 7.00065C30.5241 7.28174 31.2038 7.73873 31.75 8.33398C32.2962 8.84595 32.7229 9.47187 33 10.1673C33.3704 11.1822 33.5622 12.2536 33.5667 13.334C33.65 15.0007 33.6667 15.6173 33.6667 20.0007C33.6667 24.384 33.65 25.0007 33.5667 26.6673ZM20 11.4507C18.3097 11.4539 16.6583 11.9582 15.2544 12.8997C13.8506 13.8412 12.7573 15.1776 12.1127 16.7402C11.4682 18.3028 11.3012 20.0214 11.633 21.6789C11.9648 23.3363 12.7804 24.8582 13.9768 26.0523C15.1732 27.2464 16.6967 28.059 18.3548 28.3876C20.0129 28.7161 21.7311 28.5458 23.2925 27.8982C24.8538 27.2506 26.1881 26.1547 27.1269 24.749C28.0656 23.3434 28.5667 21.691 28.5667 20.0007C28.5689 18.8758 28.3487 17.7617 27.9187 16.7222C27.4888 15.6828 26.8576 14.7387 26.0615 13.9441C25.2653 13.1495 24.3199 12.5201 23.2797 12.0922C22.2394 11.6643 21.1248 11.4463 20 11.4507V11.4507ZM20 25.5507C18.9023 25.5507 17.8293 25.2252 16.9166 24.6153C16.0039 24.0055 15.2925 23.1387 14.8725 22.1245C14.4524 21.1104 14.3425 19.9945 14.5567 18.9179C14.7708 17.8413 15.2994 16.8524 16.0756 16.0762C16.8517 15.3 17.8407 14.7714 18.9173 14.5573C19.9939 14.3431 21.1098 14.4531 22.1239 14.8731C23.138 15.2932 24.0048 16.0045 24.6147 16.9172C25.2245 17.8299 25.55 18.903 25.55 20.0007C25.55 20.7295 25.4065 21.4512 25.1275 22.1245C24.8486 22.7979 24.4398 23.4097 23.9245 23.9251C23.4091 24.4405 22.7973 24.8493 22.1239 25.1282C21.4505 25.4071 20.7288 25.5507 20 25.5507V25.5507Z" fill="#67C6B3"/>
<path d="M78.1834 33.3332H78.05C75.364 33.3097 72.7167 32.6892 70.3 31.5165C69.8555 31.3077 69.4895 30.9621 69.2555 30.5302C69.0216 30.0984 68.9321 29.603 69 29.1165C69.0739 28.6268 69.3007 28.173 69.6479 27.8198C69.9951 27.4666 70.445 27.2321 70.9334 27.1499C72.431 26.9501 73.8718 26.4452 75.1667 25.6665C72.9186 23.9089 71.1879 21.5758 70.1581 18.9145C69.1282 16.2533 68.8374 13.3629 69.3167 10.5499C69.3817 10.1043 69.5733 9.68676 69.8688 9.34697C70.1642 9.00718 70.5511 8.75943 70.9834 8.6332C71.4039 8.50114 71.8539 8.49549 72.2776 8.61697C72.7013 8.73846 73.08 8.98171 73.3667 9.31654C74.34 10.5928 75.5632 11.6575 76.9615 12.4455C78.3599 13.2335 79.9041 13.7283 81.5 13.8999C81.5763 11.9363 82.4201 10.0811 83.85 8.7332C84.564 8.04949 85.407 7.51472 86.3297 7.16005C87.2525 6.80538 88.2366 6.6379 89.2247 6.66737C90.2128 6.69685 91.1852 6.92268 92.0852 7.33172C92.9851 7.74076 93.7947 8.32482 94.4667 9.04987C94.6418 9.20465 94.8593 9.30329 95.0911 9.33301C95.3229 9.36272 95.5582 9.32215 95.7667 9.21654C96.1641 9.02912 96.6066 8.95856 97.0425 9.01311C97.4785 9.06766 97.89 9.24506 98.2289 9.52461C98.5679 9.80417 98.8204 10.1743 98.9569 10.592C99.0934 11.0096 99.1084 11.4574 99 11.8832C98.6156 13.4667 97.8873 14.9462 96.8667 16.2165C96.6418 20.9578 94.5515 25.4178 91.0516 28.6242C87.5517 31.8306 82.9261 33.5233 78.1834 33.3332V33.3332ZM78.1834 29.9999H78.3167C80.2545 30.0665 82.1862 29.7478 83.9999 29.0623C85.8136 28.3768 87.4732 27.3381 88.8824 26.0063C90.2917 24.6746 91.4225 23.0764 92.2095 21.3044C92.9964 19.5323 93.4237 17.6217 93.4667 15.6832C93.4942 15.152 93.7133 14.6487 94.0834 14.2665C94.4899 13.7519 94.8365 13.1928 95.1167 12.5999C94.5163 12.601 93.9224 12.4754 93.3738 12.2313C92.8253 11.9872 92.3344 11.63 91.9334 11.1832C91.5477 10.8008 91.0896 10.4992 90.5859 10.296C90.0822 10.0928 89.5431 9.99212 89 9.99987C88.4515 9.98569 87.9056 10.08 87.3937 10.2773C86.8817 10.4747 86.4138 10.7712 86.0167 11.1499C85.481 11.6582 85.0882 12.2983 84.8776 13.0061C84.667 13.714 84.646 14.4647 84.8167 15.1832L85.25 17.0832L83.3 17.2165C81.3019 17.3795 79.2921 17.1061 77.4101 16.4155C75.528 15.7248 73.8185 14.6333 72.4 13.2165C72.3392 15.4105 72.888 17.5784 73.9855 19.4792C75.083 21.3799 76.6861 22.939 78.6167 23.9832L80.2 24.8832L79.15 26.3832C78.0145 27.8724 76.4587 28.987 74.6834 29.5832C75.8222 29.8686 76.9926 30.0087 78.1667 29.9999H78.1834Z" fill="#67C6B3"/>
<path d="M162.833 3.33398H133.167C132.68 3.33398 132.214 3.52714 131.87 3.87096C131.526 4.21477 131.333 4.68109 131.333 5.16732V34.834C131.333 35.0747 131.381 35.3131 131.473 35.5356C131.565 35.758 131.7 35.9601 131.87 36.1303C132.041 36.3006 132.243 36.4356 132.465 36.5278C132.687 36.6199 132.926 36.6673 133.167 36.6673H149.133V23.7507H144.8V18.7507H149.133V15.0007C149.044 14.1202 149.147 13.2309 149.438 12.3949C149.728 11.5589 150.198 10.7966 150.814 10.1613C151.43 9.52611 152.178 9.03339 153.005 8.71771C153.831 8.40204 154.717 8.27107 155.6 8.33398C156.897 8.326 158.194 8.39278 159.483 8.53398V13.034H156.833C154.733 13.034 154.333 14.034 154.333 15.484V18.7007H159.333L158.683 23.7007H154.333V36.6673H162.833C163.074 36.6673 163.312 36.6199 163.535 36.5278C163.757 36.4356 163.959 36.3006 164.13 36.1303C164.3 35.9601 164.435 35.758 164.527 35.5356C164.619 35.3131 164.667 35.0747 164.667 34.834V5.16732C164.667 4.92656 164.619 4.68816 164.527 4.46573C164.435 4.2433 164.3 4.0412 164.13 3.87096C163.959 3.70071 163.757 3.56567 163.535 3.47354C163.312 3.38141 163.074 3.33398 162.833 3.33398V3.33398Z" fill="#67C6B3"/>
</svg>
