<svg width="104" height="152" viewBox="0 0 104 152" fill="none" xmlns="http://www.w3.org/2000/svg">
<g opacity="0.5">
<circle cx="4" cy="4" r="4" fill="#67C6B3"/>
<circle cx="36" cy="4" r="4" fill="#67C6B3"/>
<circle cx="68" cy="4" r="4" fill="#67C6B3"/>
<circle cx="100" cy="4" r="4" fill="#67C6B3"/>
<circle cx="4" cy="28" r="4" fill="#67C6B3"/>
<circle cx="36" cy="28" r="4" fill="#67C6B3"/>
<circle cx="68" cy="28" r="4" fill="#67C6B3"/>
<circle cx="100" cy="28" r="4" fill="#67C6B3"/>
<circle cx="4" cy="52" r="4" fill="#67C6B3"/>
<circle cx="36" cy="52" r="4" fill="#67C6B3"/>
<circle cx="68" cy="52" r="4" fill="#67C6B3"/>
<circle cx="100" cy="52" r="4" fill="#67C6B3"/>
<circle cx="4" cy="76" r="4" fill="#67C6B3"/>
<circle cx="36" cy="76" r="4" fill="#67C6B3"/>
<circle cx="68" cy="76" r="4" fill="#67C6B3"/>
<circle cx="100" cy="76" r="4" fill="#67C6B3"/>
<circle cx="4" cy="100" r="4" fill="#67C6B3"/>
<circle cx="36" cy="100" r="4" fill="#67C6B3"/>
<circle cx="68" cy="100" r="4" fill="#67C6B3"/>
<circle cx="100" cy="100" r="4" fill="#67C6B3"/>
<circle cx="4" cy="124" r="4" fill="#67C6B3"/>
<circle cx="36" cy="124" r="4" fill="#67C6B3"/>
<circle cx="68" cy="124" r="4" fill="#67C6B3"/>
<circle cx="100" cy="124" r="4" fill="#67C6B3"/>
<circle cx="4" cy="148" r="4" fill="#67C6B3"/>
<circle cx="36" cy="148" r="4" fill="#67C6B3"/>
<circle cx="68" cy="148" r="4" fill="#67C6B3"/>
<circle cx="100" cy="148" r="4" fill="#67C6B3"/>
</g>
</svg>
