<svg width="32" height="32" viewBox="0 0 32 32" fill="none" xmlns="http://www.w3.org/2000/svg">
<path d="M3.45899 25.2185L15.459 30.5518H15.467C15.6347 30.6274 15.8164 30.6664 16.0003 30.6664C16.1842 30.6664 16.366 30.6274 16.5337 30.5518H16.5443L28.5443 25.2185C28.7796 25.1134 28.9793 24.9423 29.1194 24.726C29.2595 24.5098 29.3339 24.2575 29.3337 23.9998V7.99984C29.3273 7.74332 29.2499 7.49359 29.1101 7.27843C28.9703 7.06328 28.7735 6.89114 28.5417 6.78118L16.5417 1.44784C16.3712 1.37213 16.1868 1.33301 16.0003 1.33301C15.8138 1.33301 15.6294 1.37213 15.459 1.44784L3.45899 6.78118C3.22724 6.89126 3.03054 7.06343 2.89073 7.27856C2.75092 7.49369 2.67347 7.74336 2.66699 7.99984V23.9998C2.66696 24.2578 2.74177 24.5103 2.88234 24.7266C3.02292 24.9429 3.22323 25.1138 3.45899 25.2185V25.2185ZM5.33366 10.0518L14.667 14.1998V27.2812L5.33366 23.1332V10.0518ZM26.667 23.1332L17.3337 27.2812V14.1998L26.667 10.0518V23.1332ZM16.0003 4.12518L24.7177 7.99984L16.0003 11.8745L7.28299 7.99984L16.0003 4.12518Z" fill="#67C6B3"/>
</svg>
