<svg width="96" height="32" viewBox="0 0 96 32" fill="none" xmlns="http://www.w3.org/2000/svg">
<path d="M27.6133 25.72L23.08 21.2C24.5427 19.3366 25.3363 17.0355 25.3333 14.6667C25.3333 12.557 24.7077 10.4947 23.5357 8.74059C22.3636 6.98646 20.6977 5.61929 18.7486 4.81196C16.7995 4.00462 14.6548 3.79339 12.5857 4.20496C10.5166 4.61654 8.61596 5.63244 7.1242 7.1242C5.63244 8.61596 4.61654 10.5166 4.20496 12.5857C3.79339 14.6548 4.00462 16.7995 4.81196 18.7486C5.61929 20.6977 6.98646 22.3636 8.74059 23.5357C10.4947 24.7077 12.557 25.3333 14.6667 25.3333C17.0355 25.3363 19.3366 24.5427 21.2 23.08L25.72 27.6133C25.844 27.7383 25.9914 27.8375 26.1539 27.9052C26.3164 27.9729 26.4907 28.0077 26.6667 28.0077C26.8427 28.0077 27.017 27.9729 27.1794 27.9052C27.3419 27.8375 27.4894 27.7383 27.6133 27.6133C27.7383 27.4894 27.8375 27.3419 27.9052 27.1794C27.9729 27.017 28.0077 26.8427 28.0077 26.6667C28.0077 26.4907 27.9729 26.3164 27.9052 26.1539C27.8375 25.9914 27.7383 25.844 27.6133 25.72V25.72ZM6.66667 14.6667C6.66667 13.0844 7.13586 11.5377 8.01491 10.2221C8.89397 8.90652 10.1434 7.88114 11.6052 7.27564C13.067 6.67013 14.6755 6.51171 16.2274 6.82039C17.7792 7.12907 19.2047 7.891 20.3235 9.00982C21.4423 10.1286 22.2043 11.5541 22.513 13.1059C22.8216 14.6578 22.6632 16.2663 22.0577 17.7281C21.4522 19.1899 20.4268 20.4394 19.1112 21.3184C17.7956 22.1975 16.2489 22.6667 14.6667 22.6667C12.5449 22.6667 10.5101 21.8238 9.00982 20.3235C7.50953 18.8232 6.66667 16.7884 6.66667 14.6667Z" fill="#222122"/>
<path d="M89.3334 9.33366H85.3334V8.00033C85.3334 6.58584 84.7715 5.22928 83.7713 4.22909C82.7711 3.2289 81.4145 2.66699 80 2.66699C78.5856 2.66699 77.229 3.2289 76.2288 4.22909C75.2286 5.22928 74.6667 6.58584 74.6667 8.00033V9.33366H70.6667C70.3131 9.33366 69.9739 9.47413 69.7239 9.72418C69.4739 9.97423 69.3334 10.3134 69.3334 10.667V25.3337C69.3334 26.3945 69.7548 27.4119 70.5049 28.1621C71.2551 28.9122 72.2725 29.3337 73.3334 29.3337H86.6667C87.7276 29.3337 88.745 28.9122 89.4951 28.1621C90.2453 27.4119 90.6667 26.3945 90.6667 25.3337V10.667C90.6667 10.3134 90.5262 9.97423 90.2762 9.72418C90.0261 9.47413 89.687 9.33366 89.3334 9.33366ZM77.3334 8.00033C77.3334 7.29308 77.6143 6.6148 78.1144 6.11471C78.6145 5.61461 79.2928 5.33366 80 5.33366C80.7073 5.33366 81.3856 5.61461 81.8857 6.11471C82.3858 6.6148 82.6667 7.29308 82.6667 8.00033V9.33366H77.3334V8.00033ZM88 25.3337C88 25.6873 87.8596 26.0264 87.6095 26.2765C87.3595 26.5265 87.0203 26.667 86.6667 26.667H73.3334C72.9798 26.667 72.6406 26.5265 72.3906 26.2765C72.1405 26.0264 72 25.6873 72 25.3337V12.0003H74.6667V13.3337C74.6667 13.6873 74.8072 14.0264 75.0572 14.2765C75.3073 14.5265 75.6464 14.667 76 14.667C76.3537 14.667 76.6928 14.5265 76.9428 14.2765C77.1929 14.0264 77.3334 13.6873 77.3334 13.3337V12.0003H82.6667V13.3337C82.6667 13.6873 82.8072 14.0264 83.0572 14.2765C83.3073 14.5265 83.6464 14.667 84 14.667C84.3537 14.667 84.6928 14.5265 84.9428 14.2765C85.1929 14.0264 85.3334 13.6873 85.3334 13.3337V12.0003H88V25.3337Z" fill="#222122"/>
</svg>
