<svg width="24" height="24" viewBox="0 0 24 24" fill="none" xmlns="http://www.w3.org/2000/svg">
<path d="M9 12.0002C8.99924 11.8686 9.02446 11.7381 9.07423 11.6163C9.12399 11.4944 9.19732 11.3836 9.29 11.2902L13.29 7.29019C13.4783 7.10188 13.7337 6.99609 14 6.99609C14.2663 6.99609 14.5217 7.10188 14.71 7.29019C14.8983 7.47849 15.0041 7.73388 15.0041 8.00019C15.0041 8.26649 14.8983 8.52188 14.71 8.71019L11.41 12.0002L14.7 15.2902C14.8638 15.4815 14.9494 15.7276 14.9397 15.9792C14.93 16.2309 14.8257 16.4697 14.6476 16.6477C14.4695 16.8258 14.2307 16.9302 13.9791 16.9399C13.7274 16.9496 13.4813 16.864 13.29 16.7002L9.29 12.7002C9.10525 12.5139 9.0011 12.2625 9 12.0002Z" fill="#615E5B"/>
</svg>
