<svg width="24" height="24" viewBox="0 0 24 24" fill="none" xmlns="http://www.w3.org/2000/svg">
<path d="M5.25014 12.0999C5.25014 11.8946 5.32915 11.6977 5.46981 11.5525C5.61046 11.4073 5.80123 11.3257 6.00014 11.3257L16.1926 11.3257L15.2176 10.327C15.0764 10.1813 14.9971 9.98353 14.9971 9.77736C14.9971 9.57119 15.0764 9.37347 15.2176 9.22768C15.3589 9.0819 15.5504 9 15.7501 9C15.9499 9 16.1414 9.0819 16.2826 9.22768L18.5326 11.5503C18.6367 11.6591 18.7072 11.7974 18.7352 11.9476C18.7633 12.0978 18.7476 12.2531 18.6901 12.3941C18.6339 12.5355 18.5383 12.6565 18.4155 12.742C18.2927 12.8274 18.1482 12.8734 18.0001 12.8741L6.00014 12.8741C5.80123 12.8741 5.61046 12.7926 5.46981 12.6474C5.32915 12.5022 5.25014 12.3053 5.25014 12.0999Z" fill="#FAFAFA"/>
<path d="M15.0001 14.4222C14.9995 14.3203 15.0185 14.2193 15.0558 14.125C15.0931 14.0307 15.1481 13.9449 15.2176 13.8725L17.4676 11.5499C17.6088 11.4042 17.8004 11.3223 18.0001 11.3223C18.099 11.3223 18.1969 11.3424 18.2883 11.3814C18.3797 11.4205 18.4627 11.4778 18.5326 11.5499C18.6025 11.6221 18.658 11.7078 18.6958 11.8021C18.7337 11.8965 18.7532 11.9975 18.7532 12.0996C18.7532 12.3058 18.6738 12.5035 18.5326 12.6493L16.2826 14.9719C16.2129 15.0444 16.1299 15.102 16.0385 15.1413C15.9471 15.1807 15.8491 15.2009 15.7501 15.2009C15.6511 15.2009 15.5531 15.1807 15.4617 15.1413C15.3703 15.102 15.2873 15.0444 15.2176 14.9719C15.1481 14.8995 15.0931 14.8138 15.0558 14.7194C15.0185 14.6251 14.9995 14.5241 15.0001 14.4222Z" fill="#FAFAFA"/>
</svg>
