<svg width="96" height="32" viewBox="0 0 96 32" fill="none" xmlns="http://www.w3.org/2000/svg">
<path d="M27.6133 25.72L23.08 21.2C24.5427 19.3366 25.3363 17.0355 25.3333 14.6667C25.3333 12.557 24.7077 10.4947 23.5357 8.74059C22.3636 6.98646 20.6977 5.61929 18.7486 4.81196C16.7995 4.00462 14.6548 3.79339 12.5857 4.20496C10.5166 4.61654 8.61596 5.63244 7.1242 7.1242C5.63244 8.61596 4.61654 10.5166 4.20496 12.5857C3.79339 14.6548 4.00462 16.7995 4.81196 18.7486C5.61929 20.6977 6.98646 22.3636 8.74059 23.5357C10.4947 24.7077 12.557 25.3333 14.6667 25.3333C17.0355 25.3363 19.3366 24.5427 21.2 23.08L25.72 27.6133C25.844 27.7383 25.9914 27.8375 26.1539 27.9052C26.3164 27.9729 26.4907 28.0077 26.6667 28.0077C26.8427 28.0077 27.017 27.9729 27.1794 27.9052C27.3419 27.8375 27.4894 27.7383 27.6133 27.6133C27.7383 27.4894 27.8375 27.3419 27.9052 27.1794C27.9729 27.017 28.0077 26.8427 28.0077 26.6667C28.0077 26.4907 27.9729 26.3164 27.9052 26.1539C27.8375 25.9914 27.7383 25.844 27.6133 25.72V25.72ZM6.66667 14.6667C6.66667 13.0844 7.13586 11.5377 8.01491 10.2221C8.89397 8.90652 10.1434 7.88114 11.6052 7.27564C13.067 6.67013 14.6755 6.51171 16.2274 6.82039C17.7792 7.12907 19.2047 7.891 20.3235 9.00982C21.4423 10.1286 22.2043 11.5541 22.513 13.1059C22.8216 14.6578 22.6632 16.2663 22.0577 17.7281C21.4522 19.1899 20.4268 20.4394 19.1112 21.3184C17.7956 22.1975 16.2489 22.6667 14.6667 22.6667C12.5449 22.6667 10.5101 21.8238 9.00982 20.3235C7.50953 18.8232 6.66667 16.7884 6.66667 14.6667Z" fill="#222122"/>
<path d="M89.3334 9.33268H85.3334V7.99935C85.3334 6.58486 84.7715 5.22831 83.7713 4.22811C82.7711 3.22792 81.4145 2.66602 80 2.66602C78.5856 2.66602 77.229 3.22792 76.2288 4.22811C75.2286 5.22831 74.6667 6.58486 74.6667 7.99935V9.33268H70.6667C70.3131 9.33268 69.9739 9.47316 69.7239 9.72321C69.4739 9.97325 69.3334 10.3124 69.3334 10.666V25.3327C69.3334 26.3935 69.7548 27.411 70.5049 28.1611C71.2551 28.9113 72.2725 29.3327 73.3334 29.3327H86.6667C87.7276 29.3327 88.745 28.9113 89.4951 28.1611C90.2453 27.411 90.6667 26.3935 90.6667 25.3327V10.666C90.6667 10.3124 90.5262 9.97325 90.2762 9.72321C90.0261 9.47316 89.687 9.33268 89.3334 9.33268ZM77.3334 7.99935C77.3334 7.2921 77.6143 6.61383 78.1144 6.11373C78.6145 5.61363 79.2928 5.33268 80 5.33268C80.7073 5.33268 81.3856 5.61363 81.8857 6.11373C82.3858 6.61383 82.6667 7.2921 82.6667 7.99935V9.33268H77.3334V7.99935ZM88 25.3327C88 25.6863 87.8596 26.0254 87.6095 26.2755C87.3595 26.5255 87.0203 26.666 86.6667 26.666H73.3334C72.9798 26.666 72.6406 26.5255 72.3906 26.2755C72.1405 26.0254 72 25.6863 72 25.3327V11.9993H74.6667V13.3327C74.6667 13.6863 74.8072 14.0254 75.0572 14.2755C75.3073 14.5255 75.6464 14.666 76 14.666C76.3537 14.666 76.6928 14.5255 76.9428 14.2755C77.1929 14.0254 77.3334 13.6863 77.3334 13.3327V11.9993H82.6667V13.3327C82.6667 13.6863 82.8072 14.0254 83.0572 14.2755C83.3073 14.5255 83.6464 14.666 84 14.666C84.3537 14.666 84.6928 14.5255 84.9428 14.2755C85.1929 14.0254 85.3334 13.6863 85.3334 13.3327V11.9993H88V25.3327Z" fill="#222122"/>
</svg>
