<svg width="24" height="24" viewBox="0 0 24 24" fill="none" xmlns="http://www.w3.org/2000/svg">
<path d="M20.5605 18.4395L16.7527 14.6318C17.5395 13.446 18 12.0263 18 10.5C18 6.3645 14.6355 3 10.5 3C6.3645 3 3 6.3645 3 10.5C3 14.6355 6.3645 18 10.5 18C12.0263 18 13.446 17.5395 14.6318 16.7527L18.4395 20.5605C19.0245 21.1462 19.9755 21.1462 20.5605 20.5605C21.1462 19.9747 21.1462 19.0253 20.5605 18.4395V18.4395ZM5.25 10.5C5.25 7.605 7.605 5.25 10.5 5.25C13.395 5.25 15.75 7.605 15.75 10.5C15.75 13.395 13.395 15.75 10.5 15.75C7.605 15.75 5.25 13.395 5.25 10.5V10.5Z" fill="#E4E0DA"/>
</svg>
