<svg width="168" height="40" viewBox="0 0 168 40" fill="none" xmlns="http://www.w3.org/2000/svg">
<path d="M28.8997 9.09967C28.5041 9.09967 28.1174 9.21697 27.7885 9.43674C27.4596 9.6565 27.2033 9.96886 27.0519 10.3343C26.9005 10.6998 26.8609 11.1019 26.9381 11.4899C27.0153 11.8778 27.2058 12.2342 27.4855 12.5139C27.7652 12.7936 28.1215 12.9841 28.5095 13.0612C28.8975 13.1384 29.2996 13.0988 29.665 12.9474C30.0305 12.7961 30.3429 12.5397 30.5626 12.2108C30.7824 11.8819 30.8997 11.4952 30.8997 11.0997C30.8997 10.5692 30.689 10.0605 30.3139 9.68546C29.9388 9.31039 29.4301 9.09967 28.8997 9.09967V9.09967ZM36.5663 13.133C36.5339 11.7502 36.2749 10.382 35.7997 9.08301C35.3759 7.97156 34.7163 6.96514 33.8663 6.13301C33.041 5.27872 32.0323 4.6233 30.9163 4.21634C29.6208 3.72661 28.2511 3.46169 26.8663 3.43301C25.0997 3.33301 24.533 3.33301 19.9997 3.33301C15.4663 3.33301 14.8997 3.33301 13.133 3.43301C11.7483 3.46169 10.3786 3.72661 9.08301 4.21634C7.96914 4.62742 6.96123 5.28228 6.13301 6.13301C5.27872 6.9583 4.6233 7.96707 4.21634 9.08301C3.72661 10.3786 3.46169 11.7483 3.43301 13.133C3.33301 14.8997 3.33301 15.4663 3.33301 19.9997C3.33301 24.533 3.33301 25.0997 3.43301 26.8663C3.46169 28.2511 3.72661 29.6208 4.21634 30.9163C4.6233 32.0323 5.27872 33.041 6.13301 33.8663C6.96123 34.7171 7.96914 35.3719 9.08301 35.783C10.3786 36.2727 11.7483 36.5377 13.133 36.5663C14.8997 36.6663 15.4663 36.6663 19.9997 36.6663C24.533 36.6663 25.0997 36.6663 26.8663 36.5663C28.2511 36.5377 29.6208 36.2727 30.9163 35.783C32.0323 35.376 33.041 34.7206 33.8663 33.8663C34.7201 33.0373 35.3802 32.03 35.7997 30.9163C36.2749 29.6173 36.5339 28.2492 36.5663 26.8663C36.5663 25.0997 36.6663 24.533 36.6663 19.9997C36.6663 15.4663 36.6663 14.8997 36.5663 13.133V13.133ZM33.5663 26.6663C33.5542 27.7243 33.3626 28.7725 32.9997 29.7663C32.7336 30.4917 32.3061 31.147 31.7497 31.683C31.2091 32.2339 30.5551 32.6604 29.833 32.933C28.8392 33.2959 27.791 33.4875 26.733 33.4997C25.0663 33.583 24.4497 33.5997 20.0663 33.5997C15.683 33.5997 15.0663 33.5997 13.3997 33.4997C12.3012 33.5202 11.2073 33.3511 10.1663 32.9997C9.47598 32.7131 8.85193 32.2877 8.33301 31.7497C7.77982 31.2143 7.35775 30.5583 7.09968 29.833C6.69277 28.8249 6.46708 27.7529 6.43301 26.6663C6.43301 24.9997 6.33301 24.383 6.33301 19.9997C6.33301 15.6163 6.33301 14.9997 6.43301 13.333C6.44048 12.2514 6.63792 11.1796 7.01634 10.1663C7.30975 9.46286 7.76012 8.83577 8.33301 8.33301C8.83936 7.75996 9.46515 7.30483 10.1663 6.99967C11.1823 6.63308 12.253 6.44147 13.333 6.43301C14.9997 6.43301 15.6163 6.33301 19.9997 6.33301C24.383 6.33301 24.9997 6.33301 26.6663 6.43301C27.7243 6.44514 28.7725 6.63675 29.7663 6.99967C30.5237 7.28076 31.2035 7.73775 31.7497 8.33301C32.2958 8.84497 32.7226 9.4709 32.9997 10.1663C33.3701 11.1812 33.5618 12.2526 33.5663 13.333C33.6497 14.9997 33.6663 15.6163 33.6663 19.9997C33.6663 24.383 33.6497 24.9997 33.5663 26.6663ZM19.9997 11.4497C18.3094 11.453 16.6579 11.9572 15.2541 12.8987C13.8503 13.8402 12.757 15.1767 12.1124 16.7393C11.4678 18.3019 11.3009 20.0205 11.6327 21.6779C11.9644 23.3353 12.7801 24.8572 13.9765 26.0513C15.1729 27.2454 16.6964 28.058 18.3544 28.3866C20.0125 28.7151 21.7308 28.5449 23.2921 27.8972C24.8535 27.2496 26.1878 26.1537 27.1266 24.7481C28.0653 23.3424 28.5663 21.69 28.5663 19.9997C28.5685 18.8748 28.3483 17.7607 27.9184 16.7213C27.4885 15.6819 26.8573 14.7377 26.0611 13.9431C25.265 13.1485 24.3196 12.5191 23.2793 12.0912C22.2391 11.6633 21.1245 11.4453 19.9997 11.4497V11.4497ZM19.9997 25.5497C18.902 25.5497 17.829 25.2242 16.9163 24.6143C16.0036 24.0045 15.2922 23.1377 14.8721 22.1236C14.4521 21.1094 14.3422 19.9935 14.5563 18.9169C14.7705 17.8403 15.2991 16.8514 16.0752 16.0752C16.8514 15.2991 17.8403 14.7705 18.9169 14.5563C19.9935 14.3422 21.1094 14.4521 22.1236 14.8721C23.1377 15.2922 24.0045 16.0036 24.6143 16.9163C25.2242 17.829 25.5497 18.902 25.5497 19.9997C25.5497 20.7285 25.4061 21.4502 25.1272 22.1236C24.8483 22.7969 24.4395 23.4088 23.9241 23.9241C23.4088 24.4395 22.7969 24.8483 22.1236 25.1272C21.4502 25.4061 20.7285 25.5497 19.9997 25.5497V25.5497Z" fill="#67C6B3"/>
<path d="M78.183 33.3332H78.0497C75.3636 33.3097 72.7164 32.6892 70.2997 31.5165C69.8551 31.3077 69.4891 30.9621 69.2552 30.5302C69.0212 30.0984 68.9317 29.603 68.9997 29.1165C69.0736 28.6268 69.3003 28.173 69.6475 27.8198C69.9947 27.4666 70.4446 27.2321 70.933 27.1499C72.4307 26.9501 73.8715 26.4452 75.1663 25.6665C72.9183 23.9089 71.1876 21.5758 70.1577 18.9145C69.1278 16.2533 68.8371 13.3629 69.3163 10.5499C69.3813 10.1043 69.5729 9.68676 69.8684 9.34697C70.1639 9.00718 70.5508 8.75943 70.983 8.6332C71.4035 8.50114 71.8536 8.49549 72.2773 8.61697C72.701 8.73846 73.0797 8.98171 73.3663 9.31654C74.3397 10.5928 75.5628 11.6575 76.9612 12.4455C78.3595 13.2335 79.9038 13.7283 81.4997 13.8999C81.5759 11.9363 82.4197 10.0811 83.8497 8.7332C84.5637 8.04949 85.4066 7.51472 86.3294 7.16005C87.2521 6.80538 88.2362 6.6379 89.2243 6.66737C90.2125 6.69685 91.1848 6.92268 92.0848 7.33172C92.9848 7.74076 93.7943 8.32482 94.4663 9.04987C94.6414 9.20465 94.8589 9.30329 95.0907 9.33301C95.3225 9.36272 95.5579 9.32215 95.7663 9.21654C96.1637 9.02912 96.6062 8.95856 97.0422 9.01311C97.4781 9.06766 97.8896 9.24506 98.2286 9.52461C98.5675 9.80417 98.82 10.1743 98.9565 10.592C99.0931 11.0096 99.108 11.4574 98.9997 11.8832C98.6152 13.4667 97.8869 14.9462 96.8663 16.2165C96.6414 20.9578 94.5511 25.4178 91.0512 28.6242C87.5514 31.8306 82.9258 33.5233 78.183 33.3332V33.3332ZM78.183 29.9999H78.3163C80.2541 30.0665 82.1858 29.7478 83.9995 29.0623C85.8132 28.3768 87.4728 27.3381 88.8821 26.0063C90.2913 24.6746 91.4222 23.0764 92.2091 21.3044C92.996 19.5323 93.4234 17.6217 93.4663 15.6832C93.4939 15.152 93.7129 14.6487 94.083 14.2665C94.4895 13.7519 94.8362 13.1928 95.1163 12.5999C94.5159 12.601 93.922 12.4754 93.3735 12.2313C92.8249 11.9872 92.3341 11.63 91.933 11.1832C91.5473 10.8008 91.0892 10.4992 90.5856 10.296C90.0819 10.0928 89.5427 9.99212 88.9997 9.99987C88.4512 9.98569 87.9053 10.08 87.3933 10.2773C86.8813 10.4747 86.4134 10.7712 86.0163 11.1499C85.4806 11.6582 85.0878 12.2983 84.8772 13.0061C84.6666 13.714 84.6456 14.4647 84.8163 15.1832L85.2497 17.0832L83.2997 17.2165C81.3015 17.3795 79.2918 17.1061 77.4097 16.4155C75.5276 15.7248 73.8181 14.6333 72.3997 13.2165C72.3388 15.4105 72.8877 17.5784 73.9852 19.4792C75.0826 21.3799 76.6858 22.939 78.6163 23.9832L80.1997 24.8832L79.1497 26.3832C78.0142 27.8724 76.4583 28.987 74.683 29.5832C75.8219 29.8686 76.9923 30.0087 78.1663 29.9999H78.183Z" fill="#67C6B3"/>
<path d="M162.833 3.33301H133.166C132.68 3.33301 132.214 3.52616 131.87 3.86998C131.526 4.2138 131.333 4.68011 131.333 5.16634V34.833C131.333 35.0738 131.38 35.3122 131.473 35.5346C131.565 35.757 131.7 35.9591 131.87 36.1294C132.04 36.2996 132.242 36.4347 132.465 36.5268C132.687 36.6189 132.926 36.6663 133.166 36.6663H149.133V23.7497H144.8V18.7497H149.133V14.9997C149.043 14.1193 149.147 13.2299 149.438 12.3939C149.728 11.5579 150.198 10.7956 150.814 10.1604C151.43 9.52514 152.178 9.03241 153.004 8.71674C153.831 8.40107 154.717 8.27009 155.6 8.33301C156.897 8.32503 158.193 8.3918 159.483 8.53301V13.033H156.833C154.733 13.033 154.333 14.033 154.333 15.483V18.6997H159.333L158.683 23.6997H154.333V36.6663H162.833C163.074 36.6663 163.312 36.6189 163.535 36.5268C163.757 36.4347 163.959 36.2996 164.129 36.1294C164.3 35.9591 164.435 35.757 164.527 35.5346C164.619 35.3122 164.666 35.0738 164.666 34.833V5.16634C164.666 4.92558 164.619 4.68719 164.527 4.46476C164.435 4.24232 164.3 4.04022 164.129 3.86998C163.959 3.69974 163.757 3.5647 163.535 3.47256C163.312 3.38043 163.074 3.33301 162.833 3.33301V3.33301Z" fill="#67C6B3"/>
</svg>
