<svg width="80" height="48" viewBox="0 0 80 48" fill="none" xmlns="http://www.w3.org/2000/svg">
<rect width="80" height="48" fill="#FAFAFA"/>
<path d="M26.5 24.1999C26.5 23.7892 26.6581 23.3954 26.9394 23.105C27.2207 22.8146 27.6022 22.6515 28 22.6515L48.385 22.6515L46.435 20.6541C46.1526 20.3625 45.9939 19.9671 45.9939 19.5547C45.9939 19.1424 46.1526 18.7469 46.435 18.4554C46.7175 18.1638 47.1006 18 47.5 18C47.8995 18 48.2826 18.1638 48.565 18.4554L53.065 23.1005C53.2732 23.3183 53.4142 23.5948 53.4702 23.8951C53.5263 24.1955 53.4949 24.5063 53.38 24.7883C53.2675 25.071 53.0764 25.3131 52.8308 25.4839C52.5852 25.6548 52.2962 25.7467 52 25.7483L28 25.7483C27.6022 25.7483 27.2207 25.5851 26.9394 25.2948C26.6581 25.0044 26.5 24.6105 26.5 24.1999Z" fill="#67C6B3"/>
<path d="M46 28.8454C45.9988 28.6416 46.0367 28.4396 46.1113 28.251C46.186 28.0623 46.2959 27.8907 46.435 27.746L50.935 23.1009C51.2174 22.8093 51.6005 22.6455 52 22.6455C52.1978 22.6455 52.3936 22.6857 52.5763 22.7639C52.7591 22.842 52.9251 22.9565 53.065 23.1009C53.2048 23.2452 53.3158 23.4166 53.3915 23.6053C53.4671 23.7939 53.5061 23.9961 53.5061 24.2002C53.5061 24.6126 53.3474 25.008 53.065 25.2996L48.565 29.9447C48.4255 30.0899 48.2596 30.2051 48.0768 30.2837C47.894 30.3623 47.698 30.4028 47.5 30.4028C47.3019 30.4028 47.1059 30.3623 46.9231 30.2837C46.7403 30.2051 46.5744 30.0899 46.435 29.9447C46.2959 29.8001 46.186 29.6285 46.1113 29.4398C46.0367 29.2512 45.9988 29.0492 46 28.8454Z" fill="#67C6B3"/>
</svg>
