<svg width="96" height="32" viewBox="0 0 96 32" fill="none" xmlns="http://www.w3.org/2000/svg">
<path d="M27.6133 25.72L23.08 21.2C24.5427 19.3366 25.3363 17.0355 25.3333 14.6667C25.3333 12.557 24.7077 10.4947 23.5357 8.74059C22.3636 6.98646 20.6977 5.61929 18.7486 4.81196C16.7995 4.00462 14.6548 3.79339 12.5857 4.20496C10.5166 4.61654 8.61596 5.63244 7.1242 7.1242C5.63244 8.61596 4.61654 10.5166 4.20496 12.5857C3.79339 14.6548 4.00462 16.7995 4.81196 18.7486C5.61929 20.6977 6.98646 22.3636 8.74059 23.5357C10.4947 24.7077 12.557 25.3333 14.6667 25.3333C17.0355 25.3363 19.3366 24.5427 21.2 23.08L25.72 27.6133C25.844 27.7383 25.9914 27.8375 26.1539 27.9052C26.3164 27.9729 26.4907 28.0077 26.6667 28.0077C26.8427 28.0077 27.017 27.9729 27.1794 27.9052C27.3419 27.8375 27.4894 27.7383 27.6133 27.6133C27.7383 27.4894 27.8375 27.3419 27.9052 27.1794C27.9729 27.017 28.0077 26.8427 28.0077 26.6667C28.0077 26.4907 27.9729 26.3164 27.9052 26.1539C27.8375 25.9914 27.7383 25.844 27.6133 25.72V25.72ZM6.66667 14.6667C6.66667 13.0844 7.13586 11.5377 8.01491 10.2221C8.89397 8.90652 10.1434 7.88114 11.6052 7.27564C13.067 6.67013 14.6755 6.51171 16.2274 6.82039C17.7792 7.12907 19.2047 7.891 20.3235 9.00982C21.4423 10.1286 22.2043 11.5541 22.513 13.1059C22.8216 14.6578 22.6632 16.2663 22.0577 17.7281C21.4522 19.1899 20.4268 20.4394 19.1112 21.3184C17.7956 22.1975 16.2489 22.6667 14.6667 22.6667C12.5449 22.6667 10.5101 21.8238 9.00982 20.3235C7.50953 18.8232 6.66667 16.7884 6.66667 14.6667Z" fill="#222122"/>
<path d="M89.334 9.33366H85.334V8.00033C85.334 6.58584 84.7721 5.22928 83.7719 4.22909C82.7717 3.2289 81.4151 2.66699 80.0007 2.66699C78.5862 2.66699 77.2296 3.2289 76.2294 4.22909C75.2292 5.22928 74.6673 6.58584 74.6673 8.00033V9.33366H70.6673C70.3137 9.33366 69.9746 9.47413 69.7245 9.72418C69.4745 9.97423 69.334 10.3134 69.334 10.667V25.3337C69.334 26.3945 69.7554 27.4119 70.5056 28.1621C71.2557 28.9122 72.2731 29.3337 73.334 29.3337H86.6673C87.7282 29.3337 88.7456 28.9122 89.4957 28.1621C90.2459 27.4119 90.6673 26.3945 90.6673 25.3337V10.667C90.6673 10.3134 90.5268 9.97423 90.2768 9.72418C90.0267 9.47413 89.6876 9.33366 89.334 9.33366ZM77.334 8.00033C77.334 7.29308 77.6149 6.6148 78.115 6.11471C78.6151 5.61461 79.2934 5.33366 80.0007 5.33366C80.7079 5.33366 81.3862 5.61461 81.8863 6.11471C82.3864 6.6148 82.6673 7.29308 82.6673 8.00033V9.33366H77.334V8.00033ZM88.0007 25.3337C88.0007 25.6873 87.8602 26.0264 87.6101 26.2765C87.3601 26.5265 87.0209 26.667 86.6673 26.667H73.334C72.9804 26.667 72.6412 26.5265 72.3912 26.2765C72.1411 26.0264 72.0007 25.6873 72.0007 25.3337V12.0003H74.6673V13.3337C74.6673 13.6873 74.8078 14.0264 75.0578 14.2765C75.3079 14.5265 75.647 14.667 76.0007 14.667C76.3543 14.667 76.6934 14.5265 76.9435 14.2765C77.1935 14.0264 77.334 13.6873 77.334 13.3337V12.0003H82.6673V13.3337C82.6673 13.6873 82.8078 14.0264 83.0578 14.2765C83.3079 14.5265 83.647 14.667 84.0007 14.667C84.3543 14.667 84.6934 14.5265 84.9435 14.2765C85.1935 14.0264 85.334 13.6873 85.334 13.3337V12.0003H88.0007V25.3337Z" fill="#222122"/>
</svg>
