<svg width="80" height="48" viewBox="0 0 80 48" fill="none" xmlns="http://www.w3.org/2000/svg">
<rect width="80" height="48" fill="#FAFAFA"/>
<path d="M26.4998 24.1999C26.4998 23.7892 26.6578 23.3954 26.9391 23.105C27.2204 22.8146 27.602 22.6515 27.9998 22.6515L48.3848 22.6515L46.4348 20.6541C46.1523 20.3625 45.9937 19.9671 45.9937 19.5547C45.9937 19.1424 46.1523 18.7469 46.4348 18.4554C46.7172 18.1638 47.1003 18 47.4998 18C47.8992 18 48.2823 18.1638 48.5648 18.4554L53.0648 23.1005C53.2729 23.3183 53.4139 23.5948 53.47 23.8951C53.526 24.1955 53.4947 24.5063 53.3798 24.7883C53.2673 25.071 53.0762 25.3131 52.8306 25.4839C52.585 25.6548 52.2959 25.7467 51.9998 25.7483L27.9998 25.7483C27.602 25.7483 27.2204 25.5851 26.9391 25.2948C26.6578 25.0044 26.4998 24.6105 26.4998 24.1999Z" fill="#67C6B3"/>
<path d="M45.9997 28.8454C45.9986 28.6416 46.0364 28.4396 46.1111 28.251C46.1857 28.0623 46.2957 27.8907 46.4347 27.746L50.9347 23.1009C51.2172 22.8093 51.6003 22.6455 51.9997 22.6455C52.1975 22.6455 52.3934 22.6857 52.5761 22.7639C52.7588 22.842 52.9249 22.9565 53.0647 23.1009C53.2046 23.2452 53.3155 23.4166 53.3912 23.6053C53.4669 23.7939 53.5059 23.9961 53.5059 24.2002C53.5059 24.6126 53.3472 25.008 53.0647 25.2996L48.5647 29.9447C48.4253 30.0899 48.2594 30.2051 48.0766 30.2837C47.8938 30.3623 47.6977 30.4028 47.4997 30.4028C47.3017 30.4028 47.1056 30.3623 46.9229 30.2837C46.7401 30.2051 46.5742 30.0899 46.4347 29.9447C46.2957 29.8001 46.1857 29.6285 46.1111 29.4398C46.0364 29.2512 45.9986 29.0492 45.9997 28.8454Z" fill="#67C6B3"/>
</svg>
