<svg width="60" height="60" viewBox="0 0 60 60" fill="none" xmlns="http://www.w3.org/2000/svg">
<rect width="60" height="60" fill="#615E5B" fill-opacity="0.1"/>
<path d="M41.4569 25.6686C41.1569 24.2623 40.6694 23.0998 39.8069 22.1811C38.5881 20.8311 36.9944 20.1748 35.1006 20.1748H34.8569C32.8506 20.2311 31.2006 21.0373 30.0381 22.4998C29.6069 22.0123 29.0631 21.5248 28.4444 21.1498C27.2256 20.4186 25.8194 20.1186 24.2256 20.2311C22.4631 20.4186 21.0569 21.2061 20.0069 22.4998C18.9006 23.9623 18.3569 25.6123 18.4131 27.3186C18.4694 28.9123 18.9569 30.3748 19.8756 31.7811C20.9069 33.3748 22.2006 34.5936 23.3631 35.5686C25.0131 37.0311 26.9069 38.3248 29.2881 39.6561C29.5319 39.7873 29.7194 39.8436 29.9631 39.8436C30.2069 39.8436 30.3944 39.7873 30.6381 39.6561C32.7194 38.4936 34.5381 37.2748 36.1881 35.8686C37.8944 34.4623 39.1131 33.1123 40.0881 31.6498C41.4006 29.7561 41.8131 27.8061 41.4569 25.6686Z" fill="#615E5B"/>
</svg>
