<svg width="96" height="32" viewBox="0 0 96 32" fill="none" xmlns="http://www.w3.org/2000/svg">
<path d="M27.6133 25.72L23.08 21.2C24.5427 19.3366 25.3363 17.0355 25.3333 14.6667C25.3333 12.557 24.7077 10.4947 23.5357 8.74059C22.3636 6.98646 20.6977 5.61929 18.7486 4.81196C16.7995 4.00462 14.6548 3.79339 12.5857 4.20496C10.5166 4.61654 8.61596 5.63244 7.1242 7.1242C5.63244 8.61596 4.61654 10.5166 4.20496 12.5857C3.79339 14.6548 4.00462 16.7995 4.81196 18.7486C5.61929 20.6977 6.98646 22.3636 8.74059 23.5357C10.4947 24.7077 12.557 25.3333 14.6667 25.3333C17.0355 25.3363 19.3366 24.5427 21.2 23.08L25.72 27.6133C25.844 27.7383 25.9914 27.8375 26.1539 27.9052C26.3164 27.9729 26.4907 28.0077 26.6667 28.0077C26.8427 28.0077 27.017 27.9729 27.1794 27.9052C27.3419 27.8375 27.4894 27.7383 27.6133 27.6133C27.7383 27.4894 27.8375 27.3419 27.9052 27.1794C27.9729 27.017 28.0077 26.8427 28.0077 26.6667C28.0077 26.4907 27.9729 26.3164 27.9052 26.1539C27.8375 25.9914 27.7383 25.844 27.6133 25.72V25.72ZM6.66667 14.6667C6.66667 13.0844 7.13586 11.5377 8.01491 10.2221C8.89397 8.90652 10.1434 7.88114 11.6052 7.27564C13.067 6.67013 14.6755 6.51171 16.2274 6.82039C17.7792 7.12907 19.2047 7.891 20.3235 9.00982C21.4423 10.1286 22.2043 11.5541 22.513 13.1059C22.8216 14.6578 22.6632 16.2663 22.0577 17.7281C21.4522 19.1899 20.4268 20.4394 19.1112 21.3184C17.7956 22.1975 16.2489 22.6667 14.6667 22.6667C12.5449 22.6667 10.5101 21.8238 9.00982 20.3235C7.50953 18.8232 6.66667 16.7884 6.66667 14.6667Z" fill="#222122"/>
<path d="M89.3335 9.33268H85.3335V7.99935C85.3335 6.58486 84.7716 5.22831 83.7714 4.22811C82.7712 3.22792 81.4147 2.66602 80.0002 2.66602C78.5857 2.66602 77.2291 3.22792 76.2289 4.22811C75.2287 5.22831 74.6668 6.58486 74.6668 7.99935V9.33268H70.6668C70.3132 9.33268 69.9741 9.47316 69.724 9.72321C69.474 9.97325 69.3335 10.3124 69.3335 10.666V25.3327C69.3335 26.3935 69.7549 27.411 70.5051 28.1611C71.2552 28.9113 72.2726 29.3327 73.3335 29.3327H86.6668C87.7277 29.3327 88.7451 28.9113 89.4953 28.1611C90.2454 27.411 90.6668 26.3935 90.6668 25.3327V10.666C90.6668 10.3124 90.5264 9.97325 90.2763 9.72321C90.0263 9.47316 89.6871 9.33268 89.3335 9.33268ZM77.3335 7.99935C77.3335 7.2921 77.6144 6.61383 78.1145 6.11373C78.6146 5.61363 79.2929 5.33268 80.0002 5.33268C80.7074 5.33268 81.3857 5.61363 81.8858 6.11373C82.3859 6.61383 82.6668 7.2921 82.6668 7.99935V9.33268H77.3335V7.99935ZM88.0002 25.3327C88.0002 25.6863 87.8597 26.0254 87.6096 26.2755C87.3596 26.5255 87.0205 26.666 86.6668 26.666H73.3335C72.9799 26.666 72.6407 26.5255 72.3907 26.2755C72.1406 26.0254 72.0002 25.6863 72.0002 25.3327V11.9993H74.6668V13.3327C74.6668 13.6863 74.8073 14.0254 75.0574 14.2755C75.3074 14.5255 75.6465 14.666 76.0002 14.666C76.3538 14.666 76.6929 14.5255 76.943 14.2755C77.193 14.0254 77.3335 13.6863 77.3335 13.3327V11.9993H82.6668V13.3327C82.6668 13.6863 82.8073 14.0254 83.0574 14.2755C83.3074 14.5255 83.6465 14.666 84.0002 14.666C84.3538 14.666 84.6929 14.5255 84.943 14.2755C85.193 14.0254 85.3335 13.6863 85.3335 13.3327V11.9993H88.0002V25.3327Z" fill="#222122"/>
</svg>
