<svg width="168" height="40" viewBox="0 0 168 40" fill="none" xmlns="http://www.w3.org/2000/svg">
<path d="M28.9002 9.10065C28.5046 9.10065 28.1179 9.21795 27.789 9.43771C27.4601 9.65748 27.2038 9.96983 27.0524 10.3353C26.901 10.7007 26.8614 11.1029 26.9386 11.4908C27.0158 11.8788 27.2062 12.2352 27.486 12.5149C27.7657 12.7946 28.122 12.9851 28.51 13.0622C28.8979 13.1394 29.3001 13.0998 29.6655 12.9484C30.031 12.797 30.3433 12.5407 30.5631 12.2118C30.7829 11.8829 30.9002 11.4962 30.9002 11.1007C30.9002 10.5702 30.6895 10.0615 30.3144 9.68644C29.9393 9.31137 29.4306 9.10065 28.9002 9.10065V9.10065ZM36.5668 13.134C36.5344 11.7511 36.2754 10.383 35.8002 9.08398C35.3764 7.97254 34.7168 6.96612 33.8668 6.13398C33.0415 5.27969 32.0328 4.62428 30.9168 4.21732C29.6213 3.72759 28.2516 3.46267 26.8668 3.43398C25.1002 3.33398 24.5335 3.33398 20.0002 3.33398C15.4668 3.33398 14.9002 3.33398 13.1335 3.43398C11.7488 3.46267 10.3791 3.72759 9.0835 4.21732C7.96962 4.6284 6.96172 5.28325 6.1335 6.13398C5.27921 6.95928 4.62379 7.96805 4.21683 9.08398C3.7271 10.3796 3.46218 11.7492 3.4335 13.134C3.3335 14.9007 3.3335 15.4673 3.3335 20.0007C3.3335 24.534 3.3335 25.1007 3.4335 26.8673C3.46218 28.2521 3.7271 29.6217 4.21683 30.9173C4.62379 32.0333 5.27921 33.042 6.1335 33.8673C6.96172 34.7181 7.96962 35.3729 9.0835 35.784C10.3791 36.2737 11.7488 36.5386 13.1335 36.5673C14.9002 36.6673 15.4668 36.6673 20.0002 36.6673C24.5335 36.6673 25.1002 36.6673 26.8668 36.5673C28.2516 36.5386 29.6213 36.2737 30.9168 35.784C32.0328 35.377 33.0415 34.7216 33.8668 33.8673C34.7206 33.0383 35.3807 32.031 35.8002 30.9173C36.2754 29.6183 36.5344 28.2502 36.5668 26.8673C36.5668 25.1007 36.6668 24.534 36.6668 20.0007C36.6668 15.4673 36.6668 14.9007 36.5668 13.134V13.134ZM33.5668 26.6673C33.5547 27.7253 33.3631 28.7735 33.0002 29.7673C32.7341 30.4926 32.3066 31.148 31.7502 31.684C31.2096 32.2348 30.5555 32.6614 29.8335 32.934C28.8397 33.2969 27.7915 33.4885 26.7335 33.5007C25.0668 33.584 24.4502 33.6007 20.0668 33.6007C15.6835 33.6007 15.0668 33.6007 13.4002 33.5007C12.3016 33.5212 11.2078 33.3521 10.1668 33.0007C9.47647 32.7141 8.85242 32.2886 8.3335 31.7507C7.78031 31.2152 7.35824 30.5593 7.10016 29.834C6.69326 28.8259 6.46757 27.7539 6.4335 26.6673C6.4335 25.0007 6.3335 24.384 6.3335 20.0007C6.3335 15.6173 6.3335 15.0007 6.4335 13.334C6.44097 12.2524 6.63841 11.1806 7.01683 10.1673C7.31024 9.46384 7.7606 8.83675 8.3335 8.33398C8.83985 7.76093 9.46564 7.30581 10.1668 7.00065C11.1827 6.63406 12.2535 6.44245 13.3335 6.43398C15.0002 6.43398 15.6168 6.33398 20.0002 6.33398C24.3835 6.33398 25.0002 6.33398 26.6668 6.43398C27.7248 6.44612 28.773 6.63773 29.7668 7.00065C30.5242 7.28174 31.204 7.73873 31.7502 8.33398C32.2963 8.84595 32.7231 9.47187 33.0002 10.1673C33.3706 11.1822 33.5623 12.2536 33.5668 13.334C33.6502 15.0007 33.6668 15.6173 33.6668 20.0007C33.6668 24.384 33.6502 25.0007 33.5668 26.6673ZM20.0002 11.4507C18.3098 11.4539 16.6584 11.9582 15.2546 12.8997C13.8507 13.8412 12.7575 15.1776 12.1129 16.7402C11.4683 18.3028 11.3014 20.0214 11.6332 21.6789C11.9649 23.3363 12.7806 24.8582 13.977 26.0523C15.1734 27.2464 16.6968 28.059 18.3549 28.3876C20.013 28.7161 21.7313 28.5458 23.2926 27.8982C24.8539 27.2506 26.1883 26.1547 27.127 24.749C28.0658 23.3434 28.5668 21.691 28.5668 20.0007C28.569 18.8758 28.3488 17.7617 27.9189 16.7222C27.489 15.6828 26.8578 14.7387 26.0616 13.9441C25.2655 13.1495 24.3201 12.5201 23.2798 12.0922C22.2396 11.6643 21.125 11.4463 20.0002 11.4507V11.4507ZM20.0002 25.5507C18.9025 25.5507 17.8294 25.2252 16.9167 24.6153C16.0041 24.0055 15.2927 23.1387 14.8726 22.1245C14.4526 21.1104 14.3427 19.9945 14.5568 18.9179C14.771 17.8413 15.2995 16.8524 16.0757 16.0762C16.8519 15.3 17.8408 14.7714 18.9174 14.5573C19.994 14.3431 21.1099 14.4531 22.1241 14.8731C23.1382 15.2932 24.005 16.0045 24.6148 16.9172C25.2247 17.8299 25.5502 18.903 25.5502 20.0007C25.5502 20.7295 25.4066 21.4512 25.1277 22.1245C24.8488 22.7979 24.44 23.4097 23.9246 23.9251C23.4092 24.4405 22.7974 24.8493 22.1241 25.1282C21.4507 25.4071 20.729 25.5507 20.0002 25.5507V25.5507Z" fill="#67C6B3"/>
<path d="M78.1835 33.3332H78.0502C75.3641 33.3097 72.7169 32.6892 70.3002 31.5165C69.8556 31.3077 69.4896 30.9621 69.2557 30.5302C69.0217 30.0984 68.9322 29.603 69.0002 29.1165C69.0741 28.6268 69.3008 28.173 69.648 27.8198C69.9952 27.4666 70.4451 27.2321 70.9335 27.1499C72.4312 26.9501 73.872 26.4452 75.1668 25.6665C72.9188 23.9089 71.1881 21.5758 70.1582 18.9145C69.1283 16.2533 68.8376 13.3629 69.3168 10.5499C69.3818 10.1043 69.5734 9.68676 69.8689 9.34697C70.1644 9.00718 70.5512 8.75943 70.9835 8.6332C71.404 8.50114 71.8541 8.49549 72.2778 8.61697C72.7015 8.73846 73.0802 8.98171 73.3668 9.31654C74.3402 10.5928 75.5633 11.6575 76.9617 12.4455C78.36 13.2335 79.9042 13.7283 81.5002 13.8999C81.5764 11.9363 82.4202 10.0811 83.8502 8.7332C84.5642 8.04949 85.4071 7.51472 86.3298 7.16005C87.2526 6.80538 88.2367 6.6379 89.2248 6.66737C90.213 6.69685 91.1853 6.92268 92.0853 7.33172C92.9853 7.74076 93.7948 8.32482 94.4668 9.04987C94.6419 9.20465 94.8594 9.30329 95.0912 9.33301C95.323 9.36272 95.5584 9.32215 95.7668 9.21654C96.1642 9.02912 96.6067 8.95856 97.0427 9.01311C97.4786 9.06766 97.8901 9.24506 98.2291 9.52461C98.568 9.80417 98.8205 10.1743 98.957 10.592C99.0936 11.0096 99.1085 11.4574 99.0002 11.8832C98.6157 13.4667 97.8874 14.9462 96.8668 16.2165C96.6419 20.9578 94.5516 25.4178 91.0517 28.6242C87.5519 31.8306 82.9263 33.5233 78.1835 33.3332V33.3332ZM78.1835 29.9999H78.3168C80.2546 30.0665 82.1863 29.7478 84 29.0623C85.8137 28.3768 87.4733 27.3381 88.8825 26.0063C90.2918 24.6746 91.4227 23.0764 92.2096 21.3044C92.9965 19.5323 93.4238 17.6217 93.4668 15.6832C93.4943 15.152 93.7134 14.6487 94.0835 14.2665C94.49 13.7519 94.8367 13.1928 95.1168 12.5999C94.5164 12.601 93.9225 12.4754 93.374 12.2313C92.8254 11.9872 92.3345 11.63 91.9335 11.1832C91.5478 10.8008 91.0897 10.4992 90.5861 10.296C90.0824 10.0928 89.5432 9.99212 89.0002 9.99987C88.4517 9.98569 87.9058 10.08 87.3938 10.2773C86.8818 10.4747 86.4139 10.7712 86.0168 11.1499C85.4811 11.6582 85.0883 12.2983 84.8777 13.0061C84.6671 13.714 84.6461 14.4647 84.8168 15.1832L85.2502 17.0832L83.3002 17.2165C81.302 17.3795 79.2923 17.1061 77.4102 16.4155C75.5281 15.7248 73.8186 14.6333 72.4002 13.2165C72.3393 15.4105 72.8882 17.5784 73.9856 19.4792C75.0831 21.3799 76.6863 22.939 78.6168 23.9832L80.2002 24.8832L79.1502 26.3832C78.0146 27.8724 76.4588 28.987 74.6835 29.5832C75.8223 29.8686 76.9928 30.0087 78.1668 29.9999H78.1835Z" fill="#67C6B3"/>
<path d="M162.833 3.33398H133.167C132.681 3.33398 132.214 3.52714 131.87 3.87096C131.527 4.21477 131.333 4.68109 131.333 5.16732V34.834C131.333 35.0747 131.381 35.3131 131.473 35.5356C131.565 35.758 131.7 35.9601 131.87 36.1303C132.041 36.3006 132.243 36.4356 132.465 36.5278C132.688 36.6199 132.926 36.6673 133.167 36.6673H149.133V23.7507H144.8V18.7507H149.133V15.0007C149.044 14.1202 149.148 13.2309 149.438 12.3949C149.728 11.5589 150.198 10.7966 150.814 10.1613C151.43 9.52611 152.178 9.03339 153.005 8.71771C153.832 8.40204 154.717 8.27107 155.6 8.33398C156.897 8.326 158.194 8.39278 159.483 8.53398V13.034H156.833C154.733 13.034 154.333 14.034 154.333 15.484V18.7007H159.333L158.683 23.7007H154.333V36.6673H162.833C163.074 36.6673 163.313 36.6199 163.535 36.5278C163.758 36.4356 163.96 36.3006 164.13 36.1303C164.3 35.9601 164.435 35.758 164.527 35.5356C164.619 35.3131 164.667 35.0747 164.667 34.834V5.16732C164.667 4.92656 164.619 4.68816 164.527 4.46573C164.435 4.2433 164.3 4.0412 164.13 3.87096C163.96 3.70071 163.758 3.56567 163.535 3.47354C163.313 3.38141 163.074 3.33398 162.833 3.33398V3.33398Z" fill="#67C6B3"/>
</svg>
