<svg width="60" height="60" viewBox="0 0 60 60" fill="none" xmlns="http://www.w3.org/2000/svg">
<rect width="60" height="60" fill="#615E5B" fill-opacity="0.1"/>
<path d="M41.4569 25.6695C41.1569 24.2633 40.6694 23.1008 39.8069 22.182C38.5881 20.832 36.9944 20.1758 35.1006 20.1758H34.8569C32.8506 20.232 31.2006 21.0383 30.0381 22.5008C29.6069 22.0133 29.0631 21.5258 28.4444 21.1508C27.2256 20.4195 25.8194 20.1195 24.2256 20.232C22.4631 20.4195 21.0569 21.207 20.0069 22.5008C18.9006 23.9633 18.3569 25.6133 18.4131 27.3195C18.4694 28.9133 18.9569 30.3758 19.8756 31.782C20.9069 33.3758 22.2006 34.5945 23.3631 35.5695C25.0131 37.032 26.9069 38.3258 29.2881 39.657C29.5319 39.7883 29.7194 39.8445 29.9631 39.8445C30.2069 39.8445 30.3944 39.7883 30.6381 39.657C32.7194 38.4945 34.5381 37.2758 36.1881 35.8695C37.8944 34.4633 39.1131 33.1133 40.0881 31.6508C41.4006 29.757 41.8131 27.807 41.4569 25.6695Z" fill="#615E5B"/>
</svg>
