<svg width="80" height="48" viewBox="0 0 80 48" fill="none" xmlns="http://www.w3.org/2000/svg">
<rect width="80" height="48" fill="#FAFAFA"/>
<path d="M53.5 24.1999C53.5 23.7892 53.3419 23.3954 53.0606 23.105C52.7793 22.8146 52.3978 22.6515 52 22.6515L31.615 22.6515L33.565 20.6541C33.8474 20.3625 34.0061 19.9671 34.0061 19.5547C34.0061 19.1424 33.8474 18.7469 33.565 18.4554C33.2825 18.1638 32.8994 18 32.5 18C32.1005 18 31.7174 18.1638 31.435 18.4554L26.935 23.1005C26.7268 23.3183 26.5858 23.5948 26.5298 23.8951C26.4737 24.1955 26.5051 24.5063 26.62 24.7883C26.7325 25.071 26.9236 25.3131 27.1692 25.4839C27.4148 25.6548 27.7038 25.7467 28 25.7483L52 25.7483C52.3978 25.7483 52.7793 25.5851 53.0606 25.2948C53.3419 25.0044 53.5 24.6105 53.5 24.1999Z" fill="#E4E0DA"/>
<path d="M34 28.8454C34.0012 28.6416 33.9633 28.4396 33.8887 28.2509C33.814 28.0623 33.7041 27.8907 33.565 27.746L29.065 23.1009C28.7826 22.8093 28.3995 22.6455 28 22.6455C27.8022 22.6455 27.6064 22.6857 27.4237 22.7639C27.2409 22.842 27.0749 22.9565 26.935 23.1009C26.7952 23.2452 26.6842 23.4166 26.6085 23.6053C26.5329 23.7939 26.4939 23.9961 26.4939 24.2002C26.4939 24.6126 26.6526 25.008 26.935 25.2996L31.435 29.9447C31.5745 30.0899 31.7404 30.2051 31.9232 30.2837C32.106 30.3623 32.302 30.4028 32.5 30.4028C32.6981 30.4028 32.8941 30.3623 33.0769 30.2837C33.2597 30.2051 33.4256 30.0899 33.565 29.9447C33.7041 29.8001 33.814 29.6285 33.8887 29.4398C33.9633 29.2512 34.0012 29.0492 34 28.8454Z" fill="#E4E0DA"/>
</svg>
