<svg width="64" height="64" viewBox="0 0 64 64" fill="none" xmlns="http://www.w3.org/2000/svg">
<path d="M17.3333 50.667H7.33325C6.22925 50.667 5.33325 49.771 5.33325 48.667C5.33325 47.563 6.22925 46.667 7.33325 46.667H17.3333C18.4373 46.667 19.3333 47.563 19.3333 48.667C19.3333 49.771 18.4373 50.667 17.3333 50.667ZM37.3333 50.667H27.9999C26.8959 50.667 25.9999 49.771 25.9999 48.667C25.9999 47.563 26.8959 46.667 27.9999 46.667H35.7173L40.8613 22.667H12.6666C11.5626 22.667 10.6666 21.771 10.6666 20.667C10.6666 19.563 11.5626 18.667 12.6666 18.667H43.3333C43.9386 18.667 44.5093 18.9417 44.8879 19.4083C45.2693 19.8803 45.4159 20.4937 45.2879 21.0857L39.2879 49.0857C39.0906 50.0083 38.2773 50.667 37.3333 50.667V50.667Z" fill="#67C6B3"/>
<path d="M59.9998 50.667H57.3332C56.2292 50.667 55.3332 49.771 55.3332 48.667C55.3332 47.563 56.2292 46.667 57.3332 46.667H58.3838L59.9972 39.1337C59.8905 34.4457 56.0452 30.667 51.3332 30.667H43.2345L39.8052 46.667H46.6665C47.7705 46.667 48.6665 47.563 48.6665 48.667C48.6665 49.771 47.7705 50.667 46.6665 50.667H37.3332C36.7278 50.667 36.1572 50.3923 35.7785 49.9257C35.3972 49.4537 35.2505 48.8403 35.3785 48.2483L39.6638 28.2483C39.8612 27.3257 40.6745 26.667 41.6185 26.667H51.3332C58.3172 26.667 63.9998 32.3497 63.9998 39.3337C63.9998 39.475 63.9865 39.6137 63.9545 39.7523L61.9545 49.0857C61.7572 50.0083 60.9438 50.667 59.9998 50.667Z" fill="#67C6B3"/>
<path d="M52 56C48.3253 56 45.3333 53.0107 45.3333 49.3333C45.3333 45.656 48.3253 42.6667 52 42.6667C55.6747 42.6667 58.6667 45.656 58.6667 49.3333C58.6667 53.0107 55.6747 56 52 56ZM52 46.6667C50.5307 46.6667 49.3333 47.8613 49.3333 49.3333C49.3333 50.8053 50.5307 52 52 52C53.4693 52 54.6667 50.8053 54.6667 49.3333C54.6667 47.8613 53.4693 46.6667 52 46.6667ZM22.6667 56C18.992 56 16 53.0107 16 49.3333C16 45.656 18.992 42.6667 22.6667 42.6667C26.3413 42.6667 29.3333 45.656 29.3333 49.3333C29.3333 53.0107 26.3413 56 22.6667 56ZM22.6667 46.6667C21.1973 46.6667 20 47.8613 20 49.3333C20 50.8053 21.1973 52 22.6667 52C24.136 52 25.3333 50.8053 25.3333 49.3333C25.3333 47.8613 24.136 46.6667 22.6667 46.6667ZM16.6667 28H7.33333C6.22933 28 5.33333 27.104 5.33333 26C5.33333 24.896 6.22933 24 7.33333 24H16.6667C17.7707 24 18.6667 24.896 18.6667 26C18.6667 27.104 17.7707 28 16.6667 28ZM16.6667 36H4.66667C3.56267 36 2.66667 35.104 2.66667 34C2.66667 32.896 3.56267 32 4.66667 32H16.6667C17.7707 32 18.6667 32.896 18.6667 34C18.6667 35.104 17.7707 36 16.6667 36ZM16.6667 44H2C0.896 44 0 43.104 0 42C0 40.896 0.896 40 2 40H16.6667C17.7707 40 18.6667 40.896 18.6667 42C18.6667 43.104 17.7707 44 16.6667 44Z" fill="#67C6B3"/>
</svg>
