<svg width="112" height="48" viewBox="0 0 112 48" fill="none" xmlns="http://www.w3.org/2000/svg">
<path d="M37.5002 24.1999C37.5002 23.7892 37.3422 23.3954 37.0609 23.105C36.7796 22.8146 36.398 22.6515 36.0002 22.6515L15.6152 22.6515L17.5652 20.6541C17.8477 20.3625 18.0063 19.9671 18.0063 19.5547C18.0063 19.1424 17.8477 18.7469 17.5652 18.4554C17.2828 18.1638 16.8997 18 16.5002 18C16.1008 18 15.7177 18.1638 15.4352 18.4554L10.9352 23.1005C10.7271 23.3183 10.5861 23.5948 10.53 23.8951C10.474 24.1955 10.5053 24.5063 10.6202 24.7883C10.7327 25.071 10.9238 25.3131 11.1694 25.4839C11.415 25.6548 11.7041 25.7467 12.0002 25.7483L36.0002 25.7483C36.398 25.7483 36.7796 25.5851 37.0609 25.2948C37.3422 25.0044 37.5002 24.6105 37.5002 24.1999Z" fill="#E4E0DA"/>
<path d="M17.9998 28.8454C18.0009 28.6416 17.9631 28.4396 17.8884 28.2509C17.8138 28.0623 17.7038 27.8907 17.5648 27.746L13.0648 23.1009C12.7823 22.8093 12.3992 22.6455 11.9998 22.6455C11.802 22.6455 11.6061 22.6857 11.4234 22.7639C11.2407 22.842 11.0746 22.9565 10.9348 23.1009C10.7949 23.2452 10.684 23.4166 10.6083 23.6053C10.5326 23.7939 10.4937 23.9961 10.4937 24.2002C10.4937 24.6126 10.6523 25.008 10.9348 25.2996L15.4348 29.9447C15.5742 30.0899 15.7401 30.2051 15.9229 30.2837C16.1057 30.3623 16.3018 30.4028 16.4998 30.4028C16.6978 30.4028 16.8939 30.3623 17.0767 30.2837C17.2594 30.2051 17.4253 30.0899 17.5648 29.9447C17.7038 29.8001 17.8138 29.6285 17.8884 29.4398C17.9631 29.2512 18.0009 29.0492 17.9998 28.8454Z" fill="#E4E0DA"/>
<path d="M74.5003 24.1999C74.5003 23.7892 74.6583 23.3954 74.9396 23.105C75.2209 22.8146 75.6025 22.6515 76.0003 22.6515L96.3853 22.6515L94.4353 20.6541C94.1528 20.3625 93.9941 19.9671 93.9941 19.5547C93.9941 19.1424 94.1528 18.7469 94.4353 18.4554C94.7177 18.1638 95.1008 18 95.5003 18C95.8997 18 96.2828 18.1638 96.5653 18.4554L101.065 23.1005C101.273 23.3183 101.414 23.5948 101.47 23.8951C101.527 24.1955 101.495 24.5063 101.38 24.7883C101.268 25.071 101.077 25.3131 100.831 25.4839C100.585 25.6548 100.296 25.7467 100 25.7483L76.0003 25.7483C75.6025 25.7483 75.2209 25.5851 74.9396 25.2948C74.6583 25.0044 74.5003 24.6105 74.5003 24.1999Z" fill="#67C6B3"/>
<path d="M93.9997 28.8454C93.9986 28.6416 94.0364 28.4396 94.1111 28.251C94.1857 28.0623 94.2957 27.8907 94.4347 27.746L98.9347 23.1009C99.2172 22.8093 99.6003 22.6455 99.9997 22.6455C100.198 22.6455 100.393 22.6857 100.576 22.7639C100.759 22.842 100.925 22.9565 101.065 23.1009C101.205 23.2452 101.316 23.4166 101.391 23.6053C101.467 23.7939 101.506 23.9961 101.506 24.2002C101.506 24.6126 101.347 25.008 101.065 25.2996L96.5647 29.9447C96.4253 30.0899 96.2594 30.2051 96.0766 30.2837C95.8938 30.3623 95.6977 30.4028 95.4997 30.4028C95.3017 30.4028 95.1056 30.3623 94.9229 30.2837C94.7401 30.2051 94.5742 30.0899 94.4347 29.9447C94.2957 29.8001 94.1857 29.6285 94.1111 29.4398C94.0364 29.2512 93.9986 29.0492 93.9997 28.8454Z" fill="#67C6B3"/>
</svg>
