<svg width="32" height="32" viewBox="0 0 32 32" fill="none" xmlns="http://www.w3.org/2000/svg">
<path d="M19.9996 15.9998C20.0006 16.1752 19.967 16.3492 19.9006 16.5116C19.8343 16.6741 19.7365 16.8218 19.6129 16.9464L14.2796 22.2798C14.0285 22.5308 13.688 22.6719 13.3329 22.6719C12.9779 22.6719 12.6373 22.5308 12.3863 22.2798C12.1352 22.0287 11.9941 21.6882 11.9941 21.3331C11.9941 20.978 12.1352 20.6375 12.3863 20.3864L16.7863 15.9998L12.3996 11.6131C12.1812 11.358 12.067 11.0299 12.08 10.6943C12.0929 10.3588 12.2321 10.0405 12.4695 9.803C12.707 9.56554 13.0253 9.42643 13.3609 9.41347C13.6964 9.40051 14.0245 9.51465 14.2796 9.73309L19.6129 15.0664C19.8593 15.3148 19.9981 15.65 19.9996 15.9998Z" fill="#222122"/>
</svg>
