<svg width="168" height="40" viewBox="0 0 168 40" fill="none" xmlns="http://www.w3.org/2000/svg">
<path d="M28.8999 9.10065C28.5044 9.10065 28.1177 9.21795 27.7888 9.43771C27.4599 9.65748 27.2035 9.96983 27.0522 10.3353C26.9008 10.7007 26.8612 11.1029 26.9383 11.4908C27.0155 11.8788 27.206 12.2352 27.4857 12.5149C27.7654 12.7946 28.1218 12.9851 28.5097 13.0622C28.8977 13.1394 29.2998 13.0998 29.6653 12.9484C30.0307 12.797 30.3431 12.5407 30.5629 12.2118C30.7826 11.8829 30.8999 11.4962 30.8999 11.1007C30.8999 10.5702 30.6892 10.0615 30.3141 9.68644C29.9391 9.31137 29.4304 9.10065 28.8999 9.10065V9.10065ZM36.5666 13.134C36.5342 11.7511 36.2752 10.383 35.7999 9.08398C35.3761 7.97254 34.7166 6.96612 33.8666 6.13398C33.0413 5.27969 32.0325 4.62428 30.9166 4.21732C29.621 3.72759 28.2513 3.46267 26.8666 3.43398C25.0999 3.33398 24.5333 3.33398 19.9999 3.33398C15.4666 3.33398 14.8999 3.33398 13.1333 3.43398C11.7485 3.46267 10.3788 3.72759 9.08325 4.21732C7.96938 4.6284 6.96148 5.28325 6.13325 6.13398C5.27896 6.95928 4.62355 7.96805 4.21659 9.08398C3.72685 10.3796 3.46194 11.7492 3.43325 13.134C3.33325 14.9007 3.33325 15.4673 3.33325 20.0007C3.33325 24.534 3.33325 25.1007 3.43325 26.8673C3.46194 28.2521 3.72685 29.6217 4.21659 30.9173C4.62355 32.0333 5.27896 33.042 6.13325 33.8673C6.96148 34.7181 7.96938 35.3729 9.08325 35.784C10.3788 36.2737 11.7485 36.5386 13.1333 36.5673C14.8999 36.6673 15.4666 36.6673 19.9999 36.6673C24.5333 36.6673 25.0999 36.6673 26.8666 36.5673C28.2513 36.5386 29.621 36.2737 30.9166 35.784C32.0325 35.377 33.0413 34.7216 33.8666 33.8673C34.7203 33.0383 35.3805 32.031 35.7999 30.9173C36.2752 29.6183 36.5342 28.2502 36.5666 26.8673C36.5666 25.1007 36.6666 24.534 36.6666 20.0007C36.6666 15.4673 36.6666 14.9007 36.5666 13.134V13.134ZM33.5666 26.6673C33.5545 27.7253 33.3628 28.7735 32.9999 29.7673C32.7338 30.4926 32.3064 31.148 31.7499 31.684C31.2093 32.2348 30.5553 32.6614 29.8333 32.934C28.8394 33.2969 27.7912 33.4885 26.7333 33.5007C25.0666 33.584 24.4499 33.6007 20.0666 33.6007C15.6833 33.6007 15.0666 33.6007 13.3999 33.5007C12.3014 33.5212 11.2076 33.3521 10.1666 33.0007C9.47622 32.7141 8.85218 32.2886 8.33325 31.7507C7.78007 31.2152 7.35799 30.5593 7.09992 29.834C6.69301 28.8259 6.46732 27.7539 6.43325 26.6673C6.43325 25.0007 6.33325 24.384 6.33325 20.0007C6.33325 15.6173 6.33325 15.0007 6.43325 13.334C6.44072 12.2524 6.63817 11.1806 7.01659 10.1673C7.31 9.46384 7.76036 8.83675 8.33325 8.33398C8.83961 7.76093 9.4654 7.30581 10.1666 7.00065C11.1825 6.63406 12.2532 6.44245 13.3333 6.43398C14.9999 6.43398 15.6166 6.33398 19.9999 6.33398C24.3833 6.33398 24.9999 6.33398 26.6666 6.43398C27.7245 6.44612 28.7728 6.63773 29.7666 7.00065C30.524 7.28174 31.2037 7.73873 31.7499 8.33398C32.2961 8.84595 32.7229 9.47187 32.9999 10.1673C33.3703 11.1822 33.5621 12.2536 33.5666 13.334C33.6499 15.0007 33.6666 15.6173 33.6666 20.0007C33.6666 24.384 33.6499 25.0007 33.5666 26.6673ZM19.9999 11.4507C18.3096 11.4539 16.6582 11.9582 15.2543 12.8997C13.8505 13.8412 12.7572 15.1776 12.1126 16.7402C11.4681 18.3028 11.3011 20.0214 11.6329 21.6789C11.9647 23.3363 12.7803 24.8582 13.9767 26.0523C15.1731 27.2464 16.6966 28.059 18.3547 28.3876C20.0128 28.7161 21.731 28.5458 23.2924 27.8982C24.8537 27.2506 26.188 26.1547 27.1268 24.749C28.0656 23.3434 28.5666 21.691 28.5666 20.0007C28.5688 18.8758 28.3486 17.7617 27.9187 16.7222C27.4887 15.6828 26.8575 14.7387 26.0614 13.9441C25.2652 13.1495 24.3198 12.5201 23.2796 12.0922C22.2393 11.6643 21.1247 11.4463 19.9999 11.4507V11.4507ZM19.9999 25.5507C18.9022 25.5507 17.8292 25.2252 16.9165 24.6153C16.0038 24.0055 15.2925 23.1387 14.8724 22.1245C14.4523 21.1104 14.3424 19.9945 14.5566 18.9179C14.7707 17.8413 15.2993 16.8524 16.0755 16.0762C16.8517 15.3 17.8406 14.7714 18.9172 14.5573C19.9938 14.3431 21.1097 14.4531 22.1238 14.8731C23.1379 15.2932 24.0047 16.0045 24.6146 16.9172C25.2244 17.8299 25.5499 18.903 25.5499 20.0007C25.5499 20.7295 25.4064 21.4512 25.1275 22.1245C24.8485 22.7979 24.4397 23.4097 23.9244 23.9251C23.409 24.4405 22.7972 24.8493 22.1238 25.1282C21.4505 25.4071 20.7288 25.5507 19.9999 25.5507V25.5507Z" fill="#67C6B3"/>
<path d="M78.1832 33.3332H78.0499C75.3638 33.3097 72.7166 32.6892 70.2999 31.5165C69.8554 31.3077 69.4893 30.9621 69.2554 30.5302C69.0215 30.0984 68.932 29.603 68.9999 29.1165C69.0738 28.6268 69.3006 28.173 69.6478 27.8198C69.995 27.4666 70.4449 27.2321 70.9332 27.1499C72.4309 26.9501 73.8717 26.4452 75.1666 25.6665C72.9185 23.9089 71.1878 21.5758 70.1579 18.9145C69.1281 16.2533 68.8373 13.3629 69.3166 10.5499C69.3816 10.1043 69.5732 9.68676 69.8687 9.34697C70.1641 9.00718 70.551 8.75943 70.9832 8.6332C71.4038 8.50114 71.8538 8.49549 72.2775 8.61697C72.7012 8.73846 73.0799 8.98171 73.3666 9.31654C74.3399 10.5928 75.5631 11.6575 76.9614 12.4455C78.3598 13.2335 79.904 13.7283 81.4999 13.8999C81.5761 11.9363 82.42 10.0811 83.8499 8.7332C84.5639 8.04949 85.4068 7.51472 86.3296 7.16005C87.2523 6.80538 88.2365 6.6379 89.2246 6.66737C90.2127 6.69685 91.1851 6.92268 92.0851 7.33172C92.985 7.74076 93.7946 8.32482 94.4666 9.04987C94.6417 9.20465 94.8592 9.30329 95.091 9.33301C95.3227 9.36272 95.5581 9.32215 95.7666 9.21654C96.164 9.02912 96.6065 8.95856 97.0424 9.01311C97.4784 9.06766 97.8899 9.24506 98.2288 9.52461C98.5678 9.80417 98.8202 10.1743 98.9568 10.592C99.0933 11.0096 99.1083 11.4574 98.9999 11.8832C98.6155 13.4667 97.8871 14.9462 96.8666 16.2165C96.6416 20.9578 94.5513 25.4178 91.0515 28.6242C87.5516 31.8306 82.926 33.5233 78.1832 33.3332V33.3332ZM78.1832 29.9999H78.3166C80.2544 30.0665 82.1861 29.7478 83.9998 29.0623C85.8135 28.3768 87.4731 27.3381 88.8823 26.0063C90.2915 24.6746 91.4224 23.0764 92.2093 21.3044C92.9963 19.5323 93.4236 17.6217 93.4666 15.6832C93.4941 15.152 93.7132 14.6487 94.0832 14.2665C94.4897 13.7519 94.8364 13.1928 95.1166 12.5999C94.5162 12.601 93.9223 12.4754 93.3737 12.2313C92.8252 11.9872 92.3343 11.63 91.9332 11.1832C91.5476 10.8008 91.0895 10.4992 90.5858 10.296C90.0821 10.0928 89.543 9.99212 88.9999 9.99987C88.4514 9.98569 87.9055 10.08 87.3935 10.2773C86.8816 10.4747 86.4136 10.7712 86.0166 11.1499C85.4809 11.6582 85.0881 12.2983 84.8775 13.0061C84.6669 13.714 84.6459 14.4647 84.8166 15.1832L85.2499 17.0832L83.2999 17.2165C81.3017 17.3795 79.292 17.1061 77.4099 16.4155C75.5279 15.7248 73.8184 14.6333 72.3999 13.2165C72.3391 15.4105 72.8879 17.5784 73.9854 19.4792C75.0829 21.3799 76.686 22.939 78.6166 23.9832L80.1999 24.8832L79.1499 26.3832C78.0144 27.8724 76.4585 28.987 74.6832 29.5832C75.8221 29.8686 76.9925 30.0087 78.1666 29.9999H78.1832Z" fill="#67C6B3"/>
<path d="M162.833 3.33398H133.167C132.68 3.33398 132.214 3.52714 131.87 3.87096C131.526 4.21477 131.333 4.68109 131.333 5.16732V34.834C131.333 35.0747 131.381 35.3131 131.473 35.5356C131.565 35.758 131.7 35.9601 131.87 36.1303C132.04 36.3006 132.243 36.4356 132.465 36.5278C132.687 36.6199 132.926 36.6673 133.167 36.6673H149.133V23.7507H144.8V18.7507H149.133V15.0007C149.043 14.1202 149.147 13.2309 149.438 12.3949C149.728 11.5589 150.198 10.7966 150.814 10.1613C151.43 9.52611 152.178 9.03339 153.005 8.71771C153.831 8.40204 154.717 8.27107 155.6 8.33398C156.897 8.326 158.194 8.39278 159.483 8.53398V13.034H156.833C154.733 13.034 154.333 14.034 154.333 15.484V18.7007H159.333L158.683 23.7007H154.333V36.6673H162.833C163.074 36.6673 163.312 36.6199 163.535 36.5278C163.757 36.4356 163.959 36.3006 164.13 36.1303C164.3 35.9601 164.435 35.758 164.527 35.5356C164.619 35.3131 164.667 35.0747 164.667 34.834V5.16732C164.667 4.92656 164.619 4.68816 164.527 4.46573C164.435 4.2433 164.3 4.0412 164.13 3.87096C163.959 3.70071 163.757 3.56567 163.535 3.47354C163.312 3.38141 163.074 3.33398 162.833 3.33398V3.33398Z" fill="#67C6B3"/>
</svg>
