<svg width="24" height="24" viewBox="0 0 24 24" fill="none" xmlns="http://www.w3.org/2000/svg">
<path d="M23.4569 7.66855C23.1569 6.2623 22.6694 5.0998 21.8069 4.18105C20.5881 2.83105 18.9944 2.1748 17.1006 2.1748H16.8569C14.8506 2.23105 13.2006 3.0373 12.0381 4.4998C11.6069 4.0123 11.0631 3.5248 10.4444 3.1498C9.22564 2.41855 7.81939 2.11855 6.22564 2.23105C4.46314 2.41855 3.05689 3.20605 2.00689 4.4998C0.900639 5.9623 0.356889 7.6123 0.413139 9.31855C0.469389 10.9123 0.956889 12.3748 1.87564 13.7811C2.90689 15.3748 4.20064 16.5936 5.36314 17.5686C7.01314 19.0311 8.90689 20.3248 11.2881 21.6561C11.5319 21.7873 11.7194 21.8436 11.9631 21.8436C12.2069 21.8436 12.3944 21.7873 12.6381 21.6561C14.7194 20.4936 16.5381 19.2748 18.1881 17.8686C19.8944 16.4623 21.1131 15.1123 22.0881 13.6498C23.4006 11.7561 23.8131 9.80605 23.4569 7.66855Z" fill="#F86F64"/>
</svg>
