<svg width="64" height="64" viewBox="0 0 64 64" fill="none" xmlns="http://www.w3.org/2000/svg">
<path d="M32 39.6557C28.3063 39.6557 24.8313 38.2182 22.2188 35.6057C19.6063 32.9932 18.1688 29.5182 18.1688 25.8244C18.1688 22.1307 19.6063 18.6557 22.2188 16.0432C24.8313 13.4307 28.3063 11.9932 32 11.9932C35.6938 11.9932 39.1688 13.4307 41.7813 16.0432C44.3938 18.6557 45.8313 22.1307 45.8313 25.8244C45.8313 29.5182 44.3938 32.9932 41.7813 35.6057C39.1688 38.2182 35.6938 39.6557 32 39.6557ZM32 15.1182C26.0938 15.1182 21.2938 19.9244 21.2938 25.8244C21.2938 31.7307 26.1 36.5307 32 36.5307C37.9 36.5307 42.7063 31.7244 42.7063 25.8244C42.7063 19.9182 37.9063 15.1182 32 15.1182Z" fill="#67C6B3"/>
<path d="M30.05 31.975L24.9625 26.8875L27.175 24.6812L30.05 27.5562L36.825 20.7812L39.0375 22.9875L30.05 31.975Z" fill="#67C6B3"/>
<path d="M32 49.3195C31.0062 49.3195 30.0062 49.0758 29.1 48.5945C28.9125 48.4945 28.7312 48.382 28.5562 48.2695C28.2312 48.0508 27.925 47.8008 27.65 47.5195L25.2625 45.1258C24.6875 44.5508 23.9312 44.2383 23.1187 44.2383H19.7437C16.35 44.2383 13.5875 41.4758 13.5875 38.082V34.707C13.5875 33.907 13.2625 33.132 12.7 32.5633L10.3125 30.1758C7.91248 27.7758 7.91248 23.8695 10.3125 21.4695L12.7 19.082C13.2625 18.5195 13.5875 17.7383 13.5875 16.9383V13.5633C13.5875 10.1695 16.35 7.40703 19.7437 7.40703H23.1187C23.925 7.40703 24.6875 7.09453 25.2625 6.51953L27.65 4.13203C30.05 1.73203 33.9562 1.73203 36.35 4.13203L38.7375 6.51953C39.3125 7.09453 40.0687 7.40703 40.8812 7.40703H44.2562C47.65 7.40703 50.4125 10.1695 50.4125 13.5633V16.9383C50.4125 17.7445 50.725 18.507 51.3 19.082L53.6875 21.4695C56.0875 23.8695 56.0875 27.7758 53.6875 30.1758L51.3 32.5633C50.725 33.132 50.4125 33.8945 50.4125 34.707V38.082C50.4125 41.4758 47.65 44.2383 44.2562 44.2383H40.8812C40.0687 44.2383 39.3125 44.5508 38.7375 45.1258L36.35 47.5133C36.0687 47.7945 35.7625 48.0445 35.4375 48.2633C35.2687 48.3758 35.0812 48.4883 34.8937 48.5883C33.9937 49.0758 32.9937 49.3195 32 49.3195ZM19.7375 10.5383C18.0687 10.5383 16.7062 11.8945 16.7062 13.5695V16.9445C16.7062 18.5883 16.0687 20.132 14.9062 21.2945L12.5187 23.682C11.3375 24.8633 11.3375 26.782 12.5187 27.9633L14.9062 30.3508C16.0687 31.5133 16.7062 33.057 16.7062 34.7008V38.0758C16.7062 39.7445 18.0625 41.107 19.7375 41.107H23.1125C24.7562 41.107 26.3 41.7445 27.4625 42.907L29.85 45.2945C29.9875 45.432 30.1375 45.557 30.3 45.6695C30.3875 45.7258 30.4687 45.782 30.5625 45.8258C31.4562 46.307 32.525 46.307 33.4187 45.8258C33.5125 45.7758 33.6 45.7258 33.6812 45.6695C33.8437 45.557 34 45.432 34.1375 45.2945L36.525 42.907C37.6875 41.7445 39.2312 41.107 40.875 41.107H44.25C45.9187 41.107 47.2812 39.7508 47.2812 38.0758V34.7008C47.2812 33.057 47.9187 31.5133 49.0812 30.3508L51.4687 27.9633C52.65 26.782 52.65 24.8633 51.4687 23.6758L49.0812 21.2883C47.9187 20.1258 47.2812 18.582 47.2812 16.9383V13.5633C47.2812 11.8945 45.925 10.532 44.25 10.532H40.875C39.2312 10.532 37.6875 9.89453 36.525 8.72578L34.1375 6.33828C33.5625 5.76328 32.8062 5.45078 31.9937 5.45078C31.1875 5.45078 30.425 5.76328 29.85 6.33828L27.4625 8.72578C26.3 9.88828 24.7562 10.5258 23.1125 10.5258H19.7375V10.5383Z" fill="#67C6B3"/>
<path d="M25.425 61.682L20.6563 55.8195L13.1875 56.9508L19.3125 41.1133H23.1188C24.7625 41.1133 26.3063 41.7508 27.4688 42.9133L29.8563 45.3008C29.9938 45.4383 30.1438 45.5633 30.3063 45.6758L31.3375 46.3695L25.425 61.682ZM21.9563 52.4633L24.45 55.532L27.575 47.4445L25.2625 45.1258C24.6875 44.5508 23.9313 44.2383 23.1188 44.2383H21.4563L18.05 53.0508L21.9563 52.4633ZM38.575 61.6758L32.6563 46.3758L33.6875 45.682C33.85 45.5758 34 45.4508 34.1375 45.307L36.525 42.9195C37.6875 41.757 39.2313 41.1195 40.875 41.1195H44.6875L50.8063 56.957L43.3375 55.8258L38.575 61.6758ZM36.425 47.4445L39.55 55.532L42.0438 52.4633L45.95 53.057L42.5438 44.2445H40.8813C40.0688 44.2445 39.3125 44.557 38.7375 45.132L36.425 47.4445Z" fill="#67C6B3"/>
</svg>
