<svg width="140" height="60" viewBox="0 0 140 60" fill="none" xmlns="http://www.w3.org/2000/svg">
<g opacity="0.5">
<rect x="0.5" y="0.5" width="59" height="59" stroke="#FAFAFA"/>
<path d="M43.5 30.1999C43.5 29.7892 43.3419 29.3954 43.0606 29.105C42.7793 28.8146 42.3978 28.6515 42 28.6515L21.615 28.6515L23.565 26.6541C23.8474 26.3625 24.0061 25.9671 24.0061 25.5547C24.0061 25.1424 23.8474 24.7469 23.565 24.4554C23.2825 24.1638 22.8994 24 22.5 24C22.1005 24 21.7174 24.1638 21.435 24.4554L16.935 29.1005C16.7268 29.3183 16.5858 29.5948 16.5298 29.8951C16.4737 30.1955 16.5051 30.5063 16.62 30.7883C16.7325 31.071 16.9236 31.3131 17.1692 31.4839C17.4148 31.6548 17.7038 31.7467 18 31.7483L42 31.7483C42.3978 31.7483 42.7793 31.5851 43.0606 31.2948C43.3419 31.0044 43.5 30.6105 43.5 30.1999Z" fill="#FAFAFA"/>
<path d="M24 34.8454C24.0012 34.6416 23.9633 34.4396 23.8887 34.2509C23.814 34.0623 23.7041 33.8907 23.565 33.746L19.065 29.1009C18.7826 28.8093 18.3995 28.6455 18 28.6455C17.8022 28.6455 17.6064 28.6857 17.4237 28.7639C17.2409 28.842 17.0749 28.9565 16.935 29.1009C16.7952 29.2452 16.6842 29.4166 16.6085 29.6053C16.5329 29.7939 16.4939 29.9961 16.4939 30.2002C16.4939 30.6126 16.6526 31.008 16.935 31.2996L21.435 35.9447C21.5745 36.0899 21.7404 36.2051 21.9232 36.2837C22.106 36.3623 22.302 36.4028 22.5 36.4028C22.6981 36.4028 22.8941 36.3623 23.0769 36.2837C23.2597 36.2051 23.4256 36.0899 23.565 35.9447C23.7041 35.8001 23.814 35.6285 23.8887 35.4398C23.9633 35.2512 24.0012 35.0492 24 34.8454Z" fill="#FAFAFA"/>
</g>
<rect x="80.5" y="0.5" width="59" height="59" stroke="#FAFAFA"/>
<path d="M96.5 30.1999C96.5 29.7892 96.6581 29.3954 96.9394 29.105C97.2207 28.8146 97.6022 28.6515 98 28.6515L118.385 28.6515L116.435 26.6541C116.153 26.3625 115.994 25.9671 115.994 25.5547C115.994 25.1424 116.153 24.7469 116.435 24.4554C116.717 24.1638 117.101 24 117.5 24C117.899 24 118.283 24.1638 118.565 24.4554L123.065 29.1005C123.273 29.3183 123.414 29.5948 123.47 29.8951C123.526 30.1955 123.495 30.5063 123.38 30.7883C123.268 31.071 123.076 31.3131 122.831 31.4839C122.585 31.6548 122.296 31.7467 122 31.7483L98 31.7483C97.6022 31.7483 97.2207 31.5851 96.9394 31.2948C96.6581 31.0044 96.5 30.6105 96.5 30.1999Z" fill="#FAFAFA"/>
<path d="M116 34.8454C115.999 34.6416 116.037 34.4396 116.111 34.251C116.186 34.0623 116.296 33.8907 116.435 33.746L120.935 29.1009C121.217 28.8093 121.601 28.6455 122 28.6455C122.198 28.6455 122.394 28.6857 122.576 28.7639C122.759 28.842 122.925 28.9565 123.065 29.1009C123.205 29.2452 123.316 29.4166 123.391 29.6053C123.467 29.7939 123.506 29.9961 123.506 30.2002C123.506 30.6126 123.347 31.008 123.065 31.2996L118.565 35.9447C118.426 36.0899 118.26 36.2051 118.077 36.2837C117.894 36.3623 117.698 36.4028 117.5 36.4028C117.302 36.4028 117.106 36.3623 116.923 36.2837C116.74 36.2051 116.574 36.0899 116.435 35.9447C116.296 35.8001 116.186 35.6285 116.111 35.4398C116.037 35.2512 115.999 35.0492 116 34.8454Z" fill="#FAFAFA"/>
</svg>
