<svg width="168" height="40" viewBox="0 0 168 40" fill="none" xmlns="http://www.w3.org/2000/svg">
<path d="M28.9002 9.09967C28.5046 9.09967 28.1179 9.21697 27.789 9.43674C27.4601 9.6565 27.2038 9.96886 27.0524 10.3343C26.901 10.6998 26.8614 11.1019 26.9386 11.4899C27.0158 11.8778 27.2062 12.2342 27.486 12.5139C27.7657 12.7936 28.122 12.9841 28.51 13.0612C28.8979 13.1384 29.3001 13.0988 29.6655 12.9474C30.031 12.7961 30.3433 12.5397 30.5631 12.2108C30.7829 11.8819 30.9002 11.4952 30.9002 11.0997C30.9002 10.5692 30.6895 10.0605 30.3144 9.68546C29.9393 9.31039 29.4306 9.09967 28.9002 9.09967V9.09967ZM36.5668 13.133C36.5344 11.7502 36.2754 10.382 35.8002 9.08301C35.3764 7.97156 34.7168 6.96514 33.8668 6.13301C33.0415 5.27872 32.0328 4.6233 30.9168 4.21634C29.6213 3.72661 28.2516 3.46169 26.8668 3.43301C25.1002 3.33301 24.5335 3.33301 20.0002 3.33301C15.4668 3.33301 14.9002 3.33301 13.1335 3.43301C11.7488 3.46169 10.3791 3.72661 9.0835 4.21634C7.96962 4.62742 6.96172 5.28228 6.1335 6.13301C5.27921 6.9583 4.62379 7.96707 4.21683 9.08301C3.7271 10.3786 3.46218 11.7483 3.4335 13.133C3.3335 14.8997 3.3335 15.4663 3.3335 19.9997C3.3335 24.533 3.3335 25.0997 3.4335 26.8663C3.46218 28.2511 3.7271 29.6208 4.21683 30.9163C4.62379 32.0323 5.27921 33.041 6.1335 33.8663C6.96172 34.7171 7.96962 35.3719 9.0835 35.783C10.3791 36.2727 11.7488 36.5377 13.1335 36.5663C14.9002 36.6663 15.4668 36.6663 20.0002 36.6663C24.5335 36.6663 25.1002 36.6663 26.8668 36.5663C28.2516 36.5377 29.6213 36.2727 30.9168 35.783C32.0328 35.376 33.0415 34.7206 33.8668 33.8663C34.7206 33.0373 35.3807 32.03 35.8002 30.9163C36.2754 29.6173 36.5344 28.2492 36.5668 26.8663C36.5668 25.0997 36.6668 24.533 36.6668 19.9997C36.6668 15.4663 36.6668 14.8997 36.5668 13.133V13.133ZM33.5668 26.6663C33.5547 27.7243 33.3631 28.7725 33.0002 29.7663C32.7341 30.4917 32.3066 31.147 31.7502 31.683C31.2096 32.2339 30.5555 32.6604 29.8335 32.933C28.8397 33.2959 27.7915 33.4875 26.7335 33.4997C25.0668 33.583 24.4502 33.5997 20.0668 33.5997C15.6835 33.5997 15.0668 33.5997 13.4002 33.4997C12.3016 33.5202 11.2078 33.3511 10.1668 32.9997C9.47647 32.7131 8.85242 32.2877 8.3335 31.7497C7.78031 31.2143 7.35824 30.5583 7.10016 29.833C6.69326 28.8249 6.46757 27.7529 6.4335 26.6663C6.4335 24.9997 6.3335 24.383 6.3335 19.9997C6.3335 15.6163 6.3335 14.9997 6.4335 13.333C6.44097 12.2514 6.63841 11.1796 7.01683 10.1663C7.31024 9.46286 7.7606 8.83577 8.3335 8.33301C8.83985 7.75996 9.46564 7.30483 10.1668 6.99967C11.1827 6.63308 12.2535 6.44147 13.3335 6.43301C15.0002 6.43301 15.6168 6.33301 20.0002 6.33301C24.3835 6.33301 25.0002 6.33301 26.6668 6.43301C27.7248 6.44514 28.773 6.63675 29.7668 6.99967C30.5242 7.28076 31.204 7.73775 31.7502 8.33301C32.2963 8.84497 32.7231 9.4709 33.0002 10.1663C33.3706 11.1812 33.5623 12.2526 33.5668 13.333C33.6502 14.9997 33.6668 15.6163 33.6668 19.9997C33.6668 24.383 33.6502 24.9997 33.5668 26.6663ZM20.0002 11.4497C18.3098 11.453 16.6584 11.9572 15.2546 12.8987C13.8507 13.8402 12.7575 15.1767 12.1129 16.7393C11.4683 18.3019 11.3014 20.0205 11.6332 21.6779C11.9649 23.3353 12.7806 24.8572 13.977 26.0513C15.1734 27.2454 16.6968 28.058 18.3549 28.3866C20.013 28.7151 21.7313 28.5449 23.2926 27.8972C24.8539 27.2496 26.1883 26.1537 27.127 24.7481C28.0658 23.3424 28.5668 21.69 28.5668 19.9997C28.569 18.8748 28.3488 17.7607 27.9189 16.7213C27.489 15.6819 26.8578 14.7377 26.0616 13.9431C25.2655 13.1485 24.3201 12.5191 23.2798 12.0912C22.2396 11.6633 21.125 11.4453 20.0002 11.4497V11.4497ZM20.0002 25.5497C18.9025 25.5497 17.8294 25.2242 16.9167 24.6143C16.0041 24.0045 15.2927 23.1377 14.8726 22.1236C14.4526 21.1094 14.3427 19.9935 14.5568 18.9169C14.771 17.8403 15.2995 16.8514 16.0757 16.0752C16.8519 15.2991 17.8408 14.7705 18.9174 14.5563C19.994 14.3422 21.1099 14.4521 22.1241 14.8721C23.1382 15.2922 24.005 16.0036 24.6148 16.9163C25.2247 17.829 25.5502 18.902 25.5502 19.9997C25.5502 20.7285 25.4066 21.4502 25.1277 22.1236C24.8488 22.7969 24.44 23.4088 23.9246 23.9241C23.4092 24.4395 22.7974 24.8483 22.1241 25.1272C21.4507 25.4061 20.729 25.5497 20.0002 25.5497V25.5497Z" fill="#67C6B3"/>
<path d="M78.1835 33.3332H78.0502C75.3641 33.3097 72.7169 32.6892 70.3002 31.5165C69.8556 31.3077 69.4896 30.9621 69.2557 30.5302C69.0217 30.0984 68.9322 29.603 69.0002 29.1165C69.0741 28.6268 69.3008 28.173 69.648 27.8198C69.9952 27.4666 70.4451 27.2321 70.9335 27.1499C72.4312 26.9501 73.872 26.4452 75.1668 25.6665C72.9188 23.9089 71.1881 21.5758 70.1582 18.9145C69.1283 16.2533 68.8376 13.3629 69.3168 10.5499C69.3818 10.1043 69.5734 9.68676 69.8689 9.34697C70.1644 9.00718 70.5512 8.75943 70.9835 8.6332C71.404 8.50114 71.8541 8.49549 72.2778 8.61697C72.7015 8.73846 73.0802 8.98171 73.3668 9.31654C74.3402 10.5928 75.5633 11.6575 76.9617 12.4455C78.36 13.2335 79.9042 13.7283 81.5002 13.8999C81.5764 11.9363 82.4202 10.0811 83.8502 8.7332C84.5642 8.04949 85.4071 7.51472 86.3298 7.16005C87.2526 6.80538 88.2367 6.6379 89.2248 6.66737C90.213 6.69685 91.1853 6.92268 92.0853 7.33172C92.9853 7.74076 93.7948 8.32482 94.4668 9.04987C94.6419 9.20465 94.8594 9.30329 95.0912 9.33301C95.323 9.36272 95.5584 9.32215 95.7668 9.21654C96.1642 9.02912 96.6067 8.95856 97.0427 9.01311C97.4786 9.06766 97.8901 9.24506 98.2291 9.52461C98.568 9.80417 98.8205 10.1743 98.957 10.592C99.0936 11.0096 99.1085 11.4574 99.0002 11.8832C98.6157 13.4667 97.8874 14.9462 96.8668 16.2165C96.6419 20.9578 94.5516 25.4178 91.0517 28.6242C87.5519 31.8306 82.9263 33.5233 78.1835 33.3332V33.3332ZM78.1835 29.9999H78.3168C80.2546 30.0665 82.1863 29.7478 84 29.0623C85.8137 28.3768 87.4733 27.3381 88.8825 26.0063C90.2918 24.6746 91.4227 23.0764 92.2096 21.3044C92.9965 19.5323 93.4238 17.6217 93.4668 15.6832C93.4943 15.152 93.7134 14.6487 94.0835 14.2665C94.49 13.7519 94.8367 13.1928 95.1168 12.5999C94.5164 12.601 93.9225 12.4754 93.374 12.2313C92.8254 11.9872 92.3345 11.63 91.9335 11.1832C91.5478 10.8008 91.0897 10.4992 90.5861 10.296C90.0824 10.0928 89.5432 9.99212 89.0002 9.99987C88.4517 9.98569 87.9058 10.08 87.3938 10.2773C86.8818 10.4747 86.4139 10.7712 86.0168 11.1499C85.4811 11.6582 85.0883 12.2983 84.8777 13.0061C84.6671 13.714 84.6461 14.4647 84.8168 15.1832L85.2502 17.0832L83.3002 17.2165C81.302 17.3795 79.2923 17.1061 77.4102 16.4155C75.5281 15.7248 73.8186 14.6333 72.4002 13.2165C72.3393 15.4105 72.8882 17.5784 73.9856 19.4792C75.0831 21.3799 76.6863 22.939 78.6168 23.9832L80.2002 24.8832L79.1502 26.3832C78.0146 27.8724 76.4588 28.987 74.6835 29.5832C75.8223 29.8686 76.9928 30.0087 78.1668 29.9999H78.1835Z" fill="#67C6B3"/>
<path d="M162.833 3.33301H133.167C132.681 3.33301 132.214 3.52616 131.87 3.86998C131.527 4.2138 131.333 4.68011 131.333 5.16634V34.833C131.333 35.0738 131.381 35.3122 131.473 35.5346C131.565 35.757 131.7 35.9591 131.87 36.1294C132.041 36.2996 132.243 36.4347 132.465 36.5268C132.688 36.6189 132.926 36.6663 133.167 36.6663H149.133V23.7497H144.8V18.7497H149.133V14.9997C149.044 14.1193 149.148 13.2299 149.438 12.3939C149.728 11.5579 150.198 10.7956 150.814 10.1604C151.43 9.52514 152.178 9.03241 153.005 8.71674C153.832 8.40107 154.717 8.27009 155.6 8.33301C156.897 8.32503 158.194 8.3918 159.483 8.53301V13.033H156.833C154.733 13.033 154.333 14.033 154.333 15.483V18.6997H159.333L158.683 23.6997H154.333V36.6663H162.833C163.074 36.6663 163.313 36.6189 163.535 36.5268C163.758 36.4347 163.96 36.2996 164.13 36.1294C164.3 35.9591 164.435 35.757 164.527 35.5346C164.619 35.3122 164.667 35.0738 164.667 34.833V5.16634C164.667 4.92558 164.619 4.68719 164.527 4.46476C164.435 4.24232 164.3 4.04022 164.13 3.86998C163.96 3.69974 163.758 3.5647 163.535 3.47256C163.313 3.38043 163.074 3.33301 162.833 3.33301V3.33301Z" fill="#67C6B3"/>
</svg>
