<svg width="96" height="32" viewBox="0 0 96 32" fill="none" xmlns="http://www.w3.org/2000/svg">
<path d="M27.6133 25.72L23.08 21.2C24.5427 19.3366 25.3363 17.0355 25.3333 14.6667C25.3333 12.557 24.7077 10.4947 23.5357 8.74059C22.3636 6.98646 20.6977 5.61929 18.7486 4.81196C16.7995 4.00462 14.6548 3.79339 12.5857 4.20496C10.5166 4.61654 8.61596 5.63244 7.1242 7.1242C5.63244 8.61596 4.61654 10.5166 4.20496 12.5857C3.79339 14.6548 4.00462 16.7995 4.81196 18.7486C5.61929 20.6977 6.98646 22.3636 8.74059 23.5357C10.4947 24.7077 12.557 25.3333 14.6667 25.3333C17.0355 25.3363 19.3366 24.5427 21.2 23.08L25.72 27.6133C25.844 27.7383 25.9914 27.8375 26.1539 27.9052C26.3164 27.9729 26.4907 28.0077 26.6667 28.0077C26.8427 28.0077 27.017 27.9729 27.1794 27.9052C27.3419 27.8375 27.4894 27.7383 27.6133 27.6133C27.7383 27.4894 27.8375 27.3419 27.9052 27.1794C27.9729 27.017 28.0077 26.8427 28.0077 26.6667C28.0077 26.4907 27.9729 26.3164 27.9052 26.1539C27.8375 25.9914 27.7383 25.844 27.6133 25.72V25.72ZM6.66667 14.6667C6.66667 13.0844 7.13586 11.5377 8.01491 10.2221C8.89397 8.90652 10.1434 7.88114 11.6052 7.27564C13.067 6.67013 14.6755 6.51171 16.2274 6.82039C17.7792 7.12907 19.2047 7.891 20.3235 9.00982C21.4423 10.1286 22.2043 11.5541 22.513 13.1059C22.8216 14.6578 22.6632 16.2663 22.0577 17.7281C21.4522 19.1899 20.4268 20.4394 19.1112 21.3184C17.7956 22.1975 16.2489 22.6667 14.6667 22.6667C12.5449 22.6667 10.5101 21.8238 9.00982 20.3235C7.50953 18.8232 6.66667 16.7884 6.66667 14.6667Z" fill="#615E5B"/>
<path d="M92 11.6083H68C67.6022 11.6083 67.2206 11.4672 66.9393 11.2161C66.658 10.9649 66.5 10.6242 66.5 10.269C66.5 9.9138 66.658 9.57314 66.9393 9.32197C67.2206 9.07079 67.6022 8.92969 68 8.92969H92C92.3978 8.92969 92.7794 9.07079 93.0607 9.32197C93.342 9.57314 93.5 9.9138 93.5 10.269C93.5 10.6242 93.342 10.9649 93.0607 11.2161C92.7794 11.4672 92.3978 11.6083 92 11.6083V11.6083ZM92 19.6443H78C77.6022 19.6443 77.2206 19.5032 76.9393 19.252C76.658 19.0008 76.5 18.6602 76.5 18.305C76.5 17.9498 76.658 17.6091 76.9393 17.3579C77.2206 17.1068 77.6022 16.9656 78 16.9656H92C92.3978 16.9656 92.7794 17.1068 93.0607 17.3579C93.342 17.6091 93.5 17.9498 93.5 18.305C93.5 18.6602 93.342 19.0008 93.0607 19.252C92.7794 19.5032 92.3978 19.6443 92 19.6443V19.6443Z" fill="#615E5B"/>
</svg>
