<svg width="48" height="48" viewBox="0 0 48 48" fill="none" xmlns="http://www.w3.org/2000/svg">
<path d="M37.5002 24.1999C37.5002 23.7892 37.3422 23.3954 37.0609 23.105C36.7796 22.8146 36.398 22.6515 36.0002 22.6515L15.6152 22.6515L17.5652 20.6541C17.8477 20.3625 18.0063 19.9671 18.0063 19.5547C18.0063 19.1424 17.8477 18.7469 17.5652 18.4554C17.2828 18.1638 16.8997 18 16.5002 18C16.1008 18 15.7177 18.1638 15.4352 18.4554L10.9352 23.1005C10.7271 23.3183 10.5861 23.5948 10.53 23.8951C10.474 24.1955 10.5053 24.5063 10.6202 24.7883C10.7327 25.071 10.9238 25.3131 11.1694 25.4839C11.415 25.6548 11.7041 25.7467 12.0002 25.7483L36.0002 25.7483C36.398 25.7483 36.7796 25.5851 37.0609 25.2948C37.3422 25.0044 37.5002 24.6105 37.5002 24.1999Z" fill="#E4E0DA"/>
<path d="M17.9998 28.8454C18.0009 28.6416 17.9631 28.4396 17.8884 28.2509C17.8138 28.0623 17.7038 27.8907 17.5648 27.746L13.0648 23.1009C12.7823 22.8093 12.3992 22.6455 11.9998 22.6455C11.802 22.6455 11.6061 22.6857 11.4234 22.7639C11.2407 22.842 11.0746 22.9565 10.9348 23.1009C10.7949 23.2452 10.684 23.4166 10.6083 23.6053C10.5326 23.7939 10.4937 23.9961 10.4937 24.2002C10.4937 24.6126 10.6523 25.008 10.9348 25.2996L15.4348 29.9447C15.5742 30.0899 15.7401 30.2051 15.9229 30.2837C16.1057 30.3623 16.3018 30.4028 16.4998 30.4028C16.6978 30.4028 16.8939 30.3623 17.0767 30.2837C17.2594 30.2051 17.4253 30.0899 17.5648 29.9447C17.7038 29.8001 17.8138 29.6285 17.8884 29.4398C17.9631 29.2512 18.0009 29.0492 17.9998 28.8454Z" fill="#E4E0DA"/>
</svg>
