<svg width="64" height="64" viewBox="0 0 64 64" fill="none" xmlns="http://www.w3.org/2000/svg">
<path d="M54 26.0004C54.0103 22.1859 53.0285 18.4342 51.1511 15.1136C49.2736 11.793 46.5651 9.01766 43.2912 7.0599C40.0174 5.10214 36.2907 4.02926 32.477 3.94658C28.6633 3.86389 24.8937 4.77423 21.538 6.58825C18.1824 8.40227 15.3561 11.0576 13.3365 14.2937C11.3169 17.5298 10.1734 21.2354 10.0183 25.0468C9.86321 28.8583 10.7018 32.6445 12.4517 36.034C14.2017 39.4235 16.8029 42.2998 20 44.3804V58.0004C20.002 58.2959 20.0694 58.5872 20.1973 58.8534C20.3253 59.1197 20.5106 59.3543 20.74 59.5404C20.9684 59.729 21.2358 59.8644 21.5228 59.9371C21.8099 60.0097 22.1095 60.0177 22.4 59.9604L32 58.0004L41.6 60.0004H42C42.5305 60.0004 43.0392 59.7897 43.4143 59.4147C43.7893 59.0396 44 58.5309 44 58.0004V44.4204C47.0675 42.4242 49.5884 39.6942 51.3346 36.4778C53.0807 33.2614 53.9969 29.6602 54 26.0004V26.0004ZM40 55.5604L34 54.3604V47.9004C36.0572 47.7138 38.0774 47.2356 40 46.4804V55.5604ZM32 44.0004C31.4696 44.0004 30.9609 44.2112 30.5858 44.5862C30.2108 44.9613 30 45.47 30 46.0004V54.3604L24 55.5604V43.3204C24.0052 43.2405 24.0052 43.1604 24 43.0804C24.0134 42.9474 24.0134 42.8134 24 42.6804C23.9052 42.4436 23.7773 42.2214 23.62 42.0204C23.5236 41.916 23.4164 41.8221 23.3 41.7404C23.2435 41.6833 23.1834 41.6299 23.12 41.5804C19.336 39.3907 16.4782 35.8985 15.0804 31.756C13.6825 27.6134 13.8402 23.1038 15.5239 19.069C17.2076 15.0342 20.3023 11.7501 24.23 9.82991C28.1578 7.90974 32.6502 7.48476 36.8684 8.6343C41.0865 9.78385 44.7421 12.4293 47.1526 16.0768C49.5631 19.7243 50.5636 24.1244 49.9674 28.4556C49.3712 32.7868 47.219 36.7529 43.9127 39.6134C40.6064 42.474 36.3719 44.0334 32 44.0004V44.0004Z" fill="#67C6B3"/>
<path d="M43.04 20.5404L37.04 18.8804L33.66 13.7204C33.477 13.4482 33.2299 13.2251 32.9404 13.0709C32.6509 12.9166 32.328 12.8359 32 12.8359C31.672 12.8359 31.349 12.9166 31.0595 13.0709C30.77 13.2251 30.5229 13.4482 30.34 13.7204L26.9 18.8604L20.9 20.5204C20.591 20.6237 20.312 20.8008 20.0871 21.0365C19.8623 21.2722 19.6983 21.5592 19.6096 21.8726C19.5209 22.186 19.5101 22.5163 19.5782 22.8349C19.6462 23.1534 19.791 23.4506 20 23.7004L23.84 28.5404L23.58 34.7204C23.5586 35.0539 23.6211 35.3874 23.7618 35.6905C23.9025 35.9936 24.1169 36.2567 24.3854 36.4556C24.6539 36.6545 24.968 36.7829 25.299 36.8292C25.6299 36.8755 25.9672 36.8381 26.28 36.7204L32 34.5404L37.8 36.6804C38.1127 36.7981 38.45 36.8355 38.781 36.7892C39.1119 36.7429 39.426 36.6145 39.6945 36.4156C39.963 36.2167 40.1775 35.9536 40.3182 35.6505C40.4588 35.3474 40.5214 35.0139 40.5 34.6804L40.24 28.5004L44 23.7004C44.203 23.4427 44.3394 23.1389 44.3973 22.816C44.4553 22.4931 44.4328 22.1608 44.3321 21.8486C44.2313 21.5364 44.0552 21.2537 43.8194 21.0256C43.5836 20.7975 43.2953 20.6308 42.98 20.5404H43.04ZM36.64 26.6604C36.3472 27.0363 36.1983 27.5044 36.22 27.9804L36.38 31.9804L32.7 30.6204C32.2485 30.4517 31.7514 30.4517 31.3 30.6204L27.62 31.9804L27.78 27.9804C27.8017 27.5044 27.6527 27.0363 27.36 26.6604L24.92 23.5804L28.7 22.5204C29.1592 22.3896 29.5565 22.0987 29.82 21.7004L32 18.4404L34.18 21.7004C34.4434 22.0987 34.8407 22.3896 35.3 22.5204L39.08 23.5804L36.64 26.6604Z" fill="#67C6B3"/>
</svg>
