<svg width="64" height="64" viewBox="0 0 64 64" fill="none" xmlns="http://www.w3.org/2000/svg">
<g clip-path="url(#clip0_847_28)">
<path fill-rule="evenodd" clip-rule="evenodd" d="M21.9998 41.9997C21.9998 41.1656 21.4818 40.4196 20.7018 40.1276L4.70184 34.1276C4.08784 33.8976 3.39985 33.9816 2.85985 34.3556C2.32185 34.7296 1.99985 35.3436 1.99985 35.9996V55.9998C1.99985 56.8338 2.51785 57.5798 3.29785 57.8718L19.2978 63.8719C19.9118 64.1019 20.5998 64.0179 21.1398 63.6439C21.6778 63.2699 21.9998 62.6559 21.9998 61.9999V41.9997ZM5.99984 54.6138L17.9998 59.1139V43.3857L5.99984 38.8856V54.6138Z" fill="#67C6B3"/>
<path fill-rule="evenodd" clip-rule="evenodd" d="M19.2981 40.1276C18.5181 40.4196 18.0001 41.1656 18.0001 41.9997V61.9999C18.0001 62.6559 18.3221 63.2699 18.8601 63.6439C19.4001 64.0179 20.0881 64.1019 20.7021 63.8719L36.7021 57.8718C37.4821 57.5798 38.0001 56.8338 38.0001 55.9998V35.9996C38.0001 35.3436 37.6781 34.7296 37.1401 34.3556C36.6001 33.9816 35.9121 33.8976 35.2981 34.1276L19.2981 40.1276ZM22.0001 43.3857V59.1139L34.0001 54.6138V38.8856L22.0001 43.3857Z" fill="#67C6B3"/>
<path fill-rule="evenodd" clip-rule="evenodd" d="M3.29831 34.1276C2.51831 34.4196 2.0003 35.1656 2.0003 35.9996C2.0003 36.8336 2.51831 37.5796 3.29831 37.8716L19.2983 43.8717C19.7503 44.0417 20.2503 44.0417 20.7023 43.8717L36.7022 37.8716C37.4822 37.5796 38.0002 36.8336 38.0002 35.9996C38.0002 35.1656 37.4822 34.4196 36.7022 34.1276L20.7023 28.1275C20.2503 27.9575 19.7503 27.9575 19.2983 28.1275L3.29831 34.1276ZM9.69629 35.9996L20.0003 39.8636L30.3043 35.9996L20.0003 32.1355L9.69629 35.9996Z" fill="#67C6B3"/>
<path fill-rule="evenodd" clip-rule="evenodd" d="M42.1545 10.0013C45.3945 10.084 47.9999 12.74 47.9999 16.0001C47.9999 17.1041 47.1039 18.0001 45.9999 18.0001C44.9305 18.0001 44.0559 17.1588 44.0025 16.1027L43.9972 15.8974C43.9439 14.8414 43.0692 14 41.9999 14C40.8959 14 39.9999 14.8961 39.9999 16.0001C39.9999 17.1041 40.8959 18.0001 41.9999 18.0001C43.1039 18.0001 43.9999 18.8961 43.9999 20.0001C43.9999 21.1041 43.1039 22.0001 41.9999 22.0001C38.6879 22.0001 35.9999 19.3121 35.9999 16.0001C35.9999 12.688 38.6879 10 41.9999 10L42.1545 10.0013Z" fill="#67C6B3"/>
<path fill-rule="evenodd" clip-rule="evenodd" d="M41.9998 21.9999C43.1038 21.9999 43.9998 22.8959 43.9998 23.9999C43.9998 25.1039 43.1038 26 41.9998 26C40.8958 26 39.9998 25.1039 39.9998 23.9999C39.9998 22.8959 39.1038 21.9999 37.9998 21.9999C36.8958 21.9999 35.9998 22.8959 35.9998 23.9999C35.9998 27.312 38.6878 30 41.9998 30C45.3118 30 47.9998 27.312 47.9998 23.9999C47.9998 20.6879 45.3118 17.9999 41.9998 17.9999C40.8958 17.9999 39.9998 18.8959 39.9998 19.9999C39.9998 21.1039 40.8958 21.9999 41.9998 21.9999Z" fill="#67C6B3"/>
<path fill-rule="evenodd" clip-rule="evenodd" d="M40.0001 9.00003V12.0001C40.0001 13.1041 40.8961 14.0001 42.0001 14.0001C43.1041 14.0001 44.0001 13.1041 44.0001 12.0001V9.00003C44.0001 7.89601 43.1041 7 42.0001 7C40.8961 7 40.0001 7.89601 40.0001 9.00003Z" fill="#67C6B3"/>
<path fill-rule="evenodd" clip-rule="evenodd" d="M40.0001 28V31.0001C40.0001 32.1041 40.8961 33.0001 42.0001 33.0001C43.1041 33.0001 44.0001 32.1041 44.0001 31.0001V28C44.0001 26.896 43.1041 26 42.0001 26C40.8961 26 40.0001 26.896 40.0001 28Z" fill="#67C6B3"/>
<path fill-rule="evenodd" clip-rule="evenodd" d="M32.7916 36.9345L30.0096 35.8904C29.8096 35.8144 29.6216 35.7085 29.4556 35.5745C24.9096 31.9064 21.9996 26.2903 21.9996 20.0003C21.9996 8.96211 30.9616 0 41.9996 0C53.0376 0 61.9996 8.96211 61.9996 20.0003C61.9996 31.0384 53.0376 40.0005 41.9996 40.0005C39.6616 40.0005 37.4176 39.5985 35.3316 38.8605C35.0856 38.7725 34.8636 38.6405 34.6756 38.4725C33.8896 38.4485 33.1596 37.9585 32.8656 37.1765C32.8356 37.0965 32.8116 37.0145 32.7916 36.9345ZM37.9296 35.4764C39.2296 35.8184 40.5936 36.0005 41.9996 36.0005C50.8296 36.0005 57.9996 28.8304 57.9996 20.0003C57.9996 11.1701 50.8296 4.00005 41.9996 4.00005C33.1696 4.00005 25.9996 11.1701 25.9996 20.0003C25.9996 24.9223 28.2276 29.3284 31.7276 32.2624L36.7016 34.1284L36.7736 34.1564L36.8456 34.1884L36.8716 34.2024L36.9296 34.2304L36.9596 34.2464L36.9816 34.2584L37.0056 34.2724L37.0356 34.2904L37.0816 34.3204L37.1116 34.3384L37.1256 34.3484L37.1396 34.3564L37.2356 34.4284C37.2716 34.4564 37.3076 34.4864 37.3396 34.5164L37.3496 34.5244L37.3716 34.5464L37.4176 34.5904L37.4396 34.6124L37.4556 34.6284L37.4736 34.6484L37.5016 34.6784L37.5336 34.7204L37.5536 34.7424L37.5636 34.7544L37.5776 34.7704L37.6456 34.8644C37.6716 34.9024 37.6956 34.9404 37.7196 34.9784L37.7236 34.9864L37.7376 35.0124L37.7716 35.0724L37.7836 35.0984L37.7956 35.1184L37.8056 35.1444L37.8236 35.1804L37.8436 35.2264L37.8556 35.2564L37.8616 35.2724L37.8696 35.2904L37.8976 35.3744L37.9056 35.3964L37.9076 35.4045L37.9296 35.4764Z" fill="#67C6B3"/>
</g>
<defs>
<clipPath id="clip0_847_28">
<rect width="64" height="64" fill="white"/>
</clipPath>
</defs>
</svg>
